<svg className="export__arrow" width="8" fill='#fff' height="8" viewBox="0 0 8 8" xmlns="http://www.w3.org/2000/svg"><path d="M3.09331 6.66223L0.618954 2.42694C0.524989 2.26491 0.474409 2.08138 0.4721 1.89408C0.469792 1.70679 0.515833 1.52206 0.605777 1.35776C0.696263 1.19254 0.829373 1.05459 0.991254 0.958255C1.15313 0.861921 1.33787 0.810727 1.52625 0.809999L6.47495 0.809999C6.66349 0.810559 6.84842 0.861674 7.01048 0.958017C7.17255 1.05436 7.3058 1.1924 7.39636 1.35776C7.48622 1.52192 7.53222 1.70648 7.52992 1.89361C7.52761 2.08074 7.47707 2.26411 7.38319 2.426L4.90789 6.66129C4.81597 6.82059 4.68372 6.95287 4.52446 7.04485C4.36519 7.13682 4.18452 7.18524 4.0006 7.18524C3.81668 7.18524 3.63601 7.13682 3.47674 7.04485C3.31748 6.95287 3.18523 6.82153 3.09331 6.66223Z"></path></svg>