<svg width="57" height="93" viewBox="0 0 57 93" fill="none" xmlns="http://www.w3.org/2000/svg">
<g id="back_hair">
<path id="path4007" d="M51.8458 51.3817C49.4764 48.4231 49.2704 44.9714 49.2704 44.9714L44.8405 43.1962L28.6666 49.3107L12.5956 43.1962L8.16583 44.9714C8.16583 44.9714 7.85677 48.4231 5.59035 51.3817C3.32394 54.3404 2.70582 58.7783 5.28129 61.0466C7.85677 63.3149 3.94205 57.5949 6.31148 56.1156C8.68092 54.6362 8.88696 56.4114 8.88696 56.4114C8.88696 56.4114 6.31149 61.6384 9.19602 67.5557C12.0805 73.4729 18.2617 76.4316 18.2617 76.4316C18.2617 76.4316 15.8922 69.5281 17.4375 67.7529C18.9828 65.9777 27.7394 79.3902 28.2545 85.0116C28.4605 86.7868 28.5636 87.9703 28.5636 88.7593V90.6331C28.5636 90.6331 28.5636 90.6331 28.6666 89.6468C28.7696 90.6331 28.7696 90.6331 28.7696 90.6331V88.7593C28.8726 87.9703 28.9756 86.6882 29.0787 85.0116C29.5938 79.2916 38.3504 65.9777 39.8956 67.7529C41.4409 69.5281 39.0715 76.4316 39.0715 76.4316C39.0715 76.4316 45.2526 73.4729 48.1372 67.5557C51.0217 61.6384 48.4462 56.4114 48.4462 56.4114C48.4462 56.4114 48.7553 54.6362 51.0217 56.1156C53.2881 57.5949 49.4764 63.3149 52.0519 61.0466C54.6273 58.7783 54.1122 54.3404 51.8458 51.3817Z" fill="#754C24" stroke="black" stroke-width="0.396875" stroke-linecap="round" stroke-linejoin="round"/>
</g>
</svg>
