<svg width="47" height="75" viewBox="0 0 47 75" fill="none" xmlns="http://www.w3.org/2000/svg">
<g id="back_hair">
<path id="path637" d="M2.6234 4.02952C-1.78937 15.7553 2.43561 36.3669 4.40728 49.0087C6.37894 61.6505 19.9928 69.8035 18.7723 74.2007C28.7245 73.651 39.8033 54.6883 41.5872 49.0087C43.465 43.4206 45.9061 34.9928 46 23.5419C46 17.9538 46 9.43435 44.6856 7.14417C40.5545 0.182019 4.31339 -0.734051 2.6234 4.02952V4.02952Z" fill="#754C24" stroke="black" stroke-width="0.533434" stroke-linecap="round" stroke-linejoin="round"/>
<path id="path639" opacity="0.3" d="M6.09733 44.0619C3.84398 35.8172 3.18676 28.5803 4.21954 22.5342C4.40732 29.5879 5.06454 36.8249 6.09733 44.0619Z" fill="black"/>
<path id="path641" opacity="0.3" d="M40.3668 44.0619C42.6201 35.8172 43.2773 28.5803 42.2445 22.5342C42.0568 29.5879 41.3995 36.8249 40.3668 44.0619Z" fill="black"/>
<path id="path643" opacity="0.8" d="M30.7901 41.3137C30.7901 41.3137 41.024 27.2978 28.1612 22.9006C35.5784 27.481 30.7901 41.3137 30.7901 41.3137Z" fill="black"/>
<path id="path645" opacity="0.8" d="M40.3668 32.5194C40.3668 32.5194 42.9957 15.4804 29.4757 17.3126C38.3012 18.137 40.3668 32.5194 40.3668 32.5194Z" fill="black"/>
<path id="path647" opacity="0.8" d="M14.5473 41.3137C14.5473 41.3137 4.31343 27.2978 17.1762 22.9006C9.75898 27.481 14.5473 41.3137 14.5473 41.3137Z" fill="black"/>
<path id="path649" opacity="0.8" d="M6.94243 34.9012C6.94243 34.9012 1.87243 18.4119 15.4863 18.3203C6.94243 20.3356 6.94243 34.9012 6.94243 34.9012Z" fill="black"/>
<path id="path651" opacity="0.8" d="M20.3685 28.6719C20.3685 28.6719 25.7202 44.978 12.0124 45.3444C20.6502 43.2374 20.3685 28.6719 20.3685 28.6719Z" fill="black"/>
<path id="path653" opacity="0.8" d="M26.0018 28.6719C26.0018 28.6719 20.744 44.978 34.3579 45.3444C25.7201 43.2374 26.0018 28.6719 26.0018 28.6719Z" fill="black"/>
<path id="path655" opacity="0.8" d="M41.9629 37.741C43.0895 36.7333 45.9062 20.244 43.3712 16.7629C43.9345 25.0992 42.3384 37.4662 41.9629 37.741Z" fill="white"/>
<path id="path657" opacity="0.8" d="M7.22399 40.306C6.09732 39.2983 3.28067 22.809 5.81566 19.3279C5.25233 27.7558 6.75454 40.0312 7.22399 40.306Z" fill="white"/>
<path id="path659" opacity="0.8" d="M15.9557 34.9012C15.9557 34.9012 5.72182 20.8853 18.5846 16.4881C11.0735 21.1601 15.9557 34.9012 15.9557 34.9012Z" fill="black"/>
<path id="path661" opacity="0.8" d="M29.5696 34.9012C29.5696 34.9012 39.8034 20.8853 26.9407 16.4881C34.4518 21.1601 29.5696 34.9012 29.5696 34.9012Z" fill="black"/>
</g>
</svg>
