<svg width="62" height="182" viewBox="0 0 62 182" fill="none" xmlns="http://www.w3.org/2000/svg">
<g id="dress-4">
<g id="shirt">
<g id="chest">
<path id="line748" d="M30.5671 36.4888V32" stroke="black" stroke-width="0.533434" stroke-linecap="round" stroke-linejoin="round"/>
<path id="path750" d="M15.2804 38.8705C15.2804 38.8705 24.8346 36.7636 30.4716 36.8552C36.0131 36.9468 45.8539 38.8705 45.8539 38.8705C45.8539 38.8705 36.8729 50.5963 29.2296 50.5963C21.5862 50.5963 15.2804 38.8705 15.2804 38.8705Z" fill="#EBC3A5" stroke="black" stroke-width="0.533434" stroke-linecap="round" stroke-linejoin="round"/>
</g>
<path id="path208" opacity="0.5" d="M21.7004 51.2708C21.7004 51.2708 26.5553 55.2172 31.3235 55.2172C37.0453 55.2172 39.9928 52.2145 39.9928 52.2145C39.9928 52.2145 35.3114 57.4478 30.6299 57.4478C27.1621 57.4478 21.7004 51.2708 21.7004 51.2708V51.2708Z" fill="black"/>
<g id="path210">
<path d="M47.5353 93.85C46.495 91.1905 45.9748 85.2709 46.0615 76.2628C46.0615 68.2843 47.7954 59.9625 48.8357 57.303C51.0031 51.6408 51.6966 42.3753 49.7893 40.059C49.0958 39.1153 42.1603 38.2574 42.1603 38.2574V38.3432L40.5998 38.0858C39.0393 41.0027 36.9586 44.0054 31.1502 44.0054C24.6481 44.0054 22.2207 40.3164 20.4001 38L16.5856 38.5147C16.5856 38.5147 10.1702 39.7158 9.99685 40.6595C9.65008 44.0912 9.99685 51.6408 12.0775 57.303C13.1178 60.0483 14.8517 68.7132 14.8517 76.8634C14.8517 85.6141 14.3315 90.2468 13.2045 93.85" fill="#21201E"/>
<path d="M47.5353 93.85C46.495 91.1905 45.9748 85.2709 46.0615 76.2628C46.0615 68.2843 47.7954 59.9625 48.8357 57.303C51.0031 51.6408 51.6966 42.3753 49.7893 40.059C49.0958 39.1153 42.1603 38.2574 42.1603 38.2574V38.3432L40.5998 38.0858C39.0393 41.0027 36.9586 44.0054 31.1502 44.0054C24.6481 44.0054 22.2207 40.3164 20.4001 38L16.5856 38.5147C16.5856 38.5147 10.1702 39.7158 9.99685 40.6595C9.65008 44.0912 9.99685 51.6408 12.0775 57.303C13.1178 60.0483 14.8517 68.7132 14.8517 76.8634C14.8517 85.6141 14.3315 90.2468 13.2045 93.85" stroke="black" stroke-width="0.396875" stroke-miterlimit="10" stroke-linecap="round" stroke-linejoin="round"/>
</g>
<path id="path224" opacity="0.3" d="M47.0152 57.5336C47.0152 57.5336 46.2349 68.5148 44.8478 72.547C43.5474 76.4934 41.8135 79.4103 41.8135 79.4103C41.8135 79.4103 43.4607 78.295 45.368 74.0055C47.2752 69.5443 47.0152 55.9893 47.0152 57.5336Z" fill="black"/>
<path id="path226" opacity="0.3" d="M14.0715 57.1045C14.0715 57.1045 14.8517 68.0858 16.2388 72.118C17.5392 76.0644 19.2731 78.9813 19.2731 78.9813C19.2731 78.9813 17.6259 77.866 15.7186 73.5764C13.8114 69.2011 14.0715 57.1045 14.0715 57.1045Z" fill="black"/>
<g id="path316">
<path d="M14.8518 51.9839C14.8518 51.9839 14.3316 56.9598 14.1583 58.504C13.2046 68.1984 13.6381 91.362 12.5978 93.5068L1.15418 92.5631C0.027157 91.7052 5.40218 46.9222 6.78928 44.1769C7.48283 42.8042 8.86994 40.5737 10.4304 40.2305" fill="#21201E"/>
<path d="M14.8518 51.9839C14.8518 51.9839 14.3316 56.9598 14.1583 58.504C13.2046 68.1984 13.6381 91.362 12.5978 93.5068L1.15418 92.5631C0.027157 91.7052 5.40218 46.9222 6.78928 44.1769C7.48283 42.8042 8.86994 40.5737 10.4304 40.2305" stroke="black" stroke-width="0.396875" stroke-miterlimit="10" stroke-linecap="round" stroke-linejoin="round"/>
</g>
<g id="path306">
<path d="M46.8881 52.7265C46.8881 52.7265 47.3216 57.0161 47.5817 59.504C48.5353 69.1984 48.3619 92.362 49.4022 94.5068L60.8458 93.5631C61.9728 92.7051 56.5978 47.9222 55.2107 45.1769C54.2571 43.2895 52.4365 41.6595 50.1825 40.63" fill="#21201E"/>
<path d="M46.8881 52.7265C46.8881 52.7265 47.3216 57.0161 47.5817 59.504C48.5353 69.1984 48.3619 92.362 49.4022 94.5068L60.8458 93.5631C61.9728 92.7051 56.5978 47.9222 55.2107 45.1769C54.2571 43.2895 52.4365 41.6595 50.1825 40.63" stroke="black" stroke-width="0.396875" stroke-miterlimit="10" stroke-linecap="round" stroke-linejoin="round"/>
</g>
<g id="back_hijab">
<path id="path212" d="M12.3787 34.752C12.636 37.2358 11.3496 41.0443 12.7217 42.783C13.5793 43.9421 14.3511 41.9551 15.2944 42.8658C16.4093 43.9421 13.0648 48.4129 15.2087 49.4892C16.6665 50.2344 16.7523 48.4129 18.4674 48.8269C19.4107 49.0753 20.0968 52.3042 21.3831 54.0429C24.6419 58.3481 28.6724 58.1825 30.3018 58.1825C33.7321 58.1825 40.5926 47.0054 40.7641 45.1012C40.9356 43.1969 47.6246 40.9615 48.4822 37.8154C49.8543 32.5994 46.6813 25.6448 45.9095 17.8622C45.6522 14.9645 42.3935 -0.0211104 27.5576 1.0552C21.7262 1.63475 9.72025 8.92056 12.3787 34.752Z" fill="#58646D" stroke="black" stroke-width="0.396875" stroke-miterlimit="10" stroke-linecap="round" stroke-linejoin="round"/>
<path id="path214" opacity="0.3" d="M14.6084 42.1207C14.6084 42.1207 15.2945 44.3561 15.7232 38.2294C16.9238 47.2538 15.6375 42.7002 15.6375 42.7002L14.6084 42.1207Z" fill="black"/>
<path id="path216" opacity="0.3" d="M17.5241 48.413C17.5241 48.413 19.5823 47.2539 19.325 38.809C21.5547 44.7701 18.7247 48.9925 18.7247 48.9925L17.5241 48.413Z" fill="black"/>
<path id="path218" d="M30.902 54.2913C23.3555 52.2215 27.8148 44.5217 23.3555 39.3057" stroke="black" stroke-width="0.264583" stroke-miterlimit="10" stroke-linecap="round" stroke-linejoin="round"/>
<path id="path220" opacity="0.3" d="M42.2221 39.3885C42.2221 39.3885 34.161 46.8399 26.0141 48.4958C26.0141 51.4763 32.7031 49.4065 32.7031 49.4065C32.7031 49.4065 27.5577 50.4 27.7292 48.6613C34.4182 47.4195 42.2221 39.3885 42.2221 39.3885V39.3885Z" fill="black"/>
<path id="path222" opacity="0.3" d="M36.8193 47.9162C36.1332 50.6484 30.8163 54.8709 30.8163 54.8709L29.7872 53.7118C29.873 53.7118 33.9035 51.6419 36.8193 47.9162Z" fill="black"/>
</g>
</g>
<g id="skirt">
<path id="path198" d="M52.1303 153.105C51.0899 143.325 51.0032 91.6783 45.6282 87.8177C40.2532 83.9571 30.2834 89.8767 30.2834 89.8767C30.2834 89.8767 21.5273 83.5282 15.5455 87.8177C9.13011 92.5362 9.39019 138.778 8.17648 150.703C6.87607 162.628 2.62807 172.15 4.01517 174.209C5.40227 176.268 9.56358 176.869 12.5979 176.783C15.6322 176.697 18.3197 177.126 20.487 178.499C22.3076 179.614 27.0757 181.158 30.3701 180.987C33.6645 181.073 38.4326 179.614 40.2532 178.499C42.4206 177.126 45.1081 176.697 48.1423 176.783C51.1766 176.869 55.9448 175.582 56.725 173.609C57.5053 171.636 53.0839 162.971 52.1303 153.105Z" fill="#21201E" stroke="black" stroke-width="0.396875" stroke-miterlimit="10" stroke-linecap="round" stroke-linejoin="round"/>
<path id="path200" opacity="0.3" d="M37.0455 117.158C37.0455 117.158 37.479 171.378 45.6282 176.869C33.4044 178.242 37.0455 117.158 37.0455 117.158Z" fill="black"/>
<path id="path202" opacity="0.3" d="M14.9386 176.955C22.3943 173.437 23.5213 117.244 23.5213 117.244C23.5213 117.244 26.2955 179.7 14.9386 176.955Z" fill="black"/>
</g>
</g>
</svg>
