<svg width="40" height="133" viewBox="0 0 40 133" fill="none" xmlns="http://www.w3.org/2000/svg">
<g id="dress-1">
<g id="skirt">
<g id="path1655">
<path d="M5.21103 51.1412C4.31507 55.079 3.15033 58.4918 2.34398 69.6051C-0.0750934 96.4696 4.76305 127.534 3.50872 129.985C3.50872 130.072 13.185 131.91 19.7254 131.997C26.2659 132.085 36.4797 130.072 36.6589 129.897C35.0462 127.272 39.526 103.383 37.2861 69.3426C36.4797 58.5793 35.315 55.079 34.3295 50.9662" fill="#1D4E89"/>
<path d="M5.21103 51.1412C4.31507 55.079 3.15033 58.4918 2.34398 69.6051C-0.0750934 96.4696 4.76305 127.534 3.50872 129.985C3.50872 130.072 13.185 131.91 19.7254 131.997C26.2659 132.085 36.4797 130.072 36.6589 129.897C35.0462 127.272 39.526 103.383 37.2861 69.3426C36.4797 58.5793 35.315 55.079 34.3295 50.9662" stroke="black" stroke-width="0.396875" stroke-linecap="round" stroke-linejoin="round"/>
</g>
<path id="path1657" opacity="0.3" d="M16.2312 127.534C16.2312 127.534 30.5664 128.847 32.4479 126.834C34.3294 124.822 33.8815 122.634 33.8815 122.634C33.8815 122.634 26.8034 127.534 16.2312 127.534V127.534Z" fill="black"/>
<path id="path1659" d="M4.22534 55.1666C4.67332 57.9668 4.8525 61.5546 4.13574 71.9678C1.98546 97.0822 7.09239 125.522 6.01725 127.797C6.01725 127.884 13.9912 129.547 19.8149 129.722C25.6386 129.81 34.0605 127.884 34.2397 127.709C32.8062 125.259 37.4652 103.47 35.4045 71.7053C34.6877 61.6421 34.5085 59.0169 35.0461 55.1666" stroke="black" stroke-width="0.264583" stroke-linecap="round" stroke-linejoin="round"/>
</g>
<g id="shirt">
<g id="path1665">
<path d="M34.5086 51.7538C34.2398 50.1787 31.0144 39.3279 30.9248 34.34C30.8352 29.3521 33.8814 25.1518 34.7774 13.5135C34.7774 13.5135 39.2572 9.75067 38.9884 8.43808C38.7196 7.12548 34.9566 5.37535 34.9566 5.37535C34.9566 5.37535 30.656 4.41278 27.4306 4.50028C27.2514 4.50028 26.2658 3.88774 25.6387 2.31262C24.7427 2.31262 22.9508 3.18769 21.6069 3.01268C20.9797 2.92517 19.9942 6.33792 19.9942 6.33792C19.9942 6.33792 19.0982 3.01268 18.3815 3.01268C17.0375 3.01268 15.4248 2.31262 14.7977 2.31262C14.0809 3.53771 12.9162 4.50029 12.289 4.41278C9.15317 4.32527 4.763 5.37535 4.763 5.37535C4.763 5.37535 1 6.95047 1 8.43808C1 9.92569 4.763 13.3384 5.03178 13.5135C5.21097 24.4518 8.526 28.7396 8.70519 33.815C8.88438 40.8155 5.39016 50.2662 5.03178 51.7538" fill="#1D4E89"/>
<path d="M34.5086 51.7538C34.2398 50.1787 31.0144 39.3279 30.9248 34.34C30.8352 29.3521 33.8814 25.1518 34.7774 13.5135C34.7774 13.5135 39.2572 9.75067 38.9884 8.43808C38.7196 7.12548 34.9566 5.37535 34.9566 5.37535C34.9566 5.37535 30.656 4.41278 27.4306 4.50028C27.2514 4.50028 26.2658 3.88774 25.6387 2.31262C24.7427 2.31262 22.9508 3.18769 21.6069 3.01268C20.9797 2.92517 19.9942 6.33792 19.9942 6.33792C19.9942 6.33792 19.0982 3.01268 18.3815 3.01268C17.0375 3.01268 15.4248 2.31262 14.7977 2.31262C14.0809 3.53771 12.9162 4.50029 12.289 4.41278C9.15317 4.32527 4.763 5.37535 4.763 5.37535C4.763 5.37535 1 6.95047 1 8.43808C1 9.92569 4.763 13.3384 5.03178 13.5135C5.21097 24.4518 8.526 28.7396 8.70519 33.815C8.88438 40.8155 5.39016 50.2662 5.03178 51.7538" stroke="black" stroke-width="0.396875" stroke-linecap="round" stroke-linejoin="round"/>
</g>
<path id="line1667" d="M19.9941 1V4.50026" stroke="black" stroke-width="0.396875" stroke-linecap="round" stroke-linejoin="round"/>
<path id="path1669" d="M13.7225 3.62518C13.7225 4.50025 16.7688 5.98786 19.9046 6.16287C22.3237 6.33789 26.0867 4.93778 26.2659 3.88771" stroke="black" stroke-width="0.264583" stroke-linecap="round" stroke-linejoin="round"/>
<path id="path1671" d="M20.0836 6.6004C19.994 8.08801 11.5721 10.0132 8.97383 13.9509C7.00273 16.9262 6.73395 25.5018 6.73395 25.5018" stroke="black" stroke-width="0.264583" stroke-linecap="round" stroke-linejoin="round"/>
<path id="path1673" d="M27.4306 4.50026C27.4306 7.56299 14.081 10.4507 10.6763 14.9135C7.71969 18.7638 7.98848 28.7396 7.98848 28.7396" stroke="black" stroke-width="0.264583" stroke-linecap="round" stroke-linejoin="round"/>
<path id="line1675" d="M17.1272 6.95044H22.5925" stroke="black" stroke-width="0.264583" stroke-linecap="round" stroke-linejoin="round"/>
<path id="path1677" d="M11.2138 9.48811C13.4537 10.1882 14.8872 11.2382 15.6936 12.5508" stroke="black" stroke-width="0.264583" stroke-linecap="round" stroke-linejoin="round"/>
<path id="path1679" d="M9.78027 10.8007C11.6618 11.4133 13.1849 12.4633 14.26 13.8634" stroke="black" stroke-width="0.264583" stroke-linecap="round" stroke-linejoin="round"/>
<path id="path1681" d="M37.3757 7.12544C37.734 8.08801 34.5982 13.4259 34.5982 13.4259" stroke="black" stroke-width="0.264583" stroke-linecap="round" stroke-linejoin="round"/>
<path id="path1683" d="M2.61271 6.95044C2.25433 7.91301 5.21098 13.5134 5.21098 13.5134" stroke="black" stroke-width="0.264583" stroke-linecap="round" stroke-linejoin="round"/>
</g>
</g>
</svg>
