<svg width="60" height="105" viewBox="0 0 60 105" fill="none" xmlns="http://www.w3.org/2000/svg">
<g id="fress-5">
<g id="Shirt">
<g id="chest">
<path id="line748" d="M29.5671 5.48875V1" stroke="black" stroke-width="0.533434" stroke-linecap="round" stroke-linejoin="round"/>
<path id="path750" d="M14.2804 7.87054C14.2804 7.87054 23.8346 5.76358 29.4716 5.85518C35.0131 5.94679 44.8539 7.87054 44.8539 7.87054C44.8539 7.87054 35.8729 19.5963 28.2296 19.5963C20.5862 19.5963 14.2804 7.87054 14.2804 7.87054Z" fill="#EBC3A5" stroke="black" stroke-width="0.533434" stroke-linecap="round" stroke-linejoin="round"/>
</g>
<g id="path752">
<path d="M48.3889 63.6594C46.8603 59.1706 45.236 47.1701 44.9494 43.689C44.1851 34.3451 51.7329 10.9852 48.9622 8.78664C45.5227 6.13003 37.5927 5.39717 37.5927 5.39717C37.5927 5.39717 35.4907 8.23699 29.6626 8.42021C23.9301 8.51181 21.5416 5.48878 21.5416 5.48878C21.5416 5.48878 13.516 5.8552 10.0765 9.42788C9.02552 11.5349 15.6179 32.2381 15.4269 44.6051C15.3313 50.1931 13.4205 57.7049 11.7962 63.9342" fill="#2E3746"/>
<path d="M48.3889 63.6594C46.8603 59.1706 45.236 47.1701 44.9494 43.689C44.1851 34.3451 51.7329 10.9852 48.9622 8.78664C45.5227 6.13003 37.5927 5.39717 37.5927 5.39717C37.5927 5.39717 35.4907 8.23699 29.6626 8.42021C23.9301 8.51181 21.5416 5.48878 21.5416 5.48878C21.5416 5.48878 13.516 5.8552 10.0765 9.42788C9.02552 11.5349 15.6179 32.2381 15.4269 44.6051C15.3313 50.1931 13.4205 57.7049 11.7962 63.9342" stroke="black" stroke-width="0.533434" stroke-miterlimit="10" stroke-linecap="round" stroke-linejoin="round"/>
</g>
<g id="path861">
<path d="M13.8982 23.7186C13.8027 27.5661 14.6625 34.5282 14.567 34.5282C13.7071 35.5359 10.0765 35.5359 9.69434 32.6961C7.87904 34.1618 4.43952 31.4136 5.01278 29.1234C2.43314 30.0395 1 28.3905 1 26.8332C3.38855 24.4514 4.53507 16.1152 6.82808 12.5425C9.31218 8.05374 15.2358 6.58803 15.2358 6.58803" fill="#2E3746"/>
<path d="M13.8982 23.7186C13.8027 27.5661 14.6625 34.5282 14.567 34.5282C13.7071 35.5359 10.0765 35.5359 9.69434 32.6961C7.87904 34.1618 4.43952 31.4136 5.01278 29.1234C2.43314 30.0395 1 28.3905 1 26.8332C3.38855 24.4514 4.53507 16.1152 6.82808 12.5425C9.31218 8.05374 15.2358 6.58803 15.2358 6.58803" stroke="black" stroke-width="0.533434" stroke-miterlimit="10" stroke-linecap="round" stroke-linejoin="round"/>
</g>
<g id="path848">
<path d="M44.3762 6.77127C44.3762 6.77127 50.2998 7.87055 53.2616 12.5425C55.5546 16.1152 56.7966 24.4515 59.0897 26.8333C59.0897 28.4822 57.6565 30.1311 55.0769 29.1234C55.7457 31.4136 52.3062 34.1618 50.3953 32.6961C50.1087 35.5359 46.4781 35.4443 45.6182 34.5283C45.5227 34.5283 46.287 27.5661 46.1915 23.7186" fill="#2E3746"/>
<path d="M44.3762 6.77127C44.3762 6.77127 50.2998 7.87055 53.2616 12.5425C55.5546 16.1152 56.7966 24.4515 59.0897 26.8333C59.0897 28.4822 57.6565 30.1311 55.0769 29.1234C55.7457 31.4136 52.3062 34.1618 50.3953 32.6961C50.1087 35.5359 46.4781 35.4443 45.6182 34.5283C45.5227 34.5283 46.287 27.5661 46.1915 23.7186" stroke="black" stroke-width="0.533434" stroke-miterlimit="10" stroke-linecap="round" stroke-linejoin="round"/>
</g>
</g>
<g id="skirt">
<g id="path728">
<path d="M12.8472 59.6286C12.7516 60.2699 11.3185 63.9341 10.5541 72.2704C9.12101 84.4542 7.59234 91.7827 3.67511 97.0959C4.72607 98.5617 5.0127 102.959 12.6561 100.669C13.9937 103.783 18.8663 103.508 22.4969 101.676C23.6434 104.15 27.3696 105.066 30.1403 102.043C33.962 105.524 37.0193 103.966 38.0703 101.585C39.8856 103.966 46.7646 103.966 47.3379 100.302C52.3061 102.501 55.9367 98.1952 56.701 96.6379C52.5927 90.9583 51.8284 85.187 49.9175 72.7284C49.0577 67.1404 48.4844 63.2013 47.2424 59.2622" fill="#2E3746"/>
<path d="M12.8472 59.6286C12.7516 60.2699 11.3185 63.9341 10.5541 72.2704C9.12101 84.4542 7.59234 91.7827 3.67511 97.0959C4.72607 98.5617 5.0127 102.959 12.6561 100.669C13.9937 103.783 18.8663 103.508 22.4969 101.676C23.6434 104.15 27.3696 105.066 30.1403 102.043C33.962 105.524 37.0193 103.966 38.0703 101.585C39.8856 103.966 46.7646 103.966 47.3379 100.302C52.3061 102.501 55.9367 98.1952 56.701 96.6379C52.5927 90.9583 51.8284 85.187 49.9175 72.7284C49.0577 67.1404 48.4844 63.2013 47.2424 59.2622" stroke="black" stroke-width="0.533434" stroke-miterlimit="10" stroke-linecap="round" stroke-linejoin="round"/>
</g>
<path id="path730" opacity="0.3" d="M48.58 100.211C45.7137 102.318 44.3761 96.7295 43.8029 90.0422C44.6627 95.9051 47.7201 99.9358 48.58 100.211Z" fill="black"/>
<path id="path732" opacity="0.3" d="M39.3124 101.951C36.1595 102.959 35.7774 98.4701 36.3506 93.3401C36.064 97.9205 38.4526 101.585 39.3124 101.951Z" fill="black"/>
<path id="path734" opacity="0.3" d="M11.8918 100.211C14.7581 102.318 16.0957 96.7295 16.669 90.0422C15.8091 95.9051 12.7517 99.9358 11.8918 100.211Z" fill="black"/>
<path id="path736" opacity="0.3" d="M21.1594 101.951C24.3123 102.959 24.6945 98.4701 24.1212 93.3401C24.4079 97.9205 22.0193 101.585 21.1594 101.951Z" fill="black"/>
<path id="polygon738" opacity="0.3" d="M29.6627 102.043L30.2359 97.2792L31.0003 102.043H29.6627Z" fill="black"/>
</g>
</g>
</svg>
