<svg width="57" height="111" viewBox="0 0 57 111" fill="none" xmlns="http://www.w3.org/2000/svg">
<g id="dress-3">
<g id="skirt">
<path id="path2982" d="M54.647 107.645C53.0169 108.174 50.3908 107.38 50.3908 107.38C50.3908 107.38 49.6663 108.88 45.1385 109.41C40.5202 109.852 35.8112 108.439 35.8112 108.439C35.8112 108.439 33.3662 109.94 31.4645 109.94C29.3817 109.852 27.8423 108.88 27.8423 108.88C27.8423 108.88 25.7595 109.94 21.4128 109.94C16.885 109.852 15.1644 108.439 15.1644 108.439C15.1644 108.439 12.7194 109.322 7.286 108.704C1.58095 108.174 1.39984 106.232 1.39984 106.232L15.7077 42.0511L42.603 41.8745L56.3675 106.497C55.9147 105.702 56.1864 107.115 54.647 107.645Z" fill="#F8CACA" stroke="black" stroke-width="0.343932" stroke-miterlimit="6.3866" stroke-linecap="round" stroke-linejoin="round"/>
<path id="polygon2984" opacity="0.4" d="M13.3533 105.702L16.7944 106.32L18.4244 71.0957L13.3533 105.702Z" fill="black"/>
<path id="path2986" opacity="0.4" d="M50.0286 104.996L42.6029 65.9754C42.6029 65.9754 45.1385 101.994 44.1424 104.025C43.1463 106.232 40.5201 106.497 40.5201 106.497C40.5201 106.497 43.8707 106.762 46.5874 106.497C48.8513 106.32 50.0286 104.996 50.0286 104.996V104.996Z" fill="black"/>
<path id="polygon2988" opacity="0.4" d="M33.4567 105.702L34.2717 84.338L36.9884 105.702H33.4567Z" fill="black"/>
</g>
<g id="shirt">
<path id="path2994" d="M28.8383 5.14922C22.2277 5.14922 11.2704 6.82657 11.2704 6.82657C12.8098 17.597 27.48 14.0657 29.4722 13.8008C31.3739 14.2423 44.7762 18.0384 46.1346 6.82657C45.9535 6.91485 35.5395 5.14922 28.8383 5.14922Z" fill="#EBC3A5" stroke="black" stroke-width="0.343932" stroke-miterlimit="2.5547" stroke-linecap="round" stroke-linejoin="round"/>
<path id="path2996" d="M43.5084 10.9759C43.5084 10.9759 44.2329 9.47509 45.0479 6.73835C45.7723 4.17818 49.3946 5.94381 49.7568 8.15086C50.2096 10.3579 55.2807 25.9838 55.8241 27.3963C56.3674 28.8971 46.4968 35.8714 44.0518 31.987C40.7012 24.7479 43.5084 10.9759 43.5084 10.9759V10.9759Z" fill="#F8CACA" stroke="black" stroke-width="0.343932" stroke-miterlimit="6.3866" stroke-linecap="round" stroke-linejoin="round"/>
<path id="path2998" d="M12.8099 31.7221C10.2743 35.783 0.313124 28.5439 1.03757 27.1314C1.58091 25.6306 6.74262 10.1813 7.10484 7.88596C7.55763 5.67891 11.0893 3.82498 11.8138 6.47344C12.5382 9.03362 13.3532 10.711 13.3532 10.711C13.3532 10.711 16.3416 24.7478 12.8099 31.7221V31.7221Z" fill="#F8CACA" stroke="black" stroke-width="0.343932" stroke-miterlimit="6.3866" stroke-linecap="round" stroke-linejoin="round"/>
<path id="path3000" d="M23.3144 11.5938C27.5706 13.0946 26.1217 15.1251 28.4761 15.1251H28.5667C31.1023 15.1251 29.5628 13.0946 33.7284 11.5938C36.3546 10.6227 41.154 11.329 44.0518 11.7704C43.8707 10.711 43.7802 9.91649 43.7802 9.91649C32.0078 6.20865 29.2006 11.4173 28.4761 12.3884C28.0234 11.4173 25.4878 6.47349 13.8966 9.91649C13.8966 9.91649 13.9871 10.6227 13.806 11.7704C16.5227 11.2407 20.6883 10.5345 23.3144 11.5938V11.5938Z" fill="#F8CACA" stroke="black" stroke-width="0.343932" stroke-miterlimit="6.3866" stroke-linecap="round" stroke-linejoin="round"/>
<path id="path3002" d="M33.9094 11.5938C29.6533 13.0946 31.1022 15.1251 28.7477 15.1251H28.6572C26.1216 15.1251 27.661 13.0946 23.4954 11.5938C20.8693 10.6227 16.2509 11.329 13.7154 11.7704C13.4437 13.9774 12.1759 17.3321 12.2665 19.4509C12.7192 22.6291 15.0737 36.2245 15.0737 37.3721C15.0737 38.5198 15.0737 42.9339 15.0737 42.9339C15.0737 42.9339 25.6688 44.7878 28.3855 44.7878C28.476 44.7878 28.8383 44.7878 28.9288 44.7878C31.4644 44.7878 42.0595 42.3159 42.0595 42.3159C42.0595 42.3159 41.5161 39.1378 41.5161 37.7253C41.5161 36.3127 44.5045 22.9822 44.7762 19.9806C45.0478 17.7736 44.0517 14.0657 43.7801 11.947C40.9728 11.2407 36.6261 10.5344 33.9094 11.5938Z" fill="#F8CACA" stroke="black" stroke-width="0.343932" stroke-miterlimit="6.3866" stroke-linecap="round" stroke-linejoin="round"/>
<path id="line3004" d="M28.6573 4.8844V1" stroke="black" stroke-width="0.343932" stroke-miterlimit="6.3866" stroke-linecap="round" stroke-linejoin="round"/>
<path id="path3006" opacity="0.3" d="M34.9056 39.9323C34.7245 39.4909 32.6417 43.1987 32.6417 43.1987L28.6572 43.9933V43.905C28.7477 43.7284 28.7477 43.7284 28.7477 43.7284L28.4761 42.2276L28.0233 39.844L27.5705 42.2276L27.2988 43.7284C27.2988 43.7284 27.2988 43.8167 27.3894 43.905V43.9933L23.4049 43.1987C23.4049 43.1987 21.5032 39.3143 21.141 39.9323C20.9599 40.3737 22.1371 43.1105 22.1371 43.1105C25.3972 44.6112 27.0272 44.6112 27.8422 44.523C28.3855 44.6995 30.3778 44.6995 33.5472 43.1105C34.1811 43.1987 35.2678 40.2854 34.9056 39.9323V39.9323Z" fill="black"/>
<path id="path3008" opacity="0.3" d="M23.3144 11.6821C27.5705 13.1829 26.1216 15.2134 28.4761 15.2134H28.5666C31.1022 15.2134 29.5627 13.1829 33.7283 11.6821C36.3545 10.711 41.154 11.4173 44.0518 11.8587C43.8706 10.7993 43.7801 10.0048 43.7801 10.0048C32.0078 6.29694 29.2005 11.5056 28.4761 12.4767C28.0233 11.5056 25.4877 6.56178 13.8965 10.0048C13.8965 10.0048 13.8965 10.711 13.7154 11.8587C16.3415 11.329 20.6882 10.711 23.3144 11.6821V11.6821Z" fill="black"/>
<path id="path3012" d="M34.6339 5.67893C34.6339 7.53285 31.9172 9.03363 28.4761 9.03363C25.0349 9.03363 22.3182 7.53285 22.3182 5.67893C22.3182 5.3258 22.9521 5.67892 23.1332 5.41408C23.8577 6.82659 25.6688 7.17972 28.4761 7.17972C31.2833 7.17972 33.0944 6.82659 33.9094 5.41408C34.0906 5.67892 34.6339 5.3258 34.6339 5.67893V5.67893Z" fill="#EAC03B" stroke="black" stroke-width="0.264583" stroke-miterlimit="6.3866" stroke-linecap="round" stroke-linejoin="round"/>
</g>
</g>
</svg>
