<svg width="43" height="113" viewBox="0 0 43 113" fill="none" xmlns="http://www.w3.org/2000/svg">
<g id="dress-2">
<g id="skirt">
<g id="path4035">
<path d="M4.85783 51.0781C3.8362 55.0109 2.50807 58.4193 1.5886 69.5187C0.260476 85.4248 1.17995 106.924 4.34701 111.207C4.34701 111.294 6.69677 111.469 9.55734 111.556C9.04652 109.371 9.6595 96.8737 10.6811 94.6014C10.6811 96.4367 12.1114 110.508 12.4179 111.644C16.5044 111.818 20.7953 111.993 21.4083 111.993C22.6342 112.081 38.3674 111.294 38.5717 111.119C41.7388 106.924 42.7604 85.25 41.4323 69.2565C40.5128 58.5067 38.4696 55.0109 37.3458 50.9033" fill="#BA0000"/>
<path d="M4.85783 51.0781C3.8362 55.0109 2.50807 58.4193 1.5886 69.5187C0.260476 85.4248 1.17995 106.924 4.34701 111.207C4.34701 111.294 6.69677 111.469 9.55734 111.556C9.04652 109.371 9.6595 96.8737 10.6811 94.6014C10.6811 96.4367 12.1114 110.508 12.4179 111.644C16.5044 111.818 20.7953 111.993 21.4083 111.993C22.6342 112.081 38.3674 111.294 38.5717 111.119C41.7388 106.924 42.7604 85.25 41.4323 69.2565C40.5128 58.5067 38.4696 55.0109 37.3458 50.9033" stroke="black" stroke-width="0.396875" stroke-linecap="round" stroke-linejoin="round"/>
</g>
<path id="path4037" opacity="0.3" d="M17.424 108.76C17.424 108.76 33.7701 110.071 35.9155 108.06C38.0609 106.05 37.5501 103.865 37.5501 103.865C37.5501 103.865 29.4792 108.76 17.424 108.76V108.76Z" fill="black"/>
</g>
<g id="shirt">
<path id="path4043" d="M9.76147 4.84544H33.872C33.872 4.84544 32.6461 16.207 22.0211 15.5952C11.3961 14.9834 9.76147 4.84544 9.76147 4.84544Z" fill="#EBC3A5" stroke="black" stroke-width="0.396875" stroke-linecap="round" stroke-linejoin="round"/>
<g id="path4045">
<path d="M37.5501 51.6898C37.2436 50.1167 33.1571 36.5703 34.8938 33.6862C36.9371 30.5399 38.5717 16.2943 38.5717 13.4977C38.5717 10.701 39.0825 6.24378 38.8782 5.36982C38.6739 4.49585 36.5285 5.19502 36.1198 4.49585C35.8133 3.79668 33.2592 4.32106 33.2592 4.32106C33.2592 4.32106 28.8662 12.7985 22.0213 12.7111C15.1763 12.6237 9.96599 4.32106 9.96599 4.32106C9.96599 4.32106 7.41191 3.70929 7.10542 4.49585C6.79893 5.19502 4.55134 4.49585 4.34701 5.36982C4.14268 6.24378 4.6535 10.7884 4.6535 13.4977C4.6535 16.2943 6.90109 30.6273 8.84219 33.7736C10.1703 36.5703 5.06215 50.2041 4.6535 51.6898" fill="#BA0000"/>
<path d="M37.5501 51.6898C37.2436 50.1167 33.1571 36.5703 34.8938 33.6862C36.9371 30.5399 38.5717 16.2943 38.5717 13.4977C38.5717 10.701 39.0825 6.24378 38.8782 5.36982C38.6739 4.49585 36.5285 5.19502 36.1198 4.49585C35.8133 3.79668 33.2592 4.32106 33.2592 4.32106C33.2592 4.32106 28.8662 12.7985 22.0213 12.7111C15.1763 12.6237 9.96599 4.32106 9.96599 4.32106C9.96599 4.32106 7.41191 3.70929 7.10542 4.49585C6.79893 5.19502 4.55134 4.49585 4.34701 5.36982C4.14268 6.24378 4.6535 10.7884 4.6535 13.4977C4.6535 16.2943 6.90109 30.6273 8.84219 33.7736C10.1703 36.5703 5.06215 50.2041 4.6535 51.6898" stroke="black" stroke-width="0.396875" stroke-linecap="round" stroke-linejoin="round"/>
</g>
<path id="path4047" opacity="0.3" d="M7.71838 6.06897C7.71838 6.06897 11.7028 10.0892 9.76165 10.0892C7.82055 10.0892 7.71838 6.06897 7.71838 6.06897Z" fill="black"/>
<path id="path4049" opacity="0.3" d="M35.609 6.41855C35.609 6.41855 31.6246 10.4388 33.5657 10.4388C35.5068 10.4388 35.609 6.41855 35.609 6.41855Z" fill="black"/>
<path id="line4051" d="M21.7148 1V4.49585" stroke="black" stroke-width="0.396875" stroke-linecap="round" stroke-linejoin="round"/>
<path id="path4053" opacity="0.3" d="M10.681 8.51604C10.681 8.51604 13.0308 14.2842 16.6065 15.7699C20.1822 17.2557 26.5163 17.9548 26.5163 17.9548C26.5163 17.9548 23.2471 18.4792 17.6281 17.2557C12.0092 16.0321 10.681 8.51604 10.681 8.51604Z" fill="black"/>
<path id="path4055" opacity="0.3" d="M32.7482 8.69089C32.7482 8.69089 29.2747 13.8473 26.8227 14.7212C24.2687 15.5952 18.241 15.4204 18.241 15.4204C18.241 15.4204 23.4514 16.7313 27.2314 15.4204C31.0114 14.1095 32.7482 8.69089 32.7482 8.69089Z" fill="black"/>
<path id="rect4057" d="M21.784 7.89472L19.9456 9.53487L21.8629 11.1075L23.7013 9.46738L21.784 7.89472Z" fill="#FBC926" stroke="black" stroke-width="0.198438" stroke-linecap="round" stroke-linejoin="round"/>
<path id="path4059" d="M16.6066 4.75804C16.6066 4.75804 17.6283 7.9917 21.817 7.9043C26.0057 7.81691 26.5165 4.84544 26.5165 4.84544" stroke="black" stroke-width="0.198438" stroke-linecap="round" stroke-linejoin="round"/>
</g>
</g>
</svg>
