<svg width="39" height="44" viewBox="0 0 29 34" fill="none" xmlns="http://www.w3.org/2000/svg">
<g id="facial_exp-1">
<g id="gls_1636353278240">
<g id="g608">
<path id="path584" d="M11.4278 30.0056L17.7477 30.1913C17.7477 30.1913 18.4403 32.9782 14.8042 32.9782C11.0815 32.9782 11.4278 30.0056 11.4278 30.0056Z" fill="#AF4B4B" stroke="black" stroke-width="0.282128" stroke-miterlimit="10" stroke-linecap="round" stroke-linejoin="round"/>
<path id="path586" d="M12.2935 26.847C13.1593 23.5028 15.4102 22.0164 16.8819 26.6613C16.8819 26.6613 17.1417 27.2186 14.7176 27.3115C12.2935 27.4044 12.2935 26.847 12.2935 26.847Z" fill="#AF4B4B" stroke="black" stroke-width="0.282128" stroke-miterlimit="10" stroke-linecap="round" stroke-linejoin="round"/>
<path id="path588" d="M3.03011 10.8689C2.16436 11.3333 2.77038 14.3989 3.46298 14.7705C5.54075 16.4426 10.2158 15.3279 11.6875 15.1421C11.6875 15.1421 11.2546 12.1694 10.3889 11.612C9.78289 11.2404 5.7139 9.01094 3.03011 10.8689V10.8689Z" fill="white" stroke="black" stroke-width="0.376171" stroke-miterlimit="10" stroke-linecap="round" stroke-linejoin="round"/>
<path id="path590" d="M18.7 11.612C17.8343 12.0765 17.4014 15.1421 17.4014 15.1421C18.8732 15.3279 22.9421 16.5356 25.6259 14.7705C26.3185 14.3989 26.838 11.8907 26.1454 10.9618C24.8468 9.75412 20.6912 10.3115 18.7 11.612Z" fill="white" stroke="black" stroke-width="0.376171" stroke-miterlimit="10" stroke-linecap="round" stroke-linejoin="round"/>
<path id="circle592" d="M21.9898 13.8416C22.4201 13.8416 22.7689 13.4673 22.7689 13.0055C22.7689 12.5438 22.4201 12.1694 21.9898 12.1694C21.5594 12.1694 21.2106 12.5438 21.2106 13.0055C21.2106 13.4673 21.5594 13.8416 21.9898 13.8416Z" fill="black" stroke="black" stroke-width="0.376171" stroke-miterlimit="10" stroke-linecap="round" stroke-linejoin="round"/>
<path id="circle594" d="M7.35879 13.9345C7.83693 13.9345 8.22453 13.5186 8.22453 13.0055C8.22453 12.4924 7.83693 12.0765 7.35879 12.0765C6.88065 12.0765 6.49304 12.4924 6.49304 13.0055C6.49304 13.5186 6.88065 13.9345 7.35879 13.9345Z" fill="black" stroke="black" stroke-width="0.376171" stroke-miterlimit="10" stroke-linecap="round" stroke-linejoin="round"/>
<path id="path596" d="M18.1806 6.13116C17.488 6.03826 16.7088 5.57378 17.3149 4.9235C23.1153 0.928964 27.6171 8.17488 27.6171 8.17488C22.3361 2.78689 18.9598 6.03826 18.1806 6.13116Z" fill="#754C24" stroke="black" stroke-width="0.376171" stroke-linecap="round" stroke-linejoin="round"/>
<path id="path598" d="M17.661 30.5629C18.0073 29.4481 16.9685 25.2678 14.5444 25.2678C12.38 25.2678 10.6486 29.8197 11.774 30.8416C12.8995 31.8635 17.3147 31.5848 17.661 30.5629V30.5629Z" fill="#C1272D" stroke="black" stroke-width="0.376171" stroke-miterlimit="10" stroke-linecap="round" stroke-linejoin="round"/>
<path id="path600" d="M1.55835 8.17488C1.55835 8.17488 6.06022 0.928964 11.8607 4.9235C12.4667 5.57378 11.7741 6.13116 10.9949 6.13116C10.2158 6.03826 6.83937 2.78689 1.55835 8.17488Z" fill="#754C24" stroke="black" stroke-width="0.376171" stroke-linecap="round" stroke-linejoin="round"/>
<path id="path602" d="M17.6611 30.6558C17.8342 30.1913 17.055 29.8197 14.631 29.8197C12.4666 29.8197 10.9083 30.0055 11.774 30.7487C12.8995 31.8634 17.3148 31.5847 17.6611 30.6558Z" fill="#BC7596" stroke="black" stroke-width="0.376171" stroke-miterlimit="10" stroke-linecap="round" stroke-linejoin="round"/>
<path id="path604" d="M11.7741 15.1421C10.7352 6.87434 2.16442 11.0547 0.865813 9.38254C0.779238 10.9618 2.16439 11.7978 2.94356 11.1476C3.463 10.4973 10.2158 8.17488 11.7741 15.1421V15.1421Z" fill="black" stroke="black" stroke-width="0.376171" stroke-miterlimit="10" stroke-linecap="round" stroke-linejoin="round"/>
<path id="path606" d="M17.488 15.0492C18.0074 6.68853 27.1843 10.9617 28.5695 9.28961C28.656 10.8688 27.2708 11.7049 26.4917 11.0546C25.8856 10.4973 18.5269 8.73225 17.488 15.0492V15.0492Z" fill="black" stroke="black" stroke-width="0.376171" stroke-miterlimit="10" stroke-linecap="round" stroke-linejoin="round"/>
</g>
</g>
</g>
</svg>
