<svg width="31" height="24" viewBox="0 0 31 24" fill="none" xmlns="http://www.w3.org/2000/svg">
<g id="facial_exp-2">
<path id="path1711" d="M9.8036 19.1962C9.8036 19.1962 12.5823 18.7499 15.2685 21.6065C15.5464 21.8743 14.7127 23.9274 11.8413 22.4991C8.96996 21.1601 9.8036 19.1962 9.8036 19.1962Z" fill="#AF4B4B" stroke="black" stroke-width="0.198438" stroke-miterlimit="10"/>
<path id="path1713" d="M8.8772 17.8572C10.6371 22.1421 17.2135 21.6065 17.2135 21.6065" stroke="black" stroke-width="0.264583" stroke-miterlimit="10" stroke-linecap="round" stroke-linejoin="round"/>
<path id="path1715" d="M19.6218 7.41277C18.6955 7.94838 18.2324 10.1801 18.2324 10.1801C20.2701 9.2874 24.8088 11.4298 27.0318 9.82302C27.7728 9.46594 28.4212 7.14496 27.4949 6.69862C24.6235 4.91325 20.2701 7.0557 19.6218 7.41277Z" fill="white" stroke="black" stroke-width="0.264583" stroke-miterlimit="10" stroke-linecap="round" stroke-linejoin="round"/>
<path id="path1717" d="M18.9735 2.86007C18.1399 2.86007 17.0283 1.52105 17.9546 1.34251C24.8089 -0.175055 29.1623 3.84203 29.1623 3.84203C23.9752 0.360558 19.8071 2.7708 18.9735 2.86007V2.86007Z" fill="black" stroke="black" stroke-width="0.264583" stroke-linecap="round" stroke-linejoin="round"/>
<path id="path1719" d="M11.6562 4.28836C12.3972 4.37763 13.6939 3.30641 12.8603 2.94933C9.71102 1.61031 1.37476 3.48493 1.37476 3.48493C6.74702 2.23518 10.8225 4.02055 11.6562 4.28836V4.28836Z" fill="black" stroke="black" stroke-width="0.264583" stroke-linecap="round" stroke-linejoin="round"/>
<path id="circle1721" d="M22.9563 10.1801C24.0306 10.1801 24.9015 9.34082 24.9015 8.30549C24.9015 7.27016 24.0306 6.43085 22.9563 6.43085C21.8821 6.43085 21.0112 7.27016 21.0112 8.30549C21.0112 9.34082 21.8821 10.1801 22.9563 10.1801Z" fill="black" stroke="black" stroke-width="0.264583" stroke-miterlimit="10" stroke-linecap="round" stroke-linejoin="round"/>
<path id="path1723" d="M3.31989 8.30541C4.33876 7.14492 8.78475 5.89516 11.2856 8.57321" stroke="black" stroke-width="0.264583" stroke-linecap="round" stroke-linejoin="round"/>
<path id="path1725" d="M11.3781 8.57326C8.78464 2.503 2.48615 8.21618 1.00414 6.52008C0.91152 8.03764 2.39352 8.84105 3.22714 8.21618C3.87552 7.68056 8.32152 5.18106 11.3781 8.57326Z" fill="#5586F5" stroke="black" stroke-width="0.264583" stroke-miterlimit="10" stroke-linecap="round" stroke-linejoin="round"/>
<path id="path1727" d="M18.2324 10.0016C19.2513 2.05671 28.5138 7.14502 29.9958 5.44892C30.0884 6.96648 28.6064 7.7699 27.7728 7.14502C27.1244 6.6094 20.0849 5.27038 18.2324 10.0016Z" fill="#5586F5" stroke="black" stroke-width="0.264583" stroke-miterlimit="10" stroke-linecap="round" stroke-linejoin="round"/>
</g>
</svg>
