<svg width="32" height="26" viewBox="0 0 32 26" fill="none" xmlns="http://www.w3.org/2000/svg">
<g id="facial_exp-5">
<path id="path771" d="M13.0322 21.9237C13.0322 21.9237 15.5163 20.0915 17.7137 23.939C17.3316 24.6719 16.6628 25.4048 14.6564 25.2215C11.3124 24.7635 13.0322 21.9237 13.0322 21.9237V21.9237Z" fill="#AF4B4B" stroke="black" stroke-width="0.266717" stroke-miterlimit="10"/>
<path id="path773" d="M11.3123 23.2978C12.9365 24.2139 18.5735 23.8474 18.5735 23.8474C15.5162 24.0307 11.5034 22.2901 10.6435 19.6335C10.4525 20.5496 10.548 22.7481 11.3123 23.2978Z" fill="white" stroke="black" stroke-width="0.355623" stroke-miterlimit="10" stroke-linecap="round" stroke-linejoin="round"/>
<path id="path775" d="M20.3889 8.3658C19.4334 8.82384 18.9557 10.7476 18.9557 10.7476C20.5799 10.9308 25.7392 12.0301 28.0322 10.3812C28.7966 10.0147 29.4654 8.27419 28.5099 7.81616C25.5481 5.98401 21.0576 7.90777 20.3889 8.3658V8.3658Z" fill="white" stroke="black" stroke-width="0.355623" stroke-miterlimit="10" stroke-linecap="round" stroke-linejoin="round"/>
<path id="path777" d="M3.0001 7.99936C2.23577 8.82383 2.809 10.0147 3.57333 10.3812C6.53514 12.1217 11.0256 10.9308 12.6498 10.7476C12.6498 10.7476 12.1721 9.00705 11.2167 8.54901C9.01924 7.26651 4.43324 6.71686 3.0001 7.99936Z" fill="white" stroke="black" stroke-width="0.355623" stroke-miterlimit="10" stroke-linecap="round" stroke-linejoin="round"/>
<path id="path779" d="M19.7201 2.68615C18.8602 2.68615 17.7137 1.31203 18.6691 1.12882C22.1086 0.395959 30.2297 3.69382 30.2297 3.69382C25.0705 1.49525 20.58 2.59454 19.7201 2.68615V2.68615Z" fill="#754C24" stroke="black" stroke-width="0.355623" stroke-linecap="round" stroke-linejoin="round"/>
<path id="path781" d="M7.4907 7.35812C8.6372 7.54133 9.59264 7.63294 9.59264 8.73223C9.59264 9.83151 8.6372 10.7476 7.4907 10.7476C6.3442 10.7476 5.38879 9.83151 5.38879 8.73223C5.38879 7.63294 5.96203 7.0833 7.4907 7.35812Z" fill="black" stroke="black" stroke-width="0.355623" stroke-miterlimit="10" stroke-linecap="round" stroke-linejoin="round"/>
<path id="path783" d="M24.115 7.26654C25.2615 7.26654 25.8348 7.72457 25.8348 8.82386C25.8348 9.92314 24.9749 10.7476 23.8284 10.7476C22.6819 10.7476 21.822 9.83154 21.822 8.82386C21.822 7.81618 23.1596 7.26654 24.115 7.26654V7.26654Z" fill="black" stroke="black" stroke-width="0.355623" stroke-miterlimit="10" stroke-linecap="round" stroke-linejoin="round"/>
<path id="path785" d="M12.7454 10.7476C11.5989 3.51058 2.14025 7.81613 0.611575 6.07559C0.516033 7.63292 2.0447 8.45738 2.90458 7.81612C3.57338 7.26648 10.8346 5.89237 12.7454 10.7476Z" fill="black" stroke="black" stroke-width="0.355623" stroke-miterlimit="10" stroke-linecap="round" stroke-linejoin="round"/>
<path id="path787" d="M19.0513 10.656C20.1022 2.50294 29.6565 7.72455 31.1851 5.98401C31.2807 7.54133 29.752 8.36581 28.8921 7.72456C28.2233 7.17491 20.8666 5.8008 19.0513 10.656Z" fill="black" stroke="black" stroke-width="0.355623" stroke-miterlimit="10" stroke-linecap="round" stroke-linejoin="round"/>
<path id="path789" d="M2.33136 2.77774C2.33136 2.77774 7.77726 7.72454 12.7455 7.44972C13.6053 7.54132 12.9365 5.89239 12.1722 5.70917C11.4079 5.61756 6.91738 6.25882 2.33136 2.77774V2.77774Z" fill="#754C24" stroke="black" stroke-width="0.355623" stroke-linecap="round" stroke-linejoin="round"/>
</g>
</svg>
