<svg width="29" height="23" viewBox="0 0 29 23" fill="none" xmlns="http://www.w3.org/2000/svg">
<g id="facial_exp-3">
<path id="path3038" d="M10.6895 21.3642C10.6895 21.3642 14.1306 17.7447 18.3867 21.1877C18.3867 21.1877 17.2095 22.247 14.5834 22.247C11.595 22.247 10.6895 21.3642 10.6895 21.3642Z" fill="#AF4B4B" stroke="black" stroke-width="0.198438" stroke-miterlimit="10" stroke-linecap="round" stroke-linejoin="round"/>
<path id="path3040" d="M10.5083 18.0095C10.5083 18.0095 13.8589 14.3899 17.9339 17.8329C17.9339 17.8329 16.7567 18.8923 14.2211 18.8923C11.3233 18.8923 10.5083 18.0095 10.5083 18.0095Z" fill="#AF4B4B" stroke="black" stroke-width="0.198438" stroke-miterlimit="10" stroke-linecap="round" stroke-linejoin="round"/>
<path id="path3042" d="M18.4773 17.7447C17.4812 17.3916 14.4022 17.215 10.8705 17.6564C9.78387 17.7447 8.87831 18.7158 8.60664 19.422C8.24441 20.3931 9.78387 21.276 9.78387 21.276C9.78387 21.276 16.485 20.4814 18.8395 21.0994C19.564 20.7463 20.4695 20.3048 20.2884 19.3337C20.1073 18.4509 19.4734 18.0095 18.4773 17.7447Z" fill="#C0272D" stroke="black" stroke-width="0.264583" stroke-miterlimit="10" stroke-linecap="round" stroke-linejoin="round"/>
<path id="path3044" d="M14.8551 19.3338C11.6857 19.422 9.1501 21.276 9.87455 21.276C10.599 21.276 16.9379 20.5697 18.4774 21.0111C20.6507 19.6869 17.5718 19.2455 14.8551 19.3338Z" fill="#BC7596" stroke="black" stroke-width="0.264583" stroke-miterlimit="10" stroke-linecap="round" stroke-linejoin="round"/>
<path id="path3046" d="M1 3.53127C1 3.53127 8.8784 3.97268 11.5045 2.29532C12.1384 1.85391 10.8706 1.05938 10.1462 1.32423C9.42174 1.58907 6.07115 3.79612 1 3.53127Z" fill="#754C24" stroke="black" stroke-width="0.264583" stroke-linecap="round" stroke-linejoin="round"/>
<path id="path3048" d="M28.0763 3.53127C28.0763 3.53127 20.1979 3.97268 17.5717 2.29532C16.9378 1.85391 18.2056 1.05938 18.9301 1.32423C19.564 1.50079 23.0051 3.79612 28.0763 3.53127Z" fill="#754C24" stroke="black" stroke-width="0.264583" stroke-linecap="round" stroke-linejoin="round"/>
<path id="path3050" d="M18.0245 6.26803C21.0129 4.32583 24.9974 5.82662 25.8124 6.00319" stroke="black" stroke-width="0.264583" stroke-linecap="round" stroke-linejoin="round"/>
<path id="path3052" d="M3.17328 6.00314C5.16552 5.65001 9.33112 4.85548 11.0517 6.09143" stroke="black" stroke-width="0.264583" stroke-linecap="round" stroke-linejoin="round"/>
<path id="path3054" d="M4.71275 5.47356C4.07885 5.7384 4.07885 5.297 3.53551 5.297C2.99218 5.297 2.7205 5.29699 2.7205 5.82668C2.7205 6.17981 3.08272 6.17981 3.62606 6.26809C2.81105 8.38685 1.99606 16.0674 2.44884 17.5682C2.5394 18.2744 2.90161 18.8924 2.99217 17.6565C2.53939 14.39 4.07884 7.59232 4.53162 6.44465C5.07496 6.62121 5.16553 6.88607 5.79942 6.79779C6.34276 6.7095 6.97665 5.91496 7.15777 5.56183C7.24832 5.29699 5.4372 5.20871 4.71275 5.47356V5.47356Z" fill="#58E6F9" stroke="black" stroke-width="0.132292" stroke-miterlimit="10" stroke-linecap="round" stroke-linejoin="round"/>
<path id="path3056" d="M22.1902 5.56183C22.3713 5.91496 23.0052 6.7095 23.5486 6.79779C24.1825 6.88607 24.273 6.62121 24.8164 6.44465C25.2691 7.59231 26.8086 14.39 26.3558 17.6565C26.4464 18.8924 26.8992 17.5682 26.8992 17.5682C27.3519 16.0674 26.5369 8.38685 25.7219 6.26809C26.2653 6.17981 26.6275 6.17981 26.6275 5.82668C26.6275 5.29699 26.3558 5.297 25.8125 5.297C25.2691 5.297 25.2692 5.7384 24.6353 5.47356C23.9108 5.20871 22.0997 5.29699 22.1902 5.56183V5.56183Z" fill="#58E6F9" stroke="black" stroke-width="0.132292" stroke-miterlimit="10" stroke-linecap="round" stroke-linejoin="round"/>
<path id="path3058" opacity="0.3" d="M11.2329 0C12.229 0 13.4968 1.23594 12.7724 2.47188C12.8629 1.4125 12.3196 0.617973 11.2329 0Z" fill="black"/>
<path id="path3060" opacity="0.3" d="M17.7529 0C16.5757 0 15.5796 1.23594 16.2135 2.47188C16.1229 1.32422 16.7568 0.617973 17.7529 0Z" fill="black"/>
<path id="path3062" d="M11.2329 6.35626C10.0557 3.61953 2.72065 5.47344 1.27175 3.79608C1.1812 5.29687 2.63009 6.09142 3.4451 5.47345C4.07899 4.94375 9.78405 5.47345 11.2329 6.35626Z" fill="black" stroke="black" stroke-width="0.264583" stroke-miterlimit="10" stroke-linecap="round" stroke-linejoin="round"/>
<path id="path3064" d="M18.0245 6.26807C20.2884 3.1782 26.2652 5.56182 27.6235 3.88446C27.7141 5.38525 26.2652 6.17978 25.4502 5.56181C24.9068 5.03212 19.564 4.76728 18.0245 6.26807V6.26807Z" fill="black" stroke="black" stroke-width="0.264583" stroke-miterlimit="10" stroke-linecap="round" stroke-linejoin="round"/>
</g>
</svg>
