<svg width="35" height="30" viewBox="0 0 35 30" fill="none" xmlns="http://www.w3.org/2000/svg">
<g id="facial_exp-4">
<g id="gls_1636285112792">
<g id="g4105">
<path id="path4085" d="M13.838 26.4501C13.838 26.4501 16.4588 24.9155 20.6522 26.2696C21.0715 26.3599 21.2812 28.4362 17.612 28.5264C14.0477 28.6167 13.838 26.4501 13.838 26.4501Z" fill="#AF4B4B" stroke="black" stroke-width="0.198438" stroke-miterlimit="10"/>
<path id="path4087" d="M12.3704 25.9085C12.3704 25.9085 16.8782 28.5265 22.5392 25.9988" stroke="black" stroke-width="0.264583" stroke-miterlimit="10" stroke-linecap="round" stroke-linejoin="round"/>
<path id="path4089" d="M3.45958 11.3745C2.41125 11.8259 3.14508 14.173 3.98374 14.5341C6.49974 16.159 12.1607 15.0757 13.9429 14.8952C13.9429 14.8952 13.4187 12.6383 12.3704 12.0967C11.6366 11.8259 6.7094 9.65929 3.45958 11.3745Z" fill="white" stroke="black" stroke-width="0.264583" stroke-miterlimit="10" stroke-linecap="round" stroke-linejoin="round"/>
<path id="path4091" d="M22.4343 12.0064C21.386 12.4578 20.8618 14.8049 20.8618 14.8049C22.6439 14.9854 27.6759 16.159 30.8209 14.3535C31.6596 13.9924 32.2886 12.1869 31.4499 11.3745C29.9823 10.2009 24.8454 10.7426 22.4343 12.0064V12.0064Z" fill="white" stroke="black" stroke-width="0.264583" stroke-miterlimit="10" stroke-linecap="round" stroke-linejoin="round"/>
<path id="path4093" d="M1.57257 9.20788C1.57257 9.20788 10.4834 5.95803 14.2574 6.68022C15.3057 6.86077 14.0477 8.21487 13.1042 8.21487C12.2656 8.21487 7.23356 7.13159 1.57257 9.20788V9.20788Z" fill="#754C24" stroke="black" stroke-width="0.264583" stroke-linecap="round" stroke-linejoin="round"/>
<path id="path4095" d="M33.2321 9.20788C33.2321 9.20788 24.3213 5.95803 20.5473 6.68022C19.499 6.86077 20.757 8.21487 21.7005 8.21487C22.644 8.21487 27.676 7.13159 33.2321 9.20788V9.20788Z" fill="#754C24" stroke="black" stroke-width="0.264583" stroke-linecap="round" stroke-linejoin="round"/>
<path id="circle4097" d="M26.3132 14.9854C27.5869 14.9854 28.6195 14.0963 28.6195 12.9994C28.6195 11.9026 27.5869 11.0134 26.3132 11.0134C25.0394 11.0134 24.0068 11.9026 24.0068 12.9994C24.0068 14.0963 25.0394 14.9854 26.3132 14.9854Z" fill="black" stroke="black" stroke-width="0.264583" stroke-miterlimit="10" stroke-linecap="round" stroke-linejoin="round"/>
<path id="circle4099" d="M8.38668 14.9854C9.60254 14.9854 10.5882 14.1367 10.5882 13.0897C10.5882 12.0427 9.60254 11.1939 8.38668 11.1939C7.17083 11.1939 6.18518 12.0427 6.18518 13.0897C6.18518 14.1367 7.17083 14.9854 8.38668 14.9854Z" fill="black" stroke="black" stroke-width="0.264583" stroke-miterlimit="10" stroke-linecap="round" stroke-linejoin="round"/>
<path id="path4101" d="M13.9428 14.8951C12.7897 6.86078 2.30635 12.0064 0.62902 10.2912C0.524187 11.8258 2.20151 12.6383 3.14501 12.0064C3.87884 11.4647 11.8462 10.1106 13.9428 14.8951V14.8951Z" fill="#FE4D4D" stroke="black" stroke-width="0.264583" stroke-miterlimit="10" stroke-linecap="round" stroke-linejoin="round"/>
<path id="path4103" d="M20.8618 14.8049C22.015 6.77056 32.4983 11.9162 34.1756 10.201C34.2804 11.7356 32.6031 12.5481 31.6596 11.9162C30.9258 11.3745 22.9584 10.0204 20.8618 14.8049V14.8049Z" fill="#FE4D4D" stroke="black" stroke-width="0.264583" stroke-miterlimit="10" stroke-linecap="round" stroke-linejoin="round"/>
</g>
</g>
</g>
</svg>
