<svg width="62" height="234" viewBox="0 0 62 234" fill="none" xmlns="http://www.w3.org/2000/svg">
<g id="female">
<g id="shoes_styles">
<g id="shoes-5">
<g id="left_shoes">
<g id="g674">
<path id="path670" d="M43.0323 213.58C43.0323 213.58 44.3698 204.144 39.6883 206.984C35.0067 209.824 43.0323 213.58 43.0323 213.58Z" fill="black" stroke="black" stroke-width="0.533434" stroke-linecap="round" stroke-linejoin="round"/>
<path id="path672" d="M42.8412 213.305C42.8412 213.305 41.8858 208.175 39.9749 209.274C37.9686 210.557 42.8412 213.305 42.8412 213.305Z" fill="black" fill-opacity="0.3" stroke="black" stroke-width="0.355623" stroke-linecap="round" stroke-linejoin="round"/>
</g>
<g id="g680">
<path id="path676" d="M43.9877 213.763C43.9877 213.763 36.7265 204.694 35.2934 210.923C33.8602 217.152 43.9877 213.763 43.9877 213.763Z" fill="black" stroke="black" stroke-width="0.533434" stroke-linecap="round" stroke-linejoin="round"/>
<path id="path678" d="M43.6055 213.763C43.6055 213.763 38.2551 210.19 37.5863 212.572C36.9175 215.412 43.6055 213.763 43.6055 213.763Z" fill="black" fill-opacity="0.3" stroke="black" stroke-width="0.355623" stroke-linecap="round" stroke-linejoin="round"/>
</g>
<path id="path682" d="M57.268 230.252C57.268 230.252 46.9495 229.519 45.6119 229.061C44.752 228.695 43.5099 222.282 42.2679 219.992L40.2615 215.595C40.2615 215.595 38.3507 211.931 37.4908 215.137C37.2042 216.053 37.2042 229.886 37.2042 229.886H40.2615L39.4016 223.656C39.4016 226.863 41.7902 233.367 42.7456 233.458C43.7966 233.55 55.4527 233.458 56.4082 233.458C57.8413 232.817 57.268 230.252 57.268 230.252V230.252Z" fill="black" stroke="black" stroke-width="0.533434" stroke-linecap="round" stroke-linejoin="round"/>
<path id="path684" d="M52.1087 227.87C54.4973 226.679 49.2425 219.809 48.1915 217.519C47.045 215.229 46.5673 212.938 44.4654 212.572C40.8347 212.022 39.115 214.954 39.2105 216.328C39.115 219.076 41.5991 222.282 43.6055 228.054C45.5163 229.611 48.287 229.977 52.1087 227.87Z" fill="#EBC3A5" stroke="black" stroke-width="0.533434" stroke-linecap="round" stroke-linejoin="round"/>
<path id="XMLID_2_" d="M49.9113 224.756C52.7776 224.756 54.975 225.947 56.026 227.687C57.077 229.519 56.8859 230.435 56.8859 230.435C56.8859 230.435 44.6565 231.168 43.7966 230.435C41.8857 228.786 44.9431 224.389 49.9113 224.756Z" fill="#EBC3A5" stroke="black" stroke-width="0.533434" stroke-linecap="round" stroke-linejoin="round"/>
<path id="path687" d="M54.7839 225.489C54.7839 225.489 50.6756 221.458 45.8029 223.748C41.2169 225.855 41.7901 227.321 41.7901 227.321L43.0322 229.703C43.0322 229.703 43.9876 226.405 46.9494 225.305C50.0068 224.206 51.4399 224.847 54.7839 225.489V225.489Z" fill="black" stroke="black" stroke-width="0.355623" stroke-linecap="round" stroke-linejoin="round"/>
<path id="path689" d="M46.1851 211.015L46.3762 213.122C44.4653 212.755 41.8857 212.664 39.0194 213.854V211.015H46.1851Z" fill="black" stroke="black" stroke-width="0.533434" stroke-linecap="round" stroke-linejoin="round"/>
<path id="path691" d="M42.0768 225.947C42.1723 221.641 46.0895 217.061 49.1469 218.435L48.1915 216.145C45.6118 214.771 41.0258 218.801 40.6436 222.924L42.0768 225.947Z" fill="black" stroke="black" stroke-width="0.355623" stroke-linecap="round" stroke-linejoin="round"/>
<path id="path693" d="M51.5354 222.74C49.338 219.443 45.2297 216.603 39.306 220.084L38.7328 217.794C45.0386 214.313 48.9558 217.61 50.6756 221.091L51.5354 222.74Z" fill="black" stroke="black" stroke-width="0.355623" stroke-linecap="round" stroke-linejoin="round"/>
</g>
<g id="right_shoes">
<g id="g701">
<path id="path697" d="M19.2423 213.58C19.2423 213.58 18.0002 204.511 22.4907 207.259C27.0767 210.007 19.2423 213.58 19.2423 213.58Z" fill="black" stroke="black" stroke-width="0.533434" stroke-linecap="round" stroke-linejoin="round"/>
<path id="path699" d="M19.4333 213.305C19.4333 213.305 20.3888 208.266 22.2041 209.366C24.1149 210.74 19.4333 213.305 19.4333 213.305Z" fill="black" fill-opacity="0.3" stroke="black" stroke-width="0.355623" stroke-linecap="round" stroke-linejoin="round"/>
</g>
<g id="g707">
<path id="path703" d="M18.1912 213.763C18.1912 213.763 25.4524 204.694 26.8856 210.923C28.3187 217.152 18.1912 213.763 18.1912 213.763Z" fill="black" stroke="black" stroke-width="0.533434" stroke-linecap="round" stroke-linejoin="round"/>
<path id="path705" d="M18.5734 213.763C18.5734 213.763 23.9238 210.19 24.5926 212.572C25.2614 215.412 18.5734 213.763 18.5734 213.763Z" fill="black" fill-opacity="0.3" stroke="black" stroke-width="0.355623" stroke-linecap="round" stroke-linejoin="round"/>
</g>
<path id="path709" d="M5.57973 230.252C5.57973 230.252 15.8983 229.519 17.2359 229.061C18.0958 228.695 19.3378 222.282 20.5799 219.992L22.5863 215.595C22.5863 215.595 24.4971 211.931 25.357 215.137C25.6436 216.053 25.6436 229.886 25.6436 229.886H22.5863L23.6372 222.74C23.6372 224.939 21.0576 233.275 20.1022 233.367C19.0512 233.458 7.39503 233.367 6.43961 233.367C4.91094 232.817 5.57973 230.252 5.57973 230.252V230.252Z" fill="black" stroke="black" stroke-width="0.533434" stroke-linecap="round" stroke-linejoin="round"/>
<path id="path711" d="M19.2423 228.145C21.2486 222.374 23.7327 219.168 23.6372 216.42C23.7327 215.045 22.013 212.022 18.3824 212.664C16.2804 213.03 15.7072 215.32 14.6562 217.61C13.5097 219.901 8.35044 226.771 10.739 227.962C14.4651 229.977 17.3314 229.611 19.2423 228.145Z" fill="#EBC3A5" stroke="black" stroke-width="0.533434" stroke-linecap="round" stroke-linejoin="round"/>
<g id="XMLID_1_">
<path d="M12.8409 224.756C9.97463 224.756 7.77716 225.947 6.72619 227.687C5.67523 229.519 5.86631 230.435 5.86631 230.435C5.86631 230.435 18.0957 231.168 18.9556 230.435C20.962 228.786 17.9046 224.389 12.8409 224.756" fill="#EBC3A5"/>
<path d="M12.8409 224.756C9.97463 224.756 7.77716 225.947 6.72619 227.687C5.67523 229.519 5.86631 230.435 5.86631 230.435C5.86631 230.435 18.0957 231.168 18.9556 230.435C20.962 228.786 17.9046 224.389 12.8409 224.756" stroke="black" stroke-width="0.533434" stroke-linecap="round" stroke-linejoin="round"/>
</g>
<path id="path714" d="M8.25488 225.489C8.25488 225.489 12.3632 221.458 17.2359 223.748C21.8219 225.855 21.2486 227.321 21.2486 227.321L20.0066 229.703C20.0066 229.703 19.0512 226.405 16.0893 225.305C12.9364 224.206 11.5033 224.847 8.25488 225.489V225.489Z" fill="black" stroke="black" stroke-width="0.355623" stroke-linecap="round" stroke-linejoin="round"/>
<path id="path716" d="M16.6626 211.015L16.4715 213.122C18.3823 212.755 20.962 212.664 23.8282 213.854V211.015H16.6626Z" fill="black" stroke="black" stroke-width="0.533434" stroke-linecap="round" stroke-linejoin="round"/>
<path id="path718" d="M20.7709 225.947C20.6754 221.641 16.7582 217.061 13.7008 218.435L14.6562 216.145C17.2359 214.771 21.8219 218.801 22.2041 222.924L20.7709 225.947Z" fill="black" stroke="black" stroke-width="0.355623" stroke-linecap="round" stroke-linejoin="round"/>
<path id="path720" d="M11.3122 222.74C13.5097 219.443 17.618 216.603 23.5416 220.084L24.1149 217.794C17.8091 214.313 13.8918 217.61 12.1721 221.091L11.3122 222.74Z" fill="black" stroke="black" stroke-width="0.355623" stroke-linecap="round" stroke-linejoin="round"/>
</g>
</g>
<g id="shoes-4">
<g id="left_shoes_2">
<path id="path4017" d="M55.3955 222.876C52.9844 220.98 44.8074 214.21 44.5977 214.661C45.9606 217.821 52.9844 221.612 49.3152 221.973C41.1382 222.966 36.8401 214.39 36.8401 214.39C36.8401 214.39 35.0579 215.293 34.6386 217.64C34.3241 220.078 34.6386 226.668 34.6386 226.668H37.7836V222.786C37.7836 222.786 38.4126 223.598 39.5658 224.501C42.1866 226.758 42.9204 230.549 54.6617 229.737C57.1777 229.556 58.4357 228.112 58.6454 227.48C59.2744 226.126 58.4357 225.133 55.3955 222.876V222.876Z" fill="#BA0000" stroke="black" stroke-width="0.396875" stroke-miterlimit="10" stroke-linecap="round" stroke-linejoin="round"/>
<path id="path4019" d="M53.0893 224.952C55.5004 223.869 46.6944 215.564 46.6944 215.564C45.8558 214.39 44.0736 211.321 41.9769 211.05C38.3078 210.599 37.2595 213.307 37.3643 214.481C37.8885 217.911 47.1138 227.661 53.0893 224.952Z" fill="#EBC3A5" stroke="black" stroke-width="0.396875" stroke-linecap="round" stroke-linejoin="round"/>
</g>
<g id="right_shoes_2">
<path id="path4023" d="M8.63189 222.876C11.0431 220.98 19.22 214.21 19.4297 214.661C18.0669 217.821 11.0431 221.612 14.7122 221.973C22.8892 222.966 27.1874 214.39 27.1874 214.39C27.1874 214.39 28.9695 215.293 29.3889 217.64C29.7034 220.078 29.3889 226.668 29.3889 226.668H26.2439V222.786C26.2439 222.786 25.6149 223.598 24.4617 224.501C21.8409 226.758 21.107 230.549 9.36573 229.737C6.84974 229.556 5.59173 228.112 5.38207 227.48C4.8579 226.216 5.69657 225.223 8.63189 222.876V222.876Z" fill="#BA0000" stroke="black" stroke-width="0.396875" stroke-miterlimit="10" stroke-linecap="round" stroke-linejoin="round"/>
<path id="path4025" d="M10.9382 224.952C8.52702 223.869 17.333 215.564 17.333 215.564C18.1717 214.39 19.9538 211.321 22.0505 211.05C25.7197 210.599 26.768 213.307 26.6632 214.481C26.139 218.001 17.0185 227.661 10.9382 224.952Z" fill="#EBC3A5" stroke="black" stroke-width="0.396875" stroke-linecap="round" stroke-linejoin="round"/>
</g>
</g>
<g id="shoes-3">
<g id="left_shoes_3">
<path id="path2962" d="M53.2178 222.435C51.135 220.758 44.1622 214.225 43.981 214.578C45.0677 217.579 51.2255 221.376 48.1466 221.64C40.9927 222.523 37.6421 214.401 37.6421 214.401C37.6421 214.401 36.1026 215.196 35.9215 217.491C35.7404 219.963 35.9215 226.055 35.9215 226.055H38.4571V222.523C38.4571 222.523 39.0004 223.229 39.9966 224.112C42.4416 226.496 42.8038 229.939 52.765 229.144C54.8478 228.968 55.9345 227.644 56.025 226.761C56.4778 225.525 55.6628 224.642 53.2178 222.435V222.435Z" fill="#666666" stroke="black" stroke-width="0.343932" stroke-miterlimit="5.3099" stroke-linecap="round" stroke-linejoin="round"/>
<path id="path2964" d="M51.4066 224.377C53.4894 223.406 45.8827 215.284 45.8827 215.284C45.3394 214.225 43.4377 211.135 41.7171 211.047C38.6382 210.605 37.5515 213.43 37.7326 214.225C38.5477 217.579 46.0638 227.202 51.4066 224.377V224.377Z" fill="#EBC3A5" stroke="black" stroke-width="0.343932" stroke-miterlimit="2.1239" stroke-linecap="round" stroke-linejoin="round"/>
</g>
<g id="right_shoes_3">
<path id="path2968" d="M10.1013 222.435C12.1841 220.758 19.1569 214.225 19.338 214.578C18.2514 217.579 12.0935 221.376 15.1724 221.64C22.3264 222.523 25.677 214.401 25.677 214.401C25.677 214.401 27.2164 215.196 27.3975 217.491C27.5787 219.963 27.3975 226.055 27.3975 226.055H24.7714V222.523C24.7714 222.523 24.2281 223.229 23.2319 224.112C20.7869 226.496 20.4247 229.939 10.4635 229.144C8.38072 228.968 7.29404 227.644 7.20348 226.761C6.56959 225.525 7.38459 224.819 10.1013 222.435V222.435Z" fill="#666666" stroke="black" stroke-width="0.343932" stroke-miterlimit="5.3099" stroke-linecap="round" stroke-linejoin="round"/>
<path id="path2970" d="M11.9124 224.377C9.82958 223.406 17.4363 215.284 17.4363 215.284C17.9797 214.225 19.8813 211.135 21.6019 211.047C24.6808 210.605 25.7675 213.43 25.5864 214.225C24.6808 217.756 17.0741 227.202 11.9124 224.377V224.377Z" fill="#EBC3A5" stroke="black" stroke-width="0.343932" stroke-miterlimit="2.1239" stroke-linecap="round" stroke-linejoin="round"/>
</g>
</g>
<g id="shoes-2">
<g id="left_shoes_4">
<path id="path1639" d="M48.5042 224.231C46.7575 222.119 42.4289 214.576 42.277 215.079C43.2642 218.599 46.7575 222.823 44.0996 223.226C38.1761 224.332 37.1889 214.777 37.1889 214.777C37.1889 214.777 35.3663 215.783 35.0625 218.398C34.8347 221.113 35.0625 228.455 35.0625 228.455H37.3408V224.131C37.3408 224.131 37.7964 225.036 38.6318 226.042C40.5303 228.556 39.4671 232.78 47.9726 231.875C49.7952 231.674 50.7065 230.065 50.8584 229.361C51.314 227.852 50.7065 226.746 48.5042 224.231V224.231Z" fill="#203E4A" stroke="black" stroke-width="0.396875" stroke-miterlimit="10" stroke-linecap="round" stroke-linejoin="round"/>
<path id="path1641" d="M46.8335 226.545C48.5802 225.338 43.7958 216.085 43.7958 216.085C43.1883 214.777 41.8973 211.358 40.3785 211.056C37.7205 210.553 36.9611 213.57 37.037 214.878C37.4927 218.7 42.5048 229.562 46.8335 226.545Z" fill="#EBC3A5" stroke="black" stroke-width="0.396875" stroke-linecap="round" stroke-linejoin="round"/>
</g>
<g id="right_shoes_4">
<path id="path1645" d="M13.4602 224.231C15.2069 222.119 19.5355 214.576 19.6874 215.079C18.7002 218.599 15.2069 222.823 17.8648 223.226C23.7883 224.332 24.7755 214.777 24.7755 214.777C24.7755 214.777 26.5981 215.783 26.9019 218.398C27.1297 221.113 26.9019 228.455 26.9019 228.455H24.6236V224.131C24.6236 224.131 24.168 225.036 23.3326 226.042C21.4341 228.556 22.4973 232.78 13.9918 231.875C12.1692 231.674 11.2579 230.065 11.106 229.361C10.7263 227.953 11.3338 226.846 13.4602 224.231V224.231Z" fill="#203E4A" stroke="black" stroke-width="0.396875" stroke-miterlimit="10" stroke-linecap="round" stroke-linejoin="round"/>
<path id="path1647" d="M15.1311 226.545C13.3844 225.338 18.1687 216.085 18.1687 216.085C18.7763 214.777 20.0673 211.358 21.5861 211.056C24.2441 210.553 25.0035 213.57 24.9275 214.878C24.5478 218.8 19.5357 229.562 15.1311 226.545Z" fill="#EBC3A5" stroke="black" stroke-width="0.396875" stroke-linecap="round" stroke-linejoin="round"/>
</g>
</g>
<g id="shoes-1">
<g id="right_shoes_5">
<path id="path516" d="M13.3764 214.301C14.5884 212.229 14.069 210.337 16.2333 209.617C17.1856 209.346 18.9171 208.446 20.9083 209.887C21.7741 210.878 26.0162 210.157 26.0162 210.157C26.449 213.04 26.0162 220.336 25.4967 221.507C24.025 224.029 19.6097 223.039 19.4365 223.039L8.96109 217.994C8.78794 217.994 11.9046 216.643 13.3764 214.301Z" fill="#1D1D1D" stroke="black" stroke-width="0.564257" stroke-linecap="round" stroke-linejoin="round"/>
<g id="XMLID_15_">
<path d="M20.562 223.669H4.71897C4.71897 223.669 3.16064 223.669 4.6324 220.606C5.75786 218.895 9.82685 214.481 16.7528 217.364" fill="#1D1D1D"/>
<path d="M20.562 223.669H4.71897C4.71897 223.669 3.16064 223.669 4.6324 220.606C5.75786 218.895 9.82685 214.481 16.7528 217.364" stroke="black" stroke-width="0.564257" stroke-linecap="round" stroke-linejoin="round"/>
</g>
<path id="path519" d="M26.0165 222.768L24.8044 222.858C24.7179 222.948 24.7178 221.057 24.6313 221.057C24.4581 221.147 24.1984 223.759 24.0253 223.849C23.3327 224.21 22.5535 224.57 22.0341 224.66C21.0817 224.75 6.01786 224.66 4.97897 224.66C3.33406 223.309 4.37295 221.597 4.37295 221.597C4.37295 221.597 21.0817 222.048 22.2072 221.597C23.1595 218.895 25.9299 218.084 25.9299 218.084L26.0165 222.768Z" fill="#1D1D1D" stroke="black" stroke-width="0.564257" stroke-linecap="round" stroke-linejoin="round"/>
</g>
<g id="left_shoes_5">
<path id="path523" d="M52.9407 217.994L42.6384 222.948C42.4653 222.948 38.1366 223.849 36.5782 221.417C36.0588 220.246 35.6259 212.95 36.0588 210.067C36.0588 210.067 40.3009 210.878 41.1666 209.797C43.2444 208.356 44.8893 209.256 45.8416 209.527C48.006 210.247 47.3134 212.229 48.6986 214.211C50.0838 216.643 53.1139 217.994 52.9407 217.994V217.994Z" fill="#1D1D1D" stroke="black" stroke-width="0.564257" stroke-linecap="round" stroke-linejoin="round"/>
<g id="XMLID_14_">
<path d="M45.1491 217.364C51.9884 214.481 56.144 218.805 57.2694 220.606C58.7412 223.669 57.1829 223.669 57.1829 223.669H41.4264" fill="#1D1D1D"/>
<path d="M45.1491 217.364C51.9884 214.481 56.144 218.805 57.2694 220.606C58.7412 223.669 57.1829 223.669 57.1829 223.669H41.4264" stroke="black" stroke-width="0.564257" stroke-linecap="round" stroke-linejoin="round"/>
</g>
<path id="path526" d="M36.0593 217.904C36.0593 217.904 38.8296 218.715 39.7819 221.417C40.9074 221.867 57.3565 221.417 57.3565 221.417C57.3565 221.417 58.8282 223.579 57.0102 224.48C56.0579 224.48 40.994 224.57 39.9551 224.48C39.5222 224.48 38.7431 224.119 37.9639 223.669C37.7907 223.579 37.531 220.967 37.3579 220.877C37.2713 220.787 37.1847 222.678 37.1847 222.678L35.9727 222.588L36.0593 217.904Z" fill="#1D1D1D" stroke="black" stroke-width="0.564257" stroke-linecap="round" stroke-linejoin="round"/>
</g>
</g>
</g>
<g id="legs">
<path id="path724" d="M25.8282 138.828C24.0129 144.416 23.2486 180.601 23.2486 180.601C23.2486 180.601 23.5352 189.395 22.3887 210.648" stroke="black" stroke-width="0.533434" stroke-linecap="round" stroke-linejoin="round"/>
<path id="path726" d="M36.2105 139.469C38.0258 145.057 38.7901 181.242 38.7901 181.242C38.7901 181.242 38.5991 190.22 39.7456 210.648" stroke="black" stroke-width="0.533434" stroke-linecap="round" stroke-linejoin="round"/>
</g>
<g id="back_hair_styles">
<g id="back_hair">
<path id="path4007" d="M53.8458 53.3817C51.4764 50.4231 51.2704 46.9714 51.2704 46.9714L46.8405 45.1962L30.6666 51.3107L14.5956 45.1962L10.1658 46.9714C10.1658 46.9714 9.85677 50.4231 7.59035 53.3817C5.32394 56.3404 4.70582 60.7783 7.28129 63.0466C9.85677 65.3149 5.94205 59.5949 8.31148 58.1156C10.6809 56.6362 10.887 58.4114 10.887 58.4114C10.887 58.4114 8.31149 63.6384 11.196 69.5557C14.0805 75.4729 20.2617 78.4316 20.2617 78.4316C20.2617 78.4316 17.8922 71.5281 19.4375 69.7529C20.9828 67.9777 29.7394 81.3902 30.2545 87.0116C30.4605 88.7868 30.5636 89.9703 30.5636 90.7593V92.6331C30.5636 92.6331 30.5636 92.6331 30.6666 91.6468C30.7696 92.6331 30.7696 92.6331 30.7696 92.6331V90.7593C30.8726 89.9703 30.9756 88.6882 31.0787 87.0116C31.5938 81.2916 40.3504 67.9777 41.8956 69.7529C43.4409 71.5281 41.0715 78.4316 41.0715 78.4316C41.0715 78.4316 47.2526 75.4729 50.1372 69.5557C53.0217 63.6384 50.4462 58.4114 50.4462 58.4114C50.4462 58.4114 50.7553 56.6362 53.0217 58.1156C55.2881 59.5949 51.4764 65.3149 54.0519 63.0466C56.6273 60.7783 56.1122 56.3404 53.8458 53.3817Z" fill="#754C24" stroke="black" stroke-width="0.396875" stroke-linecap="round" stroke-linejoin="round"/>
</g>
<g id="back_hair_2">
<path id="path637" d="M10.6234 35.0295C6.21063 46.7553 10.4356 67.3669 12.4073 80.0087C14.3789 92.6505 27.9928 100.804 26.7723 105.201C36.7245 104.651 47.8033 85.6883 49.5872 80.0087C51.465 74.4206 53.9061 65.9928 54 54.5419C54 48.9538 54 40.4343 52.6856 38.1442C48.5545 31.182 12.3134 30.2659 10.6234 35.0295V35.0295Z" fill="#754C24" stroke="black" stroke-width="0.533434" stroke-linecap="round" stroke-linejoin="round"/>
<path id="path639" opacity="0.3" d="M14.0973 75.0619C11.844 66.8172 11.1868 59.5803 12.2195 53.5342C12.4073 60.5879 13.0645 67.8249 14.0973 75.0619Z" fill="black"/>
<path id="path641" opacity="0.3" d="M48.3668 75.0619C50.6201 66.8172 51.2773 59.5803 50.2445 53.5342C50.0568 60.5879 49.3995 67.8249 48.3668 75.0619Z" fill="black"/>
<path id="path643" opacity="0.8" d="M38.7901 72.3137C38.7901 72.3137 49.024 58.2978 36.1612 53.9006C43.5784 58.481 38.7901 72.3137 38.7901 72.3137Z" fill="black"/>
<path id="path645" opacity="0.8" d="M48.3668 63.5194C48.3668 63.5194 50.9957 46.4804 37.4757 48.3126C46.3012 49.137 48.3668 63.5194 48.3668 63.5194Z" fill="black"/>
<path id="path647" opacity="0.8" d="M22.5473 72.3137C22.5473 72.3137 12.3134 58.2978 25.1762 53.9006C17.759 58.481 22.5473 72.3137 22.5473 72.3137Z" fill="black"/>
<path id="path649" opacity="0.8" d="M14.9424 65.9012C14.9424 65.9012 9.87243 49.4119 23.4863 49.3203C14.9424 51.3356 14.9424 65.9012 14.9424 65.9012Z" fill="black"/>
<path id="path651" opacity="0.8" d="M28.3685 59.6719C28.3685 59.6719 33.7202 75.978 20.0124 76.3444C28.6502 74.2374 28.3685 59.6719 28.3685 59.6719Z" fill="black"/>
<path id="path653" opacity="0.8" d="M34.0018 59.6719C34.0018 59.6719 28.744 75.978 42.3579 76.3444C33.7201 74.2374 34.0018 59.6719 34.0018 59.6719Z" fill="black"/>
<path id="path655" opacity="0.8" d="M49.9629 68.741C51.0895 67.7333 53.9062 51.244 51.3712 47.7629C51.9345 56.0992 50.3384 68.4662 49.9629 68.741Z" fill="white"/>
<path id="path657" opacity="0.8" d="M15.224 71.306C14.0973 70.2983 11.2807 53.809 13.8157 50.3279C13.2523 58.7558 14.7545 71.0312 15.224 71.306Z" fill="white"/>
<path id="path659" opacity="0.8" d="M23.9557 65.9012C23.9557 65.9012 13.7218 51.8853 26.5846 47.4881C19.0735 52.1601 23.9557 65.9012 23.9557 65.9012Z" fill="black"/>
<path id="path661" opacity="0.8" d="M37.5696 65.9012C37.5696 65.9012 47.8034 51.8853 34.9407 47.4881C42.4518 52.1601 37.5696 65.9012 37.5696 65.9012Z" fill="black"/>
</g>
</g>
<g id="arms">
<g id="down_arms">
<g id="left_arm">
<path id="path846" d="M48.287 71.0772C55.0706 74.0087 55.8349 128.515 55.1661 131.538" stroke="black" stroke-width="0.533434" stroke-linecap="round" stroke-linejoin="round"/>
<path id="path850" d="M53.7329 115.965C59.1788 112.85 61.4718 131.08 55.8348 133.37C49.338 135.844 53.7329 115.965 53.7329 115.965Z" fill="#EBC3A5" stroke="black" stroke-width="0.533434" stroke-linecap="round" stroke-linejoin="round"/>
</g>
<g id="right_arm">
<path id="path859" d="M7.49052 131.538C6.82172 128.515 7.58607 74.0087 14.3696 71.0772" stroke="black" stroke-width="0.533434" stroke-linecap="round" stroke-linejoin="round"/>
<path id="path863" d="M6.82175 133.37C1.18476 131.08 3.47777 112.85 8.92367 115.965C8.92367 115.965 13.3186 135.844 6.82175 133.37Z" fill="#EBC3A5" stroke="black" stroke-width="0.533434" stroke-linecap="round" stroke-linejoin="round"/>
<path id="path865" d="M11.2167 116.698C8.06378 117.247 5.57968 116.514 3.85992 114.407L4.43318 112.85C6.34402 114.774 8.82811 115.415 11.7899 115.14L11.2167 116.698Z" fill="#C3922E" stroke="black" stroke-width="0.355623" stroke-linecap="round" stroke-linejoin="round"/>
<path id="path867" d="M10.5478 113.675C8.82808 116.331 6.63061 117.614 3.85988 117.43L3 115.965C5.77073 115.965 7.9682 114.591 9.68796 112.209L10.5478 113.675Z" fill="#C3922E" stroke="black" stroke-width="0.355623" stroke-linecap="round" stroke-linejoin="round"/>
<path id="path869" d="M7.20386 128.515C5.96181 129.614 4.71975 129.614 3.57324 128.607V127.416C4.71975 128.332 5.96181 128.149 7.20386 127.324V128.515Z" fill="#C3922E" stroke="black" stroke-width="0.199149" stroke-linecap="round" stroke-linejoin="round"/>
</g>
</g>
</g>
<g id="dresses">
<g id="fress-5">
<g id="Shirt">
<g id="chest">
<path id="line748" d="M30.5671 68.4888V64" stroke="black" stroke-width="0.533434" stroke-linecap="round" stroke-linejoin="round"/>
<path id="path750" d="M15.2804 70.8705C15.2804 70.8705 24.8346 68.7636 30.4716 68.8552C36.0131 68.9468 45.8539 70.8705 45.8539 70.8705C45.8539 70.8705 36.8729 82.5963 29.2296 82.5963C21.5862 82.5963 15.2804 70.8705 15.2804 70.8705Z" fill="#EBC3A5" stroke="black" stroke-width="0.533434" stroke-linecap="round" stroke-linejoin="round"/>
</g>
<g id="path752">
<path d="M49.3889 126.659C47.8603 122.171 46.236 110.17 45.9494 106.689C45.1851 97.3451 52.7329 73.9852 49.9622 71.7866C46.5227 69.13 38.5927 68.3972 38.5927 68.3972C38.5927 68.3972 36.4907 71.237 30.6626 71.4202C24.9301 71.5118 22.5416 68.4888 22.5416 68.4888C22.5416 68.4888 14.516 68.8552 11.0765 72.4279C10.0255 74.5349 16.6179 95.2381 16.4269 107.605C16.3313 113.193 14.4205 120.705 12.7962 126.934" fill="#2E3746"/>
<path d="M49.3889 126.659C47.8603 122.171 46.236 110.17 45.9494 106.689C45.1851 97.3451 52.7329 73.9852 49.9622 71.7866C46.5227 69.13 38.5927 68.3972 38.5927 68.3972C38.5927 68.3972 36.4907 71.237 30.6626 71.4202C24.9301 71.5118 22.5416 68.4888 22.5416 68.4888C22.5416 68.4888 14.516 68.8552 11.0765 72.4279C10.0255 74.5349 16.6179 95.2381 16.4269 107.605C16.3313 113.193 14.4205 120.705 12.7962 126.934" stroke="black" stroke-width="0.533434" stroke-miterlimit="10" stroke-linecap="round" stroke-linejoin="round"/>
</g>
<g id="path861">
<path d="M14.8982 86.7186C14.8027 90.5661 15.6625 97.5282 15.567 97.5282C14.7071 98.5359 11.0765 98.5359 10.6943 95.6961C8.87904 97.1618 5.43952 94.4136 6.01278 92.1234C3.43314 93.0395 2 91.3905 2 89.8332C4.38855 87.4514 5.53507 79.1152 7.82808 75.5425C10.3122 71.0537 16.2358 69.588 16.2358 69.588" fill="#2E3746"/>
<path d="M14.8982 86.7186C14.8027 90.5661 15.6625 97.5282 15.567 97.5282C14.7071 98.5359 11.0765 98.5359 10.6943 95.6961C8.87904 97.1618 5.43952 94.4136 6.01278 92.1234C3.43314 93.0395 2 91.3905 2 89.8332C4.38855 87.4514 5.53507 79.1152 7.82808 75.5425C10.3122 71.0537 16.2358 69.588 16.2358 69.588" stroke="black" stroke-width="0.533434" stroke-miterlimit="10" stroke-linecap="round" stroke-linejoin="round"/>
</g>
<g id="path848">
<path d="M45.3762 69.7713C45.3762 69.7713 51.2998 70.8706 54.2616 75.5425C56.5546 79.1152 57.7966 87.4515 60.0897 89.8333C60.0897 91.4822 58.6565 93.1311 56.0769 92.1234C56.7457 94.4136 53.3062 97.1618 51.3953 95.6961C51.1087 98.5359 47.4781 98.4443 46.6182 97.5283C46.5227 97.5283 47.287 90.5661 47.1915 86.7186" fill="#2E3746"/>
<path d="M45.3762 69.7713C45.3762 69.7713 51.2998 70.8706 54.2616 75.5425C56.5546 79.1152 57.7966 87.4515 60.0897 89.8333C60.0897 91.4822 58.6565 93.1311 56.0769 92.1234C56.7457 94.4136 53.3062 97.1618 51.3953 95.6961C51.1087 98.5359 47.4781 98.4443 46.6182 97.5283C46.5227 97.5283 47.287 90.5661 47.1915 86.7186" stroke="black" stroke-width="0.533434" stroke-miterlimit="10" stroke-linecap="round" stroke-linejoin="round"/>
</g>
</g>
<g id="skirt">
<g id="path728">
<path d="M13.8472 122.629C13.7516 123.27 12.3185 126.934 11.5541 135.27C10.121 147.454 8.59234 154.783 4.67511 160.096C5.72607 161.562 6.0127 165.959 13.6561 163.669C14.9937 166.783 19.8663 166.508 23.4969 164.676C24.6434 167.15 28.3696 168.066 31.1403 165.043C34.962 168.524 38.0193 166.966 39.0703 164.585C40.8856 166.966 47.7646 166.966 48.3379 163.302C53.3061 165.501 56.9367 161.195 57.701 159.638C53.5927 153.958 52.8284 148.187 50.9175 135.728C50.0577 130.14 49.4844 126.201 48.2424 122.262" fill="#2E3746"/>
<path d="M13.8472 122.629C13.7516 123.27 12.3185 126.934 11.5541 135.27C10.121 147.454 8.59234 154.783 4.67511 160.096C5.72607 161.562 6.0127 165.959 13.6561 163.669C14.9937 166.783 19.8663 166.508 23.4969 164.676C24.6434 167.15 28.3696 168.066 31.1403 165.043C34.962 168.524 38.0193 166.966 39.0703 164.585C40.8856 166.966 47.7646 166.966 48.3379 163.302C53.3061 165.501 56.9367 161.195 57.701 159.638C53.5927 153.958 52.8284 148.187 50.9175 135.728C50.0577 130.14 49.4844 126.201 48.2424 122.262" stroke="black" stroke-width="0.533434" stroke-miterlimit="10" stroke-linecap="round" stroke-linejoin="round"/>
</g>
<path id="path730" opacity="0.3" d="M49.58 163.211C46.7137 165.318 45.3761 159.73 44.8029 153.042C45.6627 158.905 48.7201 162.936 49.58 163.211Z" fill="black"/>
<path id="path732" opacity="0.3" d="M40.3124 164.951C37.1595 165.959 36.7774 161.47 37.3506 156.34C37.064 160.92 39.4526 164.585 40.3124 164.951Z" fill="black"/>
<path id="path734" opacity="0.3" d="M12.8918 163.211C15.7581 165.318 17.0957 159.73 17.669 153.042C16.8091 158.905 13.7517 162.936 12.8918 163.211Z" fill="black"/>
<path id="path736" opacity="0.3" d="M22.1594 164.951C25.3123 165.959 25.6945 161.47 25.1212 156.34C25.4079 160.92 23.0193 164.585 22.1594 164.951Z" fill="black"/>
<path id="polygon738" opacity="0.3" d="M30.6627 165.043L31.2359 160.279L32.0003 165.043H30.6627Z" fill="black"/>
</g>
</g>
<g id="dress-4">
<g id="shirt">
<g id="chest_2">
<path id="line748_2" d="M30.5671 68.4888V64" stroke="black" stroke-width="0.533434" stroke-linecap="round" stroke-linejoin="round"/>
<path id="path750_2" d="M15.2804 70.8705C15.2804 70.8705 24.8346 68.7636 30.4716 68.8552C36.0131 68.9468 45.8539 70.8705 45.8539 70.8705C45.8539 70.8705 36.8729 82.5963 29.2296 82.5963C21.5862 82.5963 15.2804 70.8705 15.2804 70.8705Z" fill="#EBC3A5" stroke="black" stroke-width="0.533434" stroke-linecap="round" stroke-linejoin="round"/>
</g>
<path id="path208" opacity="0.5" d="M21.7004 83.2708C21.7004 83.2708 26.5553 87.2172 31.3235 87.2172C37.0453 87.2172 39.9928 84.2145 39.9928 84.2145C39.9928 84.2145 35.3114 89.4478 30.6299 89.4478C27.1621 89.4478 21.7004 83.2708 21.7004 83.2708V83.2708Z" fill="black"/>
<g id="path210">
<path d="M47.5353 125.85C46.495 123.19 45.9748 117.271 46.0615 108.263C46.0615 100.284 47.7954 91.9625 48.8357 89.303C51.0031 83.6408 51.6966 74.3753 49.7893 72.059C49.0958 71.1153 42.1603 70.2574 42.1603 70.2574V70.3432L40.5998 70.0858C39.0393 73.0027 36.9586 76.0054 31.1502 76.0054C24.6481 76.0054 22.2207 72.3164 20.4001 70L16.5856 70.5147C16.5856 70.5147 10.1702 71.7158 9.99685 72.6595C9.65008 76.0912 9.99685 83.6408 12.0775 89.303C13.1178 92.0483 14.8517 100.713 14.8517 108.863C14.8517 117.614 14.3315 122.247 13.2045 125.85" fill="#21201E"/>
<path d="M47.5353 125.85C46.495 123.19 45.9748 117.271 46.0615 108.263C46.0615 100.284 47.7954 91.9625 48.8357 89.303C51.0031 83.6408 51.6966 74.3753 49.7893 72.059C49.0958 71.1153 42.1603 70.2574 42.1603 70.2574V70.3432L40.5998 70.0858C39.0393 73.0027 36.9586 76.0054 31.1502 76.0054C24.6481 76.0054 22.2207 72.3164 20.4001 70L16.5856 70.5147C16.5856 70.5147 10.1702 71.7158 9.99685 72.6595C9.65008 76.0912 9.99685 83.6408 12.0775 89.303C13.1178 92.0483 14.8517 100.713 14.8517 108.863C14.8517 117.614 14.3315 122.247 13.2045 125.85" stroke="black" stroke-width="0.396875" stroke-miterlimit="10" stroke-linecap="round" stroke-linejoin="round"/>
</g>
<path id="path224" opacity="0.3" d="M47.0152 89.5336C47.0152 89.5336 46.2349 100.515 44.8478 104.547C43.5474 108.493 41.8135 111.41 41.8135 111.41C41.8135 111.41 43.4607 110.295 45.368 106.005C47.2752 101.544 47.0152 87.9893 47.0152 89.5336Z" fill="black"/>
<path id="path226" opacity="0.3" d="M14.0715 89.1045C14.0715 89.1045 14.8517 100.086 16.2388 104.118C17.5392 108.064 19.2731 110.981 19.2731 110.981C19.2731 110.981 17.6259 109.866 15.7186 105.576C13.8114 101.201 14.0715 89.1045 14.0715 89.1045Z" fill="black"/>
<g id="path316">
<path d="M14.8518 83.9839C14.8518 83.9839 14.3316 88.9598 14.1583 90.504C13.2046 100.198 13.6381 123.362 12.5978 125.507L1.15418 124.563C0.027157 123.705 5.40218 78.9222 6.78928 76.1769C7.48283 74.8042 8.86994 72.5737 10.4304 72.2305" fill="#21201E"/>
<path d="M14.8518 83.9839C14.8518 83.9839 14.3316 88.9598 14.1583 90.504C13.2046 100.198 13.6381 123.362 12.5978 125.507L1.15418 124.563C0.027157 123.705 5.40218 78.9222 6.78928 76.1769C7.48283 74.8042 8.86994 72.5737 10.4304 72.2305" stroke="black" stroke-width="0.396875" stroke-miterlimit="10" stroke-linecap="round" stroke-linejoin="round"/>
</g>
<g id="path306">
<path d="M46.8881 84.7265C46.8881 84.7265 47.3216 89.0161 47.5817 91.504C48.5353 101.198 48.3619 124.362 49.4022 126.507L60.8458 125.563C61.9728 124.705 56.5978 79.9222 55.2107 77.1769C54.2571 75.2895 52.4365 73.6595 50.1825 72.63" fill="#21201E"/>
<path d="M46.8881 84.7265C46.8881 84.7265 47.3216 89.0161 47.5817 91.504C48.5353 101.198 48.3619 124.362 49.4022 126.507L60.8458 125.563C61.9728 124.705 56.5978 79.9222 55.2107 77.1769C54.2571 75.2895 52.4365 73.6595 50.1825 72.63" stroke="black" stroke-width="0.396875" stroke-miterlimit="10" stroke-linecap="round" stroke-linejoin="round"/>
</g>
<g id="back_hijab">
<path id="path212" d="M12.3787 66.752C12.636 69.2358 11.3496 73.0443 12.7217 74.783C13.5793 75.9421 14.3511 73.9551 15.2944 74.8658C16.4093 75.9421 13.0648 80.4129 15.2087 81.4892C16.6665 82.2344 16.7523 80.4129 18.4674 80.8269C19.4107 81.0753 20.0968 84.3042 21.3831 86.0429C24.6419 90.3481 28.6724 90.1825 30.3018 90.1825C33.7321 90.1825 40.5926 79.0054 40.7641 77.1012C40.9356 75.1969 47.6246 72.9615 48.4822 69.8154C49.8543 64.5994 46.6813 57.6448 45.9095 49.8622C45.6522 46.9645 42.3935 31.9789 27.5576 33.0552C21.7262 33.6348 9.72025 40.9206 12.3787 66.752Z" fill="#58646D" stroke="black" stroke-width="0.396875" stroke-miterlimit="10" stroke-linecap="round" stroke-linejoin="round"/>
<path id="path214" opacity="0.3" d="M14.6084 74.1207C14.6084 74.1207 15.2945 76.3561 15.7232 70.2294C16.9238 79.2538 15.6375 74.7002 15.6375 74.7002L14.6084 74.1207Z" fill="black"/>
<path id="path216" opacity="0.3" d="M17.5241 80.413C17.5241 80.413 19.5823 79.2539 19.325 70.809C21.5547 76.7701 18.7247 80.9925 18.7247 80.9925L17.5241 80.413Z" fill="black"/>
<path id="path218" d="M30.902 86.2913C23.3555 84.2215 27.8148 76.5217 23.3555 71.3057" stroke="black" stroke-width="0.264583" stroke-miterlimit="10" stroke-linecap="round" stroke-linejoin="round"/>
<path id="path220" opacity="0.3" d="M42.2221 71.3885C42.2221 71.3885 34.161 78.8399 26.0141 80.4958C26.0141 83.4763 32.7031 81.4065 32.7031 81.4065C32.7031 81.4065 27.5577 82.4 27.7292 80.6613C34.4182 79.4195 42.2221 71.3885 42.2221 71.3885V71.3885Z" fill="black"/>
<path id="path222" opacity="0.3" d="M36.8193 79.9162C36.1332 82.6484 30.8163 86.8709 30.8163 86.8709L29.7872 85.7118C29.873 85.7118 33.9035 83.6419 36.8193 79.9162Z" fill="black"/>
</g>
</g>
<g id="skirt_2">
<path id="path198" d="M52.1303 185.105C51.0899 175.325 51.0032 123.678 45.6282 119.818C40.2532 115.957 30.2834 121.877 30.2834 121.877C30.2834 121.877 21.5273 115.528 15.5455 119.818C9.13011 124.536 9.39019 170.778 8.17648 182.703C6.87607 194.628 2.62807 204.15 4.01517 206.209C5.40227 208.268 9.56358 208.869 12.5979 208.783C15.6322 208.697 18.3197 209.126 20.487 210.499C22.3076 211.614 27.0757 213.158 30.3701 212.987C33.6645 213.073 38.4326 211.614 40.2532 210.499C42.4206 209.126 45.1081 208.697 48.1423 208.783C51.1766 208.869 55.9448 207.582 56.725 205.609C57.5053 203.636 53.0839 194.971 52.1303 185.105Z" fill="#21201E" stroke="black" stroke-width="0.396875" stroke-miterlimit="10" stroke-linecap="round" stroke-linejoin="round"/>
<path id="path200" opacity="0.3" d="M37.0455 149.158C37.0455 149.158 37.479 203.378 45.6282 208.869C33.4044 210.242 37.0455 149.158 37.0455 149.158Z" fill="black"/>
<path id="path202" opacity="0.3" d="M14.9386 208.955C22.3943 205.437 23.5213 149.244 23.5213 149.244C23.5213 149.244 26.2955 211.7 14.9386 208.955Z" fill="black"/>
</g>
</g>
<g id="dress-3">
<g id="skirt_3">
<path id="path2982" d="M56.647 170.645C55.0169 171.174 52.3908 170.38 52.3908 170.38C52.3908 170.38 51.6663 171.88 47.1385 172.41C42.5202 172.852 37.8112 171.439 37.8112 171.439C37.8112 171.439 35.3662 172.94 33.4645 172.94C31.3817 172.852 29.8423 171.88 29.8423 171.88C29.8423 171.88 27.7595 172.94 23.4128 172.94C18.885 172.852 17.1644 171.439 17.1644 171.439C17.1644 171.439 14.7194 172.322 9.286 171.704C3.58095 171.174 3.39984 169.232 3.39984 169.232L17.7077 105.051L44.603 104.875L58.3675 169.497C57.9147 168.702 58.1864 170.115 56.647 170.645Z" fill="#F8CACA" stroke="black" stroke-width="0.343932" stroke-miterlimit="6.3866" stroke-linecap="round" stroke-linejoin="round"/>
<path id="polygon2984" opacity="0.4" d="M15.3533 168.702L18.7944 169.32L20.4244 134.096L15.3533 168.702Z" fill="black"/>
<path id="path2986" opacity="0.4" d="M52.0286 167.996L44.6029 128.975C44.6029 128.975 47.1385 164.994 46.1424 167.025C45.1463 169.232 42.5201 169.497 42.5201 169.497C42.5201 169.497 45.8707 169.762 48.5874 169.497C50.8513 169.32 52.0286 167.996 52.0286 167.996V167.996Z" fill="black"/>
<path id="polygon2988" opacity="0.4" d="M35.4567 168.702L36.2717 147.338L38.9884 168.702H35.4567Z" fill="black"/>
</g>
<g id="shirt_2">
<path id="path2994" d="M30.8383 68.1492C24.2277 68.1492 13.2704 69.8266 13.2704 69.8266C14.8098 80.597 29.48 77.0657 31.4722 76.8008C33.3739 77.2423 46.7762 81.0384 48.1346 69.8266C47.9535 69.9149 37.5395 68.1492 30.8383 68.1492Z" fill="#EBC3A5" stroke="black" stroke-width="0.343932" stroke-miterlimit="2.5547" stroke-linecap="round" stroke-linejoin="round"/>
<path id="path2996" d="M45.5084 73.9759C45.5084 73.9759 46.2329 72.4751 47.0479 69.7384C47.7723 67.1782 51.3946 68.9438 51.7568 71.1509C52.2096 73.3579 57.2807 88.9838 57.8241 90.3963C58.3674 91.8971 48.4968 98.8714 46.0518 94.987C42.7012 87.7479 45.5084 73.9759 45.5084 73.9759V73.9759Z" fill="#F8CACA" stroke="black" stroke-width="0.343932" stroke-miterlimit="6.3866" stroke-linecap="round" stroke-linejoin="round"/>
<path id="path2998" d="M14.8099 94.7221C12.2743 98.783 2.31312 91.5439 3.03757 90.1314C3.58091 88.6306 8.74262 73.1813 9.10484 70.886C9.55763 68.6789 13.0893 66.825 13.8138 69.4734C14.5382 72.0336 15.3532 73.711 15.3532 73.711C15.3532 73.711 18.3416 87.7478 14.8099 94.7221V94.7221Z" fill="#F8CACA" stroke="black" stroke-width="0.343932" stroke-miterlimit="6.3866" stroke-linecap="round" stroke-linejoin="round"/>
<path id="path3000" d="M25.3144 74.5938C29.5706 76.0946 28.1217 78.1251 30.4761 78.1251H30.5667C33.1023 78.1251 31.5628 76.0946 35.7284 74.5938C38.3546 73.6227 43.154 74.329 46.0518 74.7704C45.8707 73.711 45.7802 72.9165 45.7802 72.9165C34.0078 69.2086 31.2006 74.4173 30.4761 75.3884C30.0234 74.4173 27.4878 69.4735 15.8966 72.9165C15.8966 72.9165 15.9871 73.6227 15.806 74.7704C18.5227 74.2407 22.6883 73.5345 25.3144 74.5938V74.5938Z" fill="#F8CACA" stroke="black" stroke-width="0.343932" stroke-miterlimit="6.3866" stroke-linecap="round" stroke-linejoin="round"/>
<path id="path3002" d="M35.9094 74.5938C31.6533 76.0946 33.1022 78.1251 30.7477 78.1251H30.6572C28.1216 78.1251 29.661 76.0946 25.4954 74.5938C22.8693 73.6227 18.2509 74.329 15.7154 74.7704C15.4437 76.9774 14.1759 80.3321 14.2665 82.4509C14.7192 85.6291 17.0737 99.2245 17.0737 100.372C17.0737 101.52 17.0737 105.934 17.0737 105.934C17.0737 105.934 27.6688 107.788 30.3855 107.788C30.476 107.788 30.8383 107.788 30.9288 107.788C33.4644 107.788 44.0595 105.316 44.0595 105.316C44.0595 105.316 43.5161 102.138 43.5161 100.725C43.5161 99.3127 46.5045 85.9822 46.7762 82.9806C47.0478 80.7736 46.0517 77.0657 45.7801 74.947C42.9728 74.2407 38.6261 73.5344 35.9094 74.5938Z" fill="#F8CACA" stroke="black" stroke-width="0.343932" stroke-miterlimit="6.3866" stroke-linecap="round" stroke-linejoin="round"/>
<path id="line3004" d="M30.6573 67.8844V64" stroke="black" stroke-width="0.343932" stroke-miterlimit="6.3866" stroke-linecap="round" stroke-linejoin="round"/>
<path id="path3006" opacity="0.3" d="M36.9056 102.932C36.7245 102.491 34.6417 106.199 34.6417 106.199L30.6572 106.993V106.905C30.7477 106.728 30.7477 106.728 30.7477 106.728L30.4761 105.228L30.0233 102.844L29.5705 105.228L29.2988 106.728C29.2988 106.728 29.2988 106.817 29.3894 106.905V106.993L25.4049 106.199C25.4049 106.199 23.5032 102.314 23.141 102.932C22.9599 103.374 24.1371 106.11 24.1371 106.11C27.3972 107.611 29.0272 107.611 29.8422 107.523C30.3855 107.7 32.3778 107.7 35.5472 106.11C36.1811 106.199 37.2678 103.285 36.9056 102.932V102.932Z" fill="black"/>
<path id="path3008" opacity="0.3" d="M25.3144 74.6821C29.5705 76.1829 28.1216 78.2134 30.4761 78.2134H30.5666C33.1022 78.2134 31.5627 76.1829 35.7283 74.6821C38.3545 73.711 43.154 74.4173 46.0518 74.8587C45.8706 73.7993 45.7801 73.0048 45.7801 73.0048C34.0078 69.2969 31.2005 74.5056 30.4761 75.4767C30.0233 74.5056 27.4877 69.5618 15.8965 73.0048C15.8965 73.0048 15.8965 73.711 15.7154 74.8587C18.3415 74.329 22.6882 73.711 25.3144 74.6821V74.6821Z" fill="black"/>
<path id="path3012" d="M36.6339 68.6789C36.6339 70.5328 33.9172 72.0336 30.4761 72.0336C27.0349 72.0336 24.3182 70.5328 24.3182 68.6789C24.3182 68.3258 24.9521 68.6789 25.1332 68.4141C25.8577 69.8266 27.6688 70.1797 30.4761 70.1797C33.2833 70.1797 35.0944 69.8266 35.9094 68.4141C36.0906 68.6789 36.6339 68.3258 36.6339 68.6789V68.6789Z" fill="#EAC03B" stroke="black" stroke-width="0.264583" stroke-miterlimit="6.3866" stroke-linecap="round" stroke-linejoin="round"/>
</g>
</g>
<g id="dress-2">
<g id="skirt_4">
<g id="path4035">
<path d="M13.8578 114.078C12.8362 118.011 11.5081 121.419 10.5886 132.519C9.26048 148.425 10.18 169.924 13.347 174.207C13.347 174.294 15.6968 174.469 18.5573 174.556C18.0465 172.371 18.6595 159.874 19.6811 157.601C19.6811 159.437 21.1114 173.508 21.4179 174.644C25.5044 174.818 29.7953 174.993 30.4083 174.993C31.6342 175.081 47.3674 174.294 47.5717 174.119C50.7388 169.924 51.7604 148.25 50.4323 132.256C49.5128 121.507 47.4696 118.011 46.3458 113.903" fill="#BA0000"/>
<path d="M13.8578 114.078C12.8362 118.011 11.5081 121.419 10.5886 132.519C9.26048 148.425 10.18 169.924 13.347 174.207C13.347 174.294 15.6968 174.469 18.5573 174.556C18.0465 172.371 18.6595 159.874 19.6811 157.601C19.6811 159.437 21.1114 173.508 21.4179 174.644C25.5044 174.818 29.7953 174.993 30.4083 174.993C31.6342 175.081 47.3674 174.294 47.5717 174.119C50.7388 169.924 51.7604 148.25 50.4323 132.256C49.5128 121.507 47.4696 118.011 46.3458 113.903" stroke="black" stroke-width="0.396875" stroke-linecap="round" stroke-linejoin="round"/>
</g>
<path id="path4037" opacity="0.3" d="M26.424 171.76C26.424 171.76 42.7701 173.071 44.9155 171.06C47.0609 169.05 46.5501 166.865 46.5501 166.865C46.5501 166.865 38.4792 171.76 26.424 171.76V171.76Z" fill="black"/>
</g>
<g id="shirt_3">
<path id="path4043" d="M18.7615 67.8454H42.872C42.872 67.8454 41.6461 79.207 31.0211 78.5952C20.3961 77.9834 18.7615 67.8454 18.7615 67.8454Z" fill="#EBC3A5" stroke="black" stroke-width="0.396875" stroke-linecap="round" stroke-linejoin="round"/>
<g id="path4045">
<path d="M46.5501 114.69C46.2436 113.117 42.1571 99.5703 43.8938 96.6862C45.9371 93.5399 47.5717 79.2943 47.5717 76.4977C47.5717 73.701 48.0825 69.2438 47.8782 68.3698C47.6739 67.4959 45.5285 68.195 45.1198 67.4959C44.8133 66.7967 42.2592 67.3211 42.2592 67.3211C42.2592 67.3211 37.8662 75.7985 31.0213 75.7111C24.1763 75.6237 18.966 67.3211 18.966 67.3211C18.966 67.3211 16.4119 66.7093 16.1054 67.4959C15.7989 68.195 13.5513 67.4959 13.347 68.3698C13.1427 69.2438 13.6535 73.7884 13.6535 76.4977C13.6535 79.2943 15.9011 93.6273 17.8422 96.7736C19.1703 99.5703 14.0621 113.204 13.6535 114.69" fill="#BA0000"/>
<path d="M46.5501 114.69C46.2436 113.117 42.1571 99.5703 43.8938 96.6862C45.9371 93.5399 47.5717 79.2943 47.5717 76.4977C47.5717 73.701 48.0825 69.2438 47.8782 68.3698C47.6739 67.4959 45.5285 68.195 45.1198 67.4959C44.8133 66.7967 42.2592 67.3211 42.2592 67.3211C42.2592 67.3211 37.8662 75.7985 31.0213 75.7111C24.1763 75.6237 18.966 67.3211 18.966 67.3211C18.966 67.3211 16.4119 66.7093 16.1054 67.4959C15.7989 68.195 13.5513 67.4959 13.347 68.3698C13.1427 69.2438 13.6535 73.7884 13.6535 76.4977C13.6535 79.2943 15.9011 93.6273 17.8422 96.7736C19.1703 99.5703 14.0621 113.204 13.6535 114.69" stroke="black" stroke-width="0.396875" stroke-linecap="round" stroke-linejoin="round"/>
</g>
<path id="path4047" opacity="0.3" d="M16.7184 69.069C16.7184 69.069 20.7028 73.0892 18.7617 73.0892C16.8205 73.0892 16.7184 69.069 16.7184 69.069Z" fill="black"/>
<path id="path4049" opacity="0.3" d="M44.609 69.4185C44.609 69.4185 40.6246 73.4388 42.5657 73.4388C44.5068 73.4388 44.609 69.4185 44.609 69.4185Z" fill="black"/>
<path id="line4051" d="M30.7148 64V67.4959" stroke="black" stroke-width="0.396875" stroke-linecap="round" stroke-linejoin="round"/>
<path id="path4053" opacity="0.3" d="M19.681 71.516C19.681 71.516 22.0308 77.2842 25.6065 78.7699C29.1822 80.2557 35.5163 80.9548 35.5163 80.9548C35.5163 80.9548 32.2471 81.4792 26.6281 80.2557C21.0092 79.0321 19.681 71.516 19.681 71.516Z" fill="black"/>
<path id="path4055" opacity="0.3" d="M41.7482 71.6909C41.7482 71.6909 38.2747 76.8473 35.8227 77.7212C33.2687 78.5952 27.241 78.4204 27.241 78.4204C27.241 78.4204 32.4514 79.7313 36.2314 78.4204C40.0114 77.1095 41.7482 71.6909 41.7482 71.6909Z" fill="black"/>
<path id="rect4057" d="M30.784 70.8947L28.9456 72.5349L30.8629 74.1075L32.7013 72.4674L30.784 70.8947Z" fill="#FBC926" stroke="black" stroke-width="0.198438" stroke-linecap="round" stroke-linejoin="round"/>
<path id="path4059" d="M25.6066 67.758C25.6066 67.758 26.6283 70.9917 30.817 70.9043C35.0057 70.8169 35.5165 67.8454 35.5165 67.8454" stroke="black" stroke-width="0.198438" stroke-linecap="round" stroke-linejoin="round"/>
</g>
</g>
<g id="dress-1">
<g id="skirt_5">
<g id="path1655">
<path d="M15.211 114.141C14.3151 118.079 13.1503 121.492 12.344 132.605C9.92491 159.47 14.763 190.534 13.5087 192.985C13.5087 193.072 23.185 194.91 29.7254 194.997C36.2659 195.085 46.4797 193.072 46.6589 192.897C45.0462 190.272 49.526 166.383 47.2861 132.343C46.4797 121.579 45.315 118.079 44.3295 113.966" fill="#1D4E89"/>
<path d="M15.211 114.141C14.3151 118.079 13.1503 121.492 12.344 132.605C9.92491 159.47 14.763 190.534 13.5087 192.985C13.5087 193.072 23.185 194.91 29.7254 194.997C36.2659 195.085 46.4797 193.072 46.6589 192.897C45.0462 190.272 49.526 166.383 47.2861 132.343C46.4797 121.579 45.315 118.079 44.3295 113.966" stroke="black" stroke-width="0.396875" stroke-linecap="round" stroke-linejoin="round"/>
</g>
<path id="path1657" opacity="0.3" d="M26.2312 190.534C26.2312 190.534 40.5664 191.847 42.4479 189.834C44.3294 187.822 43.8815 185.634 43.8815 185.634C43.8815 185.634 36.8034 190.534 26.2312 190.534V190.534Z" fill="black"/>
<path id="path1659" d="M14.2253 118.167C14.6733 120.967 14.8525 124.555 14.1357 134.968C11.9855 160.082 17.0924 188.522 16.0172 190.797C16.0172 190.884 23.9912 192.547 29.8149 192.722C35.6386 192.81 44.0605 190.884 44.2397 190.709C42.8062 188.259 47.4652 166.47 45.4045 134.705C44.6877 124.642 44.5085 122.017 45.0461 118.167" stroke="black" stroke-width="0.264583" stroke-linecap="round" stroke-linejoin="round"/>
</g>
<g id="shirt_4">
<g id="path1665">
<path d="M44.5086 114.754C44.2398 113.179 41.0144 102.328 40.9248 97.34C40.8352 92.3521 43.8814 88.1518 44.7774 76.5135C44.7774 76.5135 49.2572 72.7507 48.9884 71.4381C48.7196 70.1255 44.9566 68.3753 44.9566 68.3753C44.9566 68.3753 40.656 67.4128 37.4306 67.5003C37.2514 67.5003 36.2658 66.8877 35.6387 65.3126C34.7427 65.3126 32.9508 66.1877 31.6069 66.0127C30.9797 65.9252 29.9942 69.3379 29.9942 69.3379C29.9942 69.3379 29.0982 66.0127 28.3815 66.0127C27.0375 66.0127 25.4248 65.3126 24.7977 65.3126C24.0809 66.5377 22.9162 67.5003 22.289 67.4128C19.1532 67.3253 14.763 68.3753 14.763 68.3753C14.763 68.3753 11 69.9505 11 71.4381C11 72.9257 14.763 76.3384 15.0318 76.5135C15.211 87.4518 18.526 91.7396 18.7052 96.815C18.8844 103.815 15.3902 113.266 15.0318 114.754" fill="#1D4E89"/>
<path d="M44.5086 114.754C44.2398 113.179 41.0144 102.328 40.9248 97.34C40.8352 92.3521 43.8814 88.1518 44.7774 76.5135C44.7774 76.5135 49.2572 72.7507 48.9884 71.4381C48.7196 70.1255 44.9566 68.3753 44.9566 68.3753C44.9566 68.3753 40.656 67.4128 37.4306 67.5003C37.2514 67.5003 36.2658 66.8877 35.6387 65.3126C34.7427 65.3126 32.9508 66.1877 31.6069 66.0127C30.9797 65.9252 29.9942 69.3379 29.9942 69.3379C29.9942 69.3379 29.0982 66.0127 28.3815 66.0127C27.0375 66.0127 25.4248 65.3126 24.7977 65.3126C24.0809 66.5377 22.9162 67.5003 22.289 67.4128C19.1532 67.3253 14.763 68.3753 14.763 68.3753C14.763 68.3753 11 69.9505 11 71.4381C11 72.9257 14.763 76.3384 15.0318 76.5135C15.211 87.4518 18.526 91.7396 18.7052 96.815C18.8844 103.815 15.3902 113.266 15.0318 114.754" stroke="black" stroke-width="0.396875" stroke-linecap="round" stroke-linejoin="round"/>
</g>
<path id="line1667" d="M29.9941 64V67.5003" stroke="black" stroke-width="0.396875" stroke-linecap="round" stroke-linejoin="round"/>
<path id="path1669" d="M23.7225 66.6252C23.7225 67.5002 26.7688 68.9879 29.9046 69.1629C32.3237 69.3379 36.0867 67.9378 36.2659 66.8877" stroke="black" stroke-width="0.264583" stroke-linecap="round" stroke-linejoin="round"/>
<path id="path1671" d="M30.0836 69.6004C29.994 71.088 21.5721 73.0132 18.9738 76.9509C17.0027 79.9262 16.7339 88.5018 16.7339 88.5018" stroke="black" stroke-width="0.264583" stroke-linecap="round" stroke-linejoin="round"/>
<path id="path1673" d="M37.4306 67.5003C37.4306 70.563 24.081 73.4507 20.6763 77.9135C17.7197 81.7638 17.9885 91.7396 17.9885 91.7396" stroke="black" stroke-width="0.264583" stroke-linecap="round" stroke-linejoin="round"/>
<path id="line1675" d="M27.1272 69.9504H32.5925" stroke="black" stroke-width="0.264583" stroke-linecap="round" stroke-linejoin="round"/>
<path id="path1677" d="M21.2138 72.4881C23.4537 73.1882 24.8872 74.2382 25.6936 75.5508" stroke="black" stroke-width="0.264583" stroke-linecap="round" stroke-linejoin="round"/>
<path id="path1679" d="M19.7803 73.8007C21.6618 74.4133 23.1849 75.4633 24.26 76.8634" stroke="black" stroke-width="0.264583" stroke-linecap="round" stroke-linejoin="round"/>
<path id="path1681" d="M47.3757 70.1254C47.734 71.088 44.5982 76.4259 44.5982 76.4259" stroke="black" stroke-width="0.264583" stroke-linecap="round" stroke-linejoin="round"/>
<path id="path1683" d="M12.6127 69.9504C12.2543 70.913 15.211 76.5134 15.211 76.5134" stroke="black" stroke-width="0.264583" stroke-linecap="round" stroke-linejoin="round"/>
</g>
</g>
</g>
<g id="face">
<path id="path758" d="M15.8982 50.702C16.7581 51.9845 16.9492 54.0915 18.0957 55.9236C19.2422 57.7558 26.6945 63.8934 30.8984 63.8934C35.1022 63.8934 42.2679 57.6642 43.6055 55.7404C44.9431 53.8167 44.752 51.9845 45.5163 50.702C49.8157 51.0684 52.1087 46.5797 51.631 43.0986C51.3444 40.9916 50.5801 40.0756 48.7648 40.5336C48.7648 40.442 48.7648 40.2588 48.7648 40.1672C48.7648 27.5254 40.8348 17.4486 31.0895 17.4486C30.9939 17.4486 30.8984 17.4486 30.8028 17.4486C30.7073 17.4486 30.6117 17.4486 30.5162 17.4486C20.5798 17.4486 12.7453 27.617 12.7453 40.1672C12.7453 40.2588 12.7453 40.442 12.7453 40.5336C11.0256 40.1672 10.1657 41.0832 9.87908 43.0986C9.30582 46.6713 11.7899 51.0684 15.8982 50.702V50.702Z" fill="#EBC3A5" stroke="black" stroke-width="0.533434" stroke-linecap="round" stroke-linejoin="round"/>
<path id="path764" d="M49.8157 44.1063C50.6756 41.5413 47.3316 42.7322 46.6628 44.1979" stroke="black" stroke-width="0.355623" stroke-linecap="round" stroke-linejoin="round"/>
<path id="path762" d="M14.3695 48.595C12.7452 47.4041 12.0764 44.9308 13.1274 43.1902" stroke="black" stroke-width="0.355623" stroke-linecap="round" stroke-linejoin="round"/>
<path id="path760" d="M11.4077 44.1063C10.5478 41.5413 13.8918 42.7322 14.5606 44.1979" stroke="black" stroke-width="0.355623" stroke-linecap="round" stroke-linejoin="round"/>
<path id="path766" d="M46.7583 48.595C48.3825 47.4041 49.0513 44.9308 48.0004 43.1902" stroke="black" stroke-width="0.355623" stroke-linecap="round" stroke-linejoin="round"/>
<path id="path799" d="M29.9429 45.7475C29.6563 48.1293 29.1786 51.244 28.7964 51.8852C29.9429 53.1677 31.376 53.1677 31.376 53.1677" stroke="black" stroke-width="0.355623" stroke-linecap="round" stroke-linejoin="round"/>
</g>
<g id="facial_expressions">
<g id="facial_exp-5">
<path id="path771" d="M28.0322 55.9237C28.0322 55.9237 30.5163 54.0915 32.7137 57.939C32.3316 58.6719 31.6628 59.4048 29.6564 59.2215C26.3124 58.7635 28.0322 55.9237 28.0322 55.9237V55.9237Z" fill="#AF4B4B" stroke="black" stroke-width="0.266717" stroke-miterlimit="10"/>
<path id="path773" d="M26.3123 57.2978C27.9365 58.2139 33.5735 57.8474 33.5735 57.8474C30.5162 58.0307 26.5034 56.2901 25.6435 53.6335C25.4525 54.5496 25.548 56.7481 26.3123 57.2978Z" fill="white" stroke="black" stroke-width="0.355623" stroke-miterlimit="10" stroke-linecap="round" stroke-linejoin="round"/>
<path id="path775" d="M35.3889 42.3658C34.4334 42.8238 33.9557 44.7476 33.9557 44.7476C35.5799 44.9308 40.7392 46.0301 43.0322 44.3812C43.7966 44.0147 44.4654 42.2742 43.5099 41.8162C40.5481 39.984 36.0576 41.9078 35.3889 42.3658V42.3658Z" fill="white" stroke="black" stroke-width="0.355623" stroke-miterlimit="10" stroke-linecap="round" stroke-linejoin="round"/>
<path id="path777" d="M18.0001 41.9994C17.2358 42.8238 17.809 44.0147 18.5733 44.3812C21.5351 46.1217 26.0256 44.9308 27.6498 44.7476C27.6498 44.7476 27.1721 43.007 26.2167 42.549C24.0192 41.2665 19.4332 40.7169 18.0001 41.9994Z" fill="white" stroke="black" stroke-width="0.355623" stroke-miterlimit="10" stroke-linecap="round" stroke-linejoin="round"/>
<path id="path779" d="M34.7201 36.6862C33.8602 36.6862 32.7137 35.312 33.6691 35.1288C37.1086 34.396 45.2297 37.6938 45.2297 37.6938C40.0705 35.4952 35.58 36.5945 34.7201 36.6862V36.6862Z" fill="#754C24" stroke="black" stroke-width="0.355623" stroke-linecap="round" stroke-linejoin="round"/>
<path id="path781" d="M22.4907 41.3581C23.6372 41.5413 24.5926 41.6329 24.5926 42.7322C24.5926 43.8315 23.6372 44.7476 22.4907 44.7476C21.3442 44.7476 20.3888 43.8315 20.3888 42.7322C20.3888 41.6329 20.962 41.0833 22.4907 41.3581Z" fill="black" stroke="black" stroke-width="0.355623" stroke-miterlimit="10" stroke-linecap="round" stroke-linejoin="round"/>
<path id="path783" d="M39.115 41.2665C40.2615 41.2665 40.8348 41.7246 40.8348 42.8239C40.8348 43.9231 39.9749 44.7476 38.8284 44.7476C37.6819 44.7476 36.822 43.8315 36.822 42.8239C36.822 41.8162 38.1596 41.2665 39.115 41.2665V41.2665Z" fill="black" stroke="black" stroke-width="0.355623" stroke-miterlimit="10" stroke-linecap="round" stroke-linejoin="round"/>
<path id="path785" d="M27.7454 44.7476C26.5989 37.5106 17.1403 41.8161 15.6116 40.0756C15.516 41.6329 17.0447 42.4574 17.9046 41.8161C18.5734 41.2665 25.8346 39.8924 27.7454 44.7476Z" fill="black" stroke="black" stroke-width="0.355623" stroke-miterlimit="10" stroke-linecap="round" stroke-linejoin="round"/>
<path id="path787" d="M34.0513 44.656C35.1022 36.5029 44.6565 41.7245 46.1851 39.984C46.2807 41.5413 44.752 42.3658 43.8921 41.7246C43.2233 41.1749 35.8666 39.8008 34.0513 44.656Z" fill="black" stroke="black" stroke-width="0.355623" stroke-miterlimit="10" stroke-linecap="round" stroke-linejoin="round"/>
<path id="path789" d="M17.3314 36.7777C17.3314 36.7777 22.7773 41.7245 27.7455 41.4497C28.6053 41.5413 27.9365 39.8924 27.1722 39.7092C26.4079 39.6176 21.9174 40.2588 17.3314 36.7777V36.7777Z" fill="#754C24" stroke="black" stroke-width="0.355623" stroke-linecap="round" stroke-linejoin="round"/>
</g>
<g id="facial_exp-4">
<g id="gls_1636285112792">
<g id="g4105">
<path id="path4085" d="M27.838 56.4501C27.838 56.4501 30.4588 54.9155 34.6522 56.2696C35.0715 56.3599 35.2812 58.4362 31.612 58.5264C28.0477 58.6167 27.838 56.4501 27.838 56.4501Z" fill="#AF4B4B" stroke="black" stroke-width="0.198438" stroke-miterlimit="10"/>
<path id="path4087" d="M26.3704 55.9085C26.3704 55.9085 30.8782 58.5265 36.5392 55.9988" stroke="black" stroke-width="0.264583" stroke-miterlimit="10" stroke-linecap="round" stroke-linejoin="round"/>
<path id="path4089" d="M17.4596 41.3745C16.4112 41.8259 17.1451 44.173 17.9837 44.5341C20.4997 46.159 26.1607 45.0757 27.9429 44.8952C27.9429 44.8952 27.4187 42.6383 26.3704 42.0967C25.6366 41.8259 20.7094 39.6593 17.4596 41.3745Z" fill="white" stroke="black" stroke-width="0.264583" stroke-miterlimit="10" stroke-linecap="round" stroke-linejoin="round"/>
<path id="path4091" d="M36.4343 42.0064C35.386 42.4578 34.8618 44.8049 34.8618 44.8049C36.6439 44.9854 41.6759 46.159 44.8209 44.3535C45.6596 43.9924 46.2886 42.1869 45.4499 41.3745C43.9823 40.2009 38.8454 40.7426 36.4343 42.0064V42.0064Z" fill="white" stroke="black" stroke-width="0.264583" stroke-miterlimit="10" stroke-linecap="round" stroke-linejoin="round"/>
<path id="path4093" d="M15.5726 39.2079C15.5726 39.2079 24.4834 35.958 28.2574 36.6802C29.3057 36.8608 28.0477 38.2149 27.1042 38.2149C26.2656 38.2149 21.2336 37.1316 15.5726 39.2079V39.2079Z" fill="#754C24" stroke="black" stroke-width="0.264583" stroke-linecap="round" stroke-linejoin="round"/>
<path id="path4095" d="M47.2321 39.2079C47.2321 39.2079 38.3213 35.958 34.5473 36.6802C33.499 36.8608 34.757 38.2149 35.7005 38.2149C36.644 38.2149 41.676 37.1316 47.2321 39.2079V39.2079Z" fill="#754C24" stroke="black" stroke-width="0.264583" stroke-linecap="round" stroke-linejoin="round"/>
<path id="circle4097" d="M40.3132 44.9854C41.5869 44.9854 42.6195 44.0963 42.6195 42.9994C42.6195 41.9026 41.5869 41.0134 40.3132 41.0134C39.0394 41.0134 38.0068 41.9026 38.0068 42.9994C38.0068 44.0963 39.0394 44.9854 40.3132 44.9854Z" fill="black" stroke="black" stroke-width="0.264583" stroke-miterlimit="10" stroke-linecap="round" stroke-linejoin="round"/>
<path id="circle4099" d="M22.3867 44.9854C23.6025 44.9854 24.5882 44.1367 24.5882 43.0897C24.5882 42.0427 23.6025 41.1939 22.3867 41.1939C21.1708 41.1939 20.1852 42.0427 20.1852 43.0897C20.1852 44.1367 21.1708 44.9854 22.3867 44.9854Z" fill="black" stroke="black" stroke-width="0.264583" stroke-miterlimit="10" stroke-linecap="round" stroke-linejoin="round"/>
<path id="path4101" d="M27.9428 44.8951C26.7897 36.8608 16.3063 42.0064 14.629 40.2912C14.5242 41.8258 16.2015 42.6383 17.145 42.0064C17.8788 41.4647 25.8462 40.1106 27.9428 44.8951V44.8951Z" fill="#FE4D4D" stroke="black" stroke-width="0.264583" stroke-miterlimit="10" stroke-linecap="round" stroke-linejoin="round"/>
<path id="path4103" d="M34.8618 44.8049C36.015 36.7706 46.4983 41.9162 48.1756 40.201C48.2804 41.7356 46.6031 42.5481 45.6596 41.9162C44.9258 41.3745 36.9584 40.0204 34.8618 44.8049V44.8049Z" fill="#FE4D4D" stroke="black" stroke-width="0.264583" stroke-miterlimit="10" stroke-linecap="round" stroke-linejoin="round"/>
</g>
</g>
</g>
<g id="facial_exp-3">
<path id="path3038" d="M26.6895 60.3642C26.6895 60.3642 30.1306 56.7447 34.3867 60.1877C34.3867 60.1877 33.2095 61.247 30.5834 61.247C27.595 61.247 26.6895 60.3642 26.6895 60.3642Z" fill="#AF4B4B" stroke="black" stroke-width="0.198438" stroke-miterlimit="10" stroke-linecap="round" stroke-linejoin="round"/>
<path id="path3040" d="M26.5083 57.0095C26.5083 57.0095 29.8589 53.3899 33.9339 56.8329C33.9339 56.8329 32.7567 57.8923 30.2211 57.8923C27.3233 57.8923 26.5083 57.0095 26.5083 57.0095Z" fill="#AF4B4B" stroke="black" stroke-width="0.198438" stroke-miterlimit="10" stroke-linecap="round" stroke-linejoin="round"/>
<path id="path3042" d="M34.4773 56.7447C33.4812 56.3916 30.4022 56.215 26.8705 56.6564C25.7839 56.7447 24.8783 57.7158 24.6066 58.422C24.2444 59.3931 25.7839 60.276 25.7839 60.276C25.7839 60.276 32.485 59.4814 34.8395 60.0994C35.564 59.7463 36.4695 59.3048 36.2884 58.3337C36.1073 57.4509 35.4734 57.0095 34.4773 56.7447Z" fill="#C0272D" stroke="black" stroke-width="0.264583" stroke-miterlimit="10" stroke-linecap="round" stroke-linejoin="round"/>
<path id="path3044" d="M30.8551 58.3338C27.6857 58.422 25.1501 60.276 25.8745 60.276C26.599 60.276 32.9379 59.5697 34.4774 60.0111C36.6507 58.6869 33.5718 58.2455 30.8551 58.3338Z" fill="#BC7596" stroke="black" stroke-width="0.264583" stroke-miterlimit="10" stroke-linecap="round" stroke-linejoin="round"/>
<path id="path3046" d="M17 42.5313C17 42.5313 24.8784 42.9727 27.5045 41.2953C28.1384 40.8539 26.8706 40.0594 26.1462 40.3242C25.4217 40.5891 22.0712 42.7961 17 42.5313Z" fill="#754C24" stroke="black" stroke-width="0.264583" stroke-linecap="round" stroke-linejoin="round"/>
<path id="path3048" d="M44.0763 42.5313C44.0763 42.5313 36.1979 42.9727 33.5717 41.2953C32.9378 40.8539 34.2056 40.0594 34.9301 40.3242C35.564 40.5008 39.0051 42.7961 44.0763 42.5313Z" fill="#754C24" stroke="black" stroke-width="0.264583" stroke-linecap="round" stroke-linejoin="round"/>
<path id="path3050" d="M34.0245 45.268C37.0129 43.3258 40.9974 44.8266 41.8124 45.0032" stroke="black" stroke-width="0.264583" stroke-linecap="round" stroke-linejoin="round"/>
<path id="path3052" d="M19.1733 45.0031C21.1655 44.65 25.3311 43.8555 27.0517 45.0914" stroke="black" stroke-width="0.264583" stroke-linecap="round" stroke-linejoin="round"/>
<path id="path3054" d="M20.7127 44.4736C20.0789 44.7384 20.0789 44.297 19.5355 44.297C18.9922 44.297 18.7205 44.297 18.7205 44.8267C18.7205 45.1798 19.0827 45.1798 19.6261 45.2681C18.8111 47.3869 17.9961 55.0674 18.4488 56.5682C18.5394 57.2744 18.9016 57.8924 18.9922 56.6565C18.5394 53.39 20.0788 46.5923 20.5316 45.4447C21.075 45.6212 21.1655 45.8861 21.7994 45.7978C22.3428 45.7095 22.9767 44.915 23.1578 44.5618C23.2483 44.297 21.4372 44.2087 20.7127 44.4736V44.4736Z" fill="#58E6F9" stroke="black" stroke-width="0.132292" stroke-miterlimit="10" stroke-linecap="round" stroke-linejoin="round"/>
<path id="path3056" d="M38.1902 44.5618C38.3713 44.915 39.0052 45.7095 39.5486 45.7978C40.1825 45.8861 40.273 45.6212 40.8164 45.4447C41.2691 46.5923 42.8086 53.39 42.3558 56.6565C42.4464 57.8924 42.8992 56.5682 42.8992 56.5682C43.3519 55.0674 42.5369 47.3869 41.7219 45.2681C42.2653 45.1798 42.6275 45.1798 42.6275 44.8267C42.6275 44.297 42.3558 44.297 41.8125 44.297C41.2691 44.297 41.2692 44.7384 40.6353 44.4736C39.9108 44.2087 38.0997 44.297 38.1902 44.5618V44.5618Z" fill="#58E6F9" stroke="black" stroke-width="0.132292" stroke-miterlimit="10" stroke-linecap="round" stroke-linejoin="round"/>
<path id="path3058" opacity="0.3" d="M27.2329 39C28.229 39 29.4968 40.2359 28.7724 41.4719C28.8629 40.4125 28.3196 39.618 27.2329 39Z" fill="black"/>
<path id="path3060" opacity="0.3" d="M33.7529 39C32.5757 39 31.5796 40.2359 32.2135 41.4719C32.1229 40.3242 32.7568 39.618 33.7529 39Z" fill="black"/>
<path id="path3062" d="M27.2329 45.3563C26.0557 42.6195 18.7207 44.4734 17.2718 42.7961C17.1812 44.2969 18.6301 45.0914 19.4451 44.4734C20.079 43.9438 25.784 44.4734 27.2329 45.3563Z" fill="black" stroke="black" stroke-width="0.264583" stroke-miterlimit="10" stroke-linecap="round" stroke-linejoin="round"/>
<path id="path3064" d="M34.0245 45.2681C36.2884 42.1782 42.2652 44.5618 43.6235 42.8845C43.7141 44.3853 42.2652 45.1798 41.4502 44.5618C40.9068 44.0321 35.564 43.7673 34.0245 45.2681V45.2681Z" fill="black" stroke="black" stroke-width="0.264583" stroke-miterlimit="10" stroke-linecap="round" stroke-linejoin="round"/>
</g>
<g id="facial_exp-2">
<path id="path1711" d="M25.8036 55.1962C25.8036 55.1962 28.5823 54.7499 31.2685 57.6065C31.5464 57.8743 30.7127 59.9274 27.8413 58.4991C24.97 57.1601 25.8036 55.1962 25.8036 55.1962Z" fill="#AF4B4B" stroke="black" stroke-width="0.198438" stroke-miterlimit="10"/>
<path id="path1713" d="M24.8772 53.8572C26.6371 58.1421 33.2135 57.6065 33.2135 57.6065" stroke="black" stroke-width="0.264583" stroke-miterlimit="10" stroke-linecap="round" stroke-linejoin="round"/>
<path id="path1715" d="M35.6218 43.4128C34.6955 43.9484 34.2324 46.1801 34.2324 46.1801C36.2701 45.2874 40.8088 47.4298 43.0318 45.823C43.7728 45.4659 44.4212 43.145 43.4949 42.6986C40.6235 40.9133 36.2701 43.0557 35.6218 43.4128Z" fill="white" stroke="black" stroke-width="0.264583" stroke-miterlimit="10" stroke-linecap="round" stroke-linejoin="round"/>
<path id="path1717" d="M34.9735 38.8601C34.1399 38.8601 33.0283 37.521 33.9546 37.3425C40.8089 35.8249 45.1623 39.842 45.1623 39.842C39.9752 36.3606 35.8071 38.7708 34.9735 38.8601V38.8601Z" fill="black" stroke="black" stroke-width="0.264583" stroke-linecap="round" stroke-linejoin="round"/>
<path id="path1719" d="M27.6562 40.2884C28.3972 40.3776 29.6939 39.3064 28.8603 38.9493C25.711 37.6103 17.3748 39.4849 17.3748 39.4849C22.747 38.2352 26.8225 40.0206 27.6562 40.2884V40.2884Z" fill="black" stroke="black" stroke-width="0.264583" stroke-linecap="round" stroke-linejoin="round"/>
<path id="circle1721" d="M38.9563 46.1801C40.0306 46.1801 40.9015 45.3408 40.9015 44.3055C40.9015 43.2702 40.0306 42.4308 38.9563 42.4308C37.8821 42.4308 37.0112 43.2702 37.0112 44.3055C37.0112 45.3408 37.8821 46.1801 38.9563 46.1801Z" fill="black" stroke="black" stroke-width="0.264583" stroke-miterlimit="10" stroke-linecap="round" stroke-linejoin="round"/>
<path id="path1723" d="M19.3199 44.3054C20.3388 43.1449 24.7847 41.8952 27.2856 44.5732" stroke="black" stroke-width="0.264583" stroke-linecap="round" stroke-linejoin="round"/>
<path id="path1725" d="M27.3781 44.5733C24.7846 38.503 18.4861 44.2162 17.0041 42.5201C16.9115 44.0376 18.3935 44.8411 19.2271 44.2162C19.8755 43.6806 24.3215 41.1811 27.3781 44.5733Z" fill="#5586F5" stroke="black" stroke-width="0.264583" stroke-miterlimit="10" stroke-linecap="round" stroke-linejoin="round"/>
<path id="path1727" d="M34.2324 46.0016C35.2513 38.0567 44.5138 43.145 45.9958 41.4489C46.0884 42.9665 44.6064 43.7699 43.7728 43.145C43.1244 42.6094 36.0849 41.2704 34.2324 46.0016Z" fill="#5586F5" stroke="black" stroke-width="0.264583" stroke-miterlimit="10" stroke-linecap="round" stroke-linejoin="round"/>
</g>
<g id="facial_exp-1">
<g id="gls_1636353278240">
<g id="g608">
<path id="path584" d="M27.4278 61.0056L33.7477 61.1913C33.7477 61.1913 34.4403 63.9782 30.8042 63.9782C27.0815 63.9782 27.4278 61.0056 27.4278 61.0056Z" fill="#AF4B4B" stroke="black" stroke-width="0.282128" stroke-miterlimit="10" stroke-linecap="round" stroke-linejoin="round"/>
<path id="path586" d="M28.2935 57.847C29.1593 54.5028 31.4102 53.0164 32.8819 57.6613C32.8819 57.6613 33.1417 58.2186 30.7176 58.3115C28.2935 58.4044 28.2935 57.847 28.2935 57.847Z" fill="#AF4B4B" stroke="black" stroke-width="0.282128" stroke-miterlimit="10" stroke-linecap="round" stroke-linejoin="round"/>
<path id="path588" d="M19.0301 41.8689C18.1644 42.3333 18.7704 45.3989 19.463 45.7705C21.5408 47.4426 26.2158 46.3279 27.6875 46.1421C27.6875 46.1421 27.2546 43.1694 26.3889 42.612C25.7829 42.2404 21.7139 40.0109 19.0301 41.8689V41.8689Z" fill="white" stroke="black" stroke-width="0.376171" stroke-miterlimit="10" stroke-linecap="round" stroke-linejoin="round"/>
<path id="path590" d="M34.7 42.612C33.8343 43.0765 33.4014 46.1421 33.4014 46.1421C34.8732 46.3279 38.9421 47.5356 41.6259 45.7705C42.3185 45.3989 42.838 42.8907 42.1454 41.9618C40.8468 40.7541 36.6912 41.3115 34.7 42.612Z" fill="white" stroke="black" stroke-width="0.376171" stroke-miterlimit="10" stroke-linecap="round" stroke-linejoin="round"/>
<path id="circle592" d="M37.9898 44.8416C38.4201 44.8416 38.7689 44.4673 38.7689 44.0055C38.7689 43.5438 38.4201 43.1694 37.9898 43.1694C37.5594 43.1694 37.2106 43.5438 37.2106 44.0055C37.2106 44.4673 37.5594 44.8416 37.9898 44.8416Z" fill="black" stroke="black" stroke-width="0.376171" stroke-miterlimit="10" stroke-linecap="round" stroke-linejoin="round"/>
<path id="circle594" d="M23.3588 44.9345C23.8369 44.9345 24.2245 44.5186 24.2245 44.0055C24.2245 43.4924 23.8369 43.0765 23.3588 43.0765C22.8806 43.0765 22.493 43.4924 22.493 44.0055C22.493 44.5186 22.8806 44.9345 23.3588 44.9345Z" fill="black" stroke="black" stroke-width="0.376171" stroke-miterlimit="10" stroke-linecap="round" stroke-linejoin="round"/>
<path id="path596" d="M34.1806 37.1312C33.488 37.0383 32.7088 36.5738 33.3149 35.9235C39.1153 31.929 43.6171 39.1749 43.6171 39.1749C38.3361 33.7869 34.9598 37.0383 34.1806 37.1312Z" fill="#754C24" stroke="black" stroke-width="0.376171" stroke-linecap="round" stroke-linejoin="round"/>
<path id="path598" d="M33.661 61.5629C34.0073 60.4481 32.9685 56.2678 30.5444 56.2678C28.38 56.2678 26.6486 60.8197 27.774 61.8416C28.8995 62.8635 33.3147 62.5848 33.661 61.5629V61.5629Z" fill="#C1272D" stroke="black" stroke-width="0.376171" stroke-miterlimit="10" stroke-linecap="round" stroke-linejoin="round"/>
<path id="path600" d="M17.5583 39.1749C17.5583 39.1749 22.0602 31.929 27.8607 35.9235C28.4667 36.5738 27.7741 37.1312 26.9949 37.1312C26.2158 37.0383 22.8394 33.7869 17.5583 39.1749Z" fill="#754C24" stroke="black" stroke-width="0.376171" stroke-linecap="round" stroke-linejoin="round"/>
<path id="path602" d="M33.6611 61.6558C33.8342 61.1913 33.055 60.8197 30.631 60.8197C28.4666 60.8197 26.9083 61.0055 27.774 61.7487C28.8995 62.8634 33.3148 62.5847 33.6611 61.6558Z" fill="#BC7596" stroke="black" stroke-width="0.376171" stroke-miterlimit="10" stroke-linecap="round" stroke-linejoin="round"/>
<path id="path604" d="M27.7741 46.1421C26.7352 37.8743 18.1644 42.0547 16.8658 40.3825C16.7792 41.9618 18.1644 42.7978 18.9436 42.1476C19.463 41.4973 26.2158 39.1749 27.7741 46.1421V46.1421Z" fill="black" stroke="black" stroke-width="0.376171" stroke-miterlimit="10" stroke-linecap="round" stroke-linejoin="round"/>
<path id="path606" d="M33.488 46.0492C34.0074 37.6885 43.1843 41.9617 44.5695 40.2896C44.656 41.8688 43.2708 42.7049 42.4917 42.0546C41.8856 41.4973 34.5269 39.7322 33.488 46.0492V46.0492Z" fill="black" stroke="black" stroke-width="0.376171" stroke-miterlimit="10" stroke-linecap="round" stroke-linejoin="round"/>
</g>
</g>
</g>
</g>
<g id="upper_hair_styles">
<g id="hair-5">
<path id="path797" d="M25.4524 26.7925C34.1468 20.6548 40.4526 28.8079 41.408 30.7316C42.3634 32.6554 44.2743 36.2281 41.6946 42.1825C43.8921 41.1749 46.4717 35.312 45.8029 38.335C44.5609 44.3811 42.0768 65.0844 47.5227 63.2522C44.752 61.9697 45.8985 44.9308 49.9113 41.3581C50.58 40.8084 52.9686 41.1749 53.8285 41.5413C53.8285 39.8008 53.4463 35.4952 52.682 31.4645C51.0578 22.945 38.6373 10.12 22.8728 19.0059C14.5606 17.1738 10.0701 26.8841 8.92364 34.9456C8.44593 37.877 9.21027 38.7931 9.4969 39.0679C9.4969 39.0679 13.5097 41.4497 16.1849 40.7168C21.5352 37.9686 16.8536 22.7618 25.4524 26.7925V26.7925Z" fill="#754C24" stroke="black" stroke-width="0.533434" stroke-linecap="round" stroke-linejoin="round"/>
<path id="path801" opacity="0.3" d="M20.7709 25.052C16.6626 26.7009 19.0511 39.8007 14.3696 39.3427C17.8091 38.335 15.9938 26.7925 19.7199 24.7772C23.7327 22.5786 25.0703 25.3268 25.0703 25.3268C25.0703 25.3268 23.9238 23.6779 20.7709 25.052V25.052Z" fill="black"/>
<path id="path803" opacity="0.3" d="M11.2166 38.335C11.7899 29.8156 14.8472 21.8457 22.2995 18.6395C15.6116 22.2122 13.0319 29.9072 11.2166 38.335Z" fill="black"/>
<path id="path805" opacity="0.8" d="M11.3122 39.7091C14.5606 40.3504 19.2422 40.5336 19.2422 29.7239C18.3823 39.7091 14.9428 38.335 11.3122 39.7091Z" fill="black"/>
<path id="path807" opacity="0.3" d="M44.3698 37.1441C44.752 34.7624 43.8921 15.6164 26.4078 24.6856C42.3634 18.2731 44.3698 34.9456 44.3698 37.1441Z" fill="black"/>
<path id="path809" opacity="0.3" d="M48.8603 28.8079C51.1533 32.8386 48.3826 40.7168 49.1469 40.8084C49.8157 40.9 52.0132 32.8386 48.8603 28.8079Z" fill="black"/>
<path id="path811" d="M12.2676 49.6943C12.2676 49.6943 7.20386 45.2972 7.39495 44.1979C7.58603 43.0986 8.25483 43.1902 8.25483 43.1902C8.25483 43.1902 6.91724 41.7245 6.91724 40.8084C6.91724 39.8924 8.637 40.2588 8.637 40.2588C8.637 40.2588 6.63061 37.2357 9.11471 36.6861C11.6944 36.0448 12.6498 40.2588 12.6498 40.2588C8.82808 39.5259 9.01916 46.5797 12.2676 49.6943Z" fill="#C3922E" stroke="black" stroke-width="0.355623" stroke-linecap="round" stroke-linejoin="round"/>
<path id="circle815" d="M14.1785 52.0761C14.8644 52.0761 15.4205 51.5429 15.4205 50.8852C15.4205 50.2275 14.8644 49.6943 14.1785 49.6943C13.4925 49.6943 12.9364 50.2275 12.9364 50.8852C12.9364 51.5429 13.4925 52.0761 14.1785 52.0761Z" fill="#C3922E" stroke="black" stroke-width="0.355623" stroke-linecap="round" stroke-linejoin="round"/>
<path id="path819" d="M50.9622 40.2588C51.4399 40.3504 51.8221 40.8084 52.1087 41.8161L53.1597 43.465C53.1597 43.465 53.1597 39.984 52.8731 39.6175C52.5865 39.3427 50.9622 40.3504 50.9622 40.2588Z" fill="#754C24"/>
<path id="path821" opacity="0.3" d="M27.1722 21.4793C26.5034 20.4716 25.3569 20.9297 25.3569 20.9297C25.3569 20.9297 25.3569 19.922 26.4079 19.7388C24.6881 19.4639 24.306 21.4793 24.306 21.4793C24.306 21.4793 26.0257 21.0213 27.1722 21.4793V21.4793Z" fill="black"/>
<path id="path823" opacity="0.8" d="M44.943 43.465C44.943 43.465 49.9112 32.0141 43.701 27.617C47.3316 32.2889 44.943 43.465 44.943 43.465Z" fill="black"/>
<path id="path825" opacity="0.8" d="M48.2871 36.5945C47.8093 26.0597 44.3698 18.9143 33.478 20.5632C42.6501 20.6548 46.7584 27.0673 48.2871 36.5945Z" fill="black"/>
<path id="path827" opacity="0.8" d="M10.5479 35.1288C11.3122 28.7163 13.8918 23.4031 18.1912 22.8534C14.1785 24.7772 12.1721 29.1743 10.5479 35.1288Z" fill="black"/>
<path id="path829" opacity="0.8" d="M48.4781 39.1595C53.0641 31.0981 47.3316 19.922 39.0194 19.8304C46.8539 22.487 51.3444 31.6477 48.4781 39.1595Z" fill="white"/>
<path id="path831" opacity="0.8" d="M12.3631 37.5106C11.981 31.0065 13.6052 25.052 17.7135 23.7695C14.0829 26.3345 12.8409 31.3729 12.3631 37.5106Z" fill="white"/>
<path id="path833" opacity="0.8" d="M13.1275 38.6099C15.325 39.0679 17.2358 37.419 18.5734 31.0981C17.0447 35.2204 15.325 38.2435 13.1275 38.6099Z" fill="white"/>
<path id="path835" opacity="0.8" d="M39.9749 18.3647C35.3888 15.8913 30.3251 16.4409 26.2168 19.8304C30.8028 17.357 35.8666 16.8073 39.9749 18.3647Z" fill="white"/>
<path id="path837" opacity="0.8" d="M13.3186 25.6016C13.3186 25.6016 16.376 20.38 21.9174 22.5786C15.5161 23.1282 13.7963 30.7316 14.0829 32.4722C14.0829 32.4722 14.9428 25.052 21.2486 24.0443C17.7135 25.9681 16.9492 29.9072 17.4269 31.8309C17.4269 31.8309 17.8091 24.6856 23.3505 25.1436C23.8282 25.2352 24.5926 25.6932 24.6881 25.7849C24.9747 26.0597 25.4525 26.0597 25.8346 25.8765C28.2232 22.8534 33.9557 22.8534 38.2551 24.4107C38.2551 24.4107 33.2869 20.4716 26.3123 23.3115C27.5544 18.8227 35.3889 18.6395 35.4844 18.6395C31.5672 17.7234 27.0767 19.5556 25.4525 21.7541C24.497 20.4716 25.7391 18.4563 26.0257 18.2731C26.2168 18.0898 24.9747 18.2731 24.6881 18.5479C23.4461 19.6472 23.7327 21.4793 23.7327 21.5709C16.0893 18.8227 13.3186 25.6016 13.3186 25.6016V25.6016Z" fill="black"/>
</g>
<g id="hair-4">
<path id="line4111" d="M49.8757 51.55L49.9805 61.751" stroke="black" stroke-width="0.396875" stroke-linecap="round" stroke-linejoin="round"/>
<path id="circle4113" d="M49.8755 53.0847C50.8598 53.0847 51.6577 52.3976 51.6577 51.55C51.6577 50.7025 50.8598 50.0154 49.8755 50.0154C48.8913 50.0154 48.0934 50.7025 48.0934 51.55C48.0934 52.3976 48.8913 53.0847 49.8755 53.0847Z" fill="#FBC926" stroke="black" stroke-width="0.198438" stroke-linecap="round" stroke-linejoin="round"/>
<path id="circle4115" d="M49.9805 58.3206C50.9648 58.3206 51.7627 57.6335 51.7627 56.7859C51.7627 55.9384 50.9648 55.2513 49.9805 55.2513C48.9962 55.2513 48.1983 55.9384 48.1983 56.7859C48.1983 57.6335 48.9962 58.3206 49.9805 58.3206Z" fill="#FBC926" stroke="black" stroke-width="0.198438" stroke-linecap="round" stroke-linejoin="round"/>
<path id="circle4117" d="M49.9805 63.6467C50.9648 63.6467 51.7627 62.9596 51.7627 62.1121C51.7627 61.2645 50.9648 60.5774 49.9805 60.5774C48.9962 60.5774 48.1983 61.2645 48.1983 62.1121C48.1983 62.9596 48.9962 63.6467 49.9805 63.6467Z" fill="#FBC926" stroke="black" stroke-width="0.198438" stroke-linecap="round" stroke-linejoin="round"/>
<path id="line4119" d="M11.1921 52.0014V62.2023" stroke="black" stroke-width="0.396875" stroke-linecap="round" stroke-linejoin="round"/>
<path id="circle4121" d="M11.1923 53.7166C12.1765 53.7166 12.9744 53.0295 12.9744 52.182C12.9744 51.3344 12.1765 50.6473 11.1923 50.6473C10.208 50.6473 9.4101 51.3344 9.4101 52.182C9.4101 53.0295 10.208 53.7166 11.1923 53.7166Z" fill="#FBC926" stroke="black" stroke-width="0.198438" stroke-linecap="round" stroke-linejoin="round"/>
<path id="circle4123" d="M11.297 58.9525C12.2813 58.9525 13.0792 58.2654 13.0792 57.4179C13.0792 56.5703 12.2813 55.8832 11.297 55.8832C10.3127 55.8832 9.51483 56.5703 9.51483 57.4179C9.51483 58.2654 10.3127 58.9525 11.297 58.9525Z" fill="#FBC926" stroke="black" stroke-width="0.198438" stroke-linecap="round" stroke-linejoin="round"/>
<path id="circle4125" d="M11.297 64.2786C12.2813 64.2786 13.0792 63.5915 13.0792 62.744C13.0792 61.8964 12.2813 61.2093 11.297 61.2093C10.3127 61.2093 9.51483 61.8964 9.51483 62.744C9.51483 63.5915 10.3127 64.2786 11.297 64.2786Z" fill="#FBC926" stroke="black" stroke-width="0.198438" stroke-linecap="round" stroke-linejoin="round"/>
<g id="path4127">
<path d="M11.9261 47.3974C14.6518 52.8139 13.6035 55.9734 13.6035 58.6817C16.434 63.8272 11.8213 68.702 11.8213 68.702C11.8213 68.702 21.3611 65.1814 18.7403 57.9595C18.7403 57.9595 15.5953 53.8971 13.8131 45.9531" fill="#754C24"/>
<path d="M11.9261 47.3974C14.6518 52.8139 13.6035 55.9734 13.6035 58.6817C16.434 63.8272 11.8213 68.702 11.8213 68.702C11.8213 68.702 21.3611 65.1814 18.7403 57.9595C18.7403 57.9595 15.5953 53.8971 13.8131 45.9531" stroke="black" stroke-width="0.396875" stroke-linecap="round" stroke-linejoin="round"/>
</g>
<g id="path4129">
<path d="M46.7307 45.9531C44.8437 53.8971 41.9083 57.9595 41.9083 57.9595C39.1827 65.1814 48.8273 68.702 48.8273 68.702C48.8273 68.702 44.2147 63.8272 47.0452 58.6817C47.0452 56.0637 45.9968 52.9041 48.7225 47.3974" fill="#754C24"/>
<path d="M46.7307 45.9531C44.8437 53.8971 41.9083 57.9595 41.9083 57.9595C39.1827 65.1814 48.8273 68.702 48.8273 68.702C48.8273 68.702 44.2147 63.8272 47.0452 58.6817C47.0452 56.0637 45.9968 52.9041 48.7225 47.3974" stroke="black" stroke-width="0.396875" stroke-linecap="round" stroke-linejoin="round"/>
</g>
<path id="path4131" d="M30.5863 27.6275C35.4087 28.9816 35.9328 26.2734 37.6102 26.2734C42.3276 26.3637 45.4726 30.6065 46.8355 35.2105C48.408 40.4464 46.3113 47.2169 44.4243 52.3625C41.6986 59.5844 49.037 61.119 49.037 61.119C49.037 61.119 45.892 58.2303 48.8273 53.0847C49.9805 51.0987 51.7626 44.9601 52.0771 41.8005C58.1575 36.4743 51.0288 18.239 40.231 14.6281C35.5135 13.0032 28.6993 12.0102 24.4012 14.5378C19.2643 12.4615 12.2405 18.3293 10.3535 20.857C5.42638 27.6275 4.37805 37.9187 8.78104 41.8005C8.99071 44.9601 10.8777 51.0987 12.0309 53.0847C14.8614 58.2303 11.8212 61.119 11.8212 61.119C11.8212 61.119 19.1595 59.4941 16.4339 52.3625C14.442 47.4877 12.4502 40.5366 14.1275 35.03C15.8049 29.1622 22.9335 22.4819 30.5863 27.6275Z" fill="#754C24" stroke="black" stroke-width="0.396875" stroke-linecap="round" stroke-linejoin="round"/>
<g id="path4133">
<path d="M36.7715 25.9123C39.4971 26.9956 38.7633 33.405 44.3195 37.1965C49.8756 40.988 53.9641 40.7172 53.9641 40.7172C53.9641 40.7172 47.9886 42.5226 42.4325 38.7312C36.8763 34.9397 32.8927 28.5302 30.0622 27.2664" fill="#754C24"/>
<path d="M36.7715 25.9123C39.4971 26.9956 38.7633 33.405 44.3195 37.1965C49.8756 40.988 53.9641 40.7172 53.9641 40.7172C53.9641 40.7172 47.9886 42.5226 42.4325 38.7312C36.8763 34.9397 32.8927 28.5302 30.0622 27.2664" stroke="black" stroke-width="0.396875" stroke-linecap="round" stroke-linejoin="round"/>
</g>
<path id="path4135" opacity="0.3" d="M23.2479 16.885C22.4093 14.8087 19.3691 16.7947 19.3691 16.7947C19.3691 16.7947 22.5141 15.9822 22.6189 17.4266C19.7884 17.3363 16.2241 20.9473 16.2241 20.9473C16.2241 20.9473 20.8368 18.2391 22.6189 21.3987C19.5788 21.7597 18.7401 23.2041 17.9014 25.8221C19.5788 24.3777 21.1513 22.3917 24.0866 23.5652C24.4011 22.0306 24.0866 18.9613 23.2479 16.885V16.885Z" fill="black"/>
<path id="path4137" opacity="0.3" d="M25.3447 16.5239C25.4496 14.267 29.0139 15.5308 29.0139 15.5308C29.0139 15.5308 25.6592 15.5308 26.1834 16.9752C28.8042 16.1628 33.5217 18.7807 33.5217 18.7807C33.5217 18.7807 28.1752 17.3363 27.5462 20.857C30.5864 20.4056 31.1105 24.1971 32.7879 26.5442C30.6912 25.5512 29.3284 21.4889 26.9172 23.3846C25.9737 21.7597 25.3447 18.6904 25.3447 16.5239Z" fill="black"/>
<path id="path4139" opacity="0.3" d="M45.4727 27.5373C45.4727 27.5373 49.7708 34.3981 49.037 36.4744C49.666 36.4744 50.7143 33.4953 49.7708 30.7871C50.7143 31.7801 51.553 32.3218 52.3916 36.6549C54.2786 33.7662 49.8756 25.7318 49.8756 25.7318C49.8756 25.7318 51.8675 29.9747 51.9723 32.8634C51.1336 30.6066 48.408 28.6206 48.408 28.6206C48.408 28.6206 49.9805 31.058 49.3515 33.7662C49.7708 31.8704 45.4727 27.5373 45.4727 27.5373V27.5373Z" fill="black"/>
</g>
<g id="hair-3">
<path id="path3015" d="M45.7189 17.0473C45.7189 17.0473 48.7073 21.8145 45.9 24.1099C43.3644 26.4935 31.0488 23.6684 31.0488 23.6684C31.0488 23.6684 18.7331 26.1403 16.0164 24.1099C13.5714 21.8145 16.2881 17.0473 16.2881 17.0473C16.2881 17.0473 14.3864 16.0762 14.7486 14.5754C14.9297 13.0746 17.8276 13.1629 17.8276 11.4855C17.8276 9.80819 15.292 8.92537 15.292 8.92537C15.292 8.92537 15.7448 7.51286 18.3709 7.86599C20.9065 7.95427 20.8159 6.18863 21.3592 5.3941C22.0837 4.86441 20.2726 3.54018 23.8043 2.92221C27.0643 2.21595 26.3398 2.65736 26.4304 1.5097C26.521 0.626877 29.5093 1.06829 30.7771 1.5097C32.226 1.06829 35.1238 0.626877 35.1238 1.5097C35.2144 2.39251 34.3994 2.03939 37.7499 2.92221C41.1005 3.62846 39.2894 4.95269 40.195 5.3941C40.9194 5.92379 40.6477 7.86599 43.1833 7.86599C45.7189 7.77771 46.2622 8.92537 46.2622 8.92537C46.2622 8.92537 43.7267 9.71991 43.7267 11.4855C43.7267 13.2512 46.715 12.9863 46.8056 14.5754C47.8922 15.8996 45.7189 17.0473 45.7189 17.0473V17.0473Z" fill="#754C24" stroke="black" stroke-width="0.343932" stroke-miterlimit="2.5547" stroke-linecap="round" stroke-linejoin="round"/>
<path id="path3072" opacity="0.3" d="M21.178 19.2544C21.178 19.2544 17.6463 16.9591 17.7368 15.988C17.7368 15.1052 17.2841 14.0458 17.2841 14.0458C17.2841 14.0458 17.7368 13.9575 18.0991 14.3989C18.4613 14.8403 18.0085 15.7231 18.733 16.0763C19.548 16.4294 21.8119 17.5771 21.8119 17.5771C21.8119 17.5771 20.7252 15.5466 21.0874 14.3989C21.4496 13.2512 19.8196 13.163 20.0007 11.8387C20.0913 10.5145 19.548 9.71997 19.548 9.71997C19.548 9.71997 20.6346 10.4262 20.6346 11.309C20.6346 12.1919 21.993 12.6333 22.1741 13.6927C22.3552 14.752 22.6269 16.5177 23.3513 17.2239C24.0758 17.9302 25.1625 16.7825 25.1625 16.7825C25.1625 16.7825 23.8947 13.6927 24.438 12.6333C24.9813 11.5739 24.1663 10.0731 23.3513 9.89653C22.5363 9.80825 24.2569 8.1309 23.7136 6.71839C23.1702 5.39416 22.808 4.77619 22.808 4.77619C22.808 4.77619 24.0758 5.74729 24.438 6.71839C24.8002 7.68949 23.8947 8.83715 24.8908 9.80825C25.8869 10.7794 26.883 11.4856 26.3397 12.7216C25.7964 13.8692 27.7886 16.2528 27.7886 16.2528C27.7886 16.2528 28.0603 12.9864 28.8753 12.7216C29.6903 12.4567 31.592 10.5145 29.9619 9.71997C28.3319 8.92543 27.2452 7.42464 29.328 6.54182C31.4108 5.659 29.9619 2.83398 29.9619 2.83398C29.9619 2.83398 31.9542 4.95275 31.6825 5.92385C31.4108 6.89495 29.9619 8.1309 30.5053 8.57231C31.1392 9.01372 33.4031 10.3379 32.8597 11.4856C32.407 12.6333 30.5958 13.6044 32.0447 16.1645C33.4031 18.7247 29.328 19.0778 29.328 19.0778H21.178V19.2544Z" fill="white"/>
<path id="path3074" opacity="0.3" d="M43.4548 14.4871C43.0926 14.9285 43.5454 15.8114 42.8209 16.1645C42.0965 16.5176 39.742 17.6653 39.742 17.6653C39.742 17.6653 40.8287 15.6348 40.4665 14.4871C40.1042 13.3395 41.7342 13.2512 41.5531 11.927C41.4626 10.6027 42.0059 9.8082 42.0059 9.8082C42.0059 9.8082 40.9192 10.5144 40.9192 11.3973C40.9192 12.2801 39.5609 12.7215 39.3798 13.7809C39.1987 14.8403 38.927 16.6059 38.2025 17.3122C37.4781 18.0184 36.3914 16.8707 36.3914 16.8707C36.3914 16.8707 37.6592 13.7809 37.1159 12.7215C36.5725 11.6621 37.3875 10.1613 38.2025 9.98476C39.0176 9.89648 37.297 8.21912 37.8403 6.80661C38.3837 5.48238 38.7459 4.86441 38.7459 4.86441C38.7459 4.86441 37.4781 5.83551 37.1159 6.80661C36.7537 7.77771 37.6592 8.92538 36.6631 9.89648C35.667 10.8676 34.6708 11.5738 35.2142 12.8098C35.5764 13.6043 34.852 14.8403 34.3086 15.6348V19.1661H40.557C40.557 19.1661 44.0887 16.8707 43.9982 15.8996C43.9982 15.0168 44.4509 13.9574 44.4509 13.9574C44.4509 13.9574 43.817 14.0457 43.4548 14.4871Z" fill="white"/>
<path id="path3076" d="M49.6128 40.7951C49.6128 40.7951 48.1639 40.7952 47.0772 39.2944C46.0811 37.7936 46.0811 36.8225 44.5416 36.1162C43.0022 35.0568 44.0888 34.4389 43.0022 33.6443C42.0061 32.8498 41.9155 33.4678 40.4666 33.4678C39.0177 33.3795 37.931 31.4373 37.3877 30.9959C36.8443 30.4662 35.1238 30.5545 34.1277 30.5545C32.6787 30.5545 30.9582 29.0537 30.9582 29.0537C30.9582 29.0537 29.2376 30.5545 27.7887 30.5545C26.2493 30.5545 25.1626 30.3779 24.5287 30.9959C23.8948 31.6138 22.8987 33.4678 21.5403 33.4678C20.0914 33.556 20.0009 33.0263 19.0047 33.6443C17.9181 34.174 18.8236 35.1451 17.4653 36.1162C15.9258 37.1756 15.9258 38.1467 14.9297 39.2944C13.9336 40.7952 12.3941 40.7951 12.3941 40.7951C6.59853 35.8514 11.9414 20.1372 21.812 16.8708C26.1587 15.37 29.1471 15.2817 30.8676 16.3411C32.4976 15.37 35.486 15.5465 39.9233 16.8708C50.0656 20.402 55.4989 35.8514 49.6128 40.7951V40.7951Z" fill="#754C24" stroke="black" stroke-width="0.343932" stroke-miterlimit="2.5547" stroke-linecap="round" stroke-linejoin="round"/>
<path id="path3088" opacity="0.3" d="M49.8844 40.442C49.8844 40.442 50.5183 35.3216 50.2467 34.2623C49.975 33.1146 47.8016 27.1997 46.4433 26.7583C45.085 26.3169 44.0888 24.463 43.0022 22.7856C41.9155 21.1083 34.0371 19.3426 33.5843 18.9012C33.1315 18.4598 31.6826 18.9012 31.9543 19.3426C32.1354 19.6958 35.0332 21.1965 37.2066 21.7262C39.4705 22.2559 42.3683 24.463 42.6399 25.7872C42.9116 27.1114 45.6283 28.4357 46.715 29.5833C47.7111 30.731 49.3411 34.4388 49.4317 36.6459C49.5222 38.6764 48.7072 40.442 48.6166 40.6186C48.6166 40.3537 49.16 37.4404 48.8883 36.5576C48.6167 35.5865 47.0772 30.9076 45.9905 30.0247C44.9038 29.2302 41.8249 27.3763 41.8249 26.4052C41.8249 25.4341 38.6555 22.6973 36.9349 22.4325C35.2143 22.1676 32.3165 20.5786 32.226 21.1083C32.1354 21.638 31.6826 22.6973 33.1315 23.3153C34.5804 23.9333 37.3877 27.6411 39.4705 28.5239C41.5533 29.4068 43.4549 32.2318 45.085 32.8497C46.715 33.4677 46.9866 38.1467 46.9866 38.1467C46.9866 38.1467 45.9 34.174 45.085 33.6443C44.2699 33.1146 40.0138 29.6716 39.2893 29.495C38.5649 29.2302 34.671 26.9349 33.4032 25.4341C32.1354 23.9333 31.8637 27.5528 32.6787 27.9942C33.4937 28.3474 37.5688 30.5544 37.5688 30.5544C37.5688 30.5544 34.0371 29.5833 33.1315 29.2302C32.226 28.7888 32.226 29.495 32.226 29.495L30.8676 28.7005L29.5093 29.495C29.5093 29.495 29.5093 28.8771 28.6037 29.2302C27.6981 29.6716 24.1664 30.5544 24.1664 30.5544C24.1664 30.5544 28.2415 28.4357 29.0565 27.9942C29.8715 27.6411 29.5998 23.9333 28.332 25.4341C27.0642 26.9349 23.1703 29.3185 22.4459 29.495C21.7214 29.7599 17.4653 33.1146 16.6503 33.6443C15.8353 34.174 14.7486 38.1467 14.7486 38.1467C14.7486 38.1467 15.0203 33.3794 16.6503 32.8497C18.2803 32.2318 20.0914 29.4068 22.2648 28.5239C24.4381 27.6411 27.1548 23.9333 28.6037 23.3153C30.0526 22.6973 29.5998 21.638 29.5093 21.1083C29.4187 20.5786 26.5209 22.1676 24.8003 22.4325C23.0798 22.6973 19.9103 25.4341 19.9103 26.4052C19.9103 27.3763 16.8314 29.2302 15.7447 30.0247C14.658 30.9076 13.1186 35.5865 12.8469 36.5576C12.5752 37.4404 13.028 40.3537 13.1186 40.6186C13.028 40.442 12.213 38.6764 12.3036 36.6459C12.3941 34.5271 14.0241 30.8193 15.0203 29.5833C16.0164 28.4357 18.7331 27.1997 19.0953 25.7872C19.367 24.463 22.2648 22.2559 24.5287 21.7262C26.7926 21.1965 29.5998 19.6958 29.7809 19.3426C29.962 18.9895 28.5132 18.4598 28.0604 18.9012C27.6076 19.3426 19.8197 21.1083 18.7331 22.7856C17.6464 24.463 16.5597 26.3169 15.2919 26.7583C13.9336 27.1997 11.7602 33.1146 11.4886 34.2623C11.2169 35.3216 11.7602 39.9123 11.8508 40.442C11.7602 40.0006 10.8547 36.6459 11.0358 34.3505C11.1263 31.8786 13.2091 26.7583 15.3825 25.6106C17.4653 24.463 17.0125 22.8739 19.7292 20.8434C22.5364 18.8129 26.5209 18.9895 27.6981 18.1067C28.8754 17.2239 29.8715 18.7246 30.0526 18.1067C30.2337 17.577 29.3282 16.5176 29.2376 16.4293L30.9582 16.959L32.6787 16.4293C32.5882 16.5176 31.6826 17.577 31.8637 18.1067C32.0448 18.7246 33.041 17.2239 34.2182 18.1067C35.3954 18.9895 39.4705 18.8129 42.1872 20.8434C44.9944 22.8739 44.4511 24.463 46.5339 25.6106C48.6166 26.7583 50.6994 31.7904 50.8806 34.3505C50.8806 36.8224 49.8844 40.442 49.8844 40.442V40.442Z" fill="white"/>
<path id="path3090" d="M48.6166 49.7999C45.6283 52.2718 44.8132 55.4499 45.9905 56.9507C46.1716 57.2155 46.8055 58.0101 48.6166 58.0984C50.4277 57.9218 51.0616 57.1273 51.2427 56.9507C52.3294 55.4499 51.605 52.36 48.6166 49.7999V49.7999ZM50.0655 55.5382C49.975 55.7148 49.6127 56.3327 48.6166 56.421C47.6205 56.3327 47.2583 55.7148 47.1677 55.5382C46.5338 54.3905 46.9866 52.0952 48.6166 50.153C50.2466 52.0952 50.6994 54.4788 50.0655 55.5382Z" fill="#EAC03B" stroke="black" stroke-width="0.264583" stroke-miterlimit="6.3866" stroke-linecap="round" stroke-linejoin="round"/>
<path id="path3092" d="M15.8352 49.7999C12.8469 52.2718 12.0319 55.4499 13.2091 56.9507C13.3902 57.2155 14.0241 58.0101 15.8352 58.0984C17.6464 57.9218 18.2803 57.1273 18.4614 56.9507C19.6386 55.4499 18.8236 52.36 15.8352 49.7999V49.7999ZM17.2841 55.5382C17.1936 55.7148 16.8314 56.3327 15.8352 56.421C14.8391 56.3327 14.4769 55.7148 14.3863 55.5382C13.7524 54.3905 14.2052 52.0952 15.8352 50.153C17.5558 52.0952 17.918 54.4788 17.2841 55.5382Z" fill="#EAC03B" stroke="black" stroke-width="0.264583" stroke-miterlimit="6.3866" stroke-linecap="round" stroke-linejoin="round"/>
<path id="circle3094" d="M48.6166 51.2125C49.3668 51.2125 49.975 50.6196 49.975 49.8882C49.975 49.1569 49.3668 48.564 48.6166 48.564C47.8664 48.564 47.2583 49.1569 47.2583 49.8882C47.2583 50.6196 47.8664 51.2125 48.6166 51.2125Z" fill="#EAC03B" stroke="black" stroke-width="0.264583" stroke-miterlimit="6.3866" stroke-linecap="round" stroke-linejoin="round"/>
<path id="circle3096" d="M15.8353 51.2125C16.5855 51.2125 17.1936 50.6196 17.1936 49.8882C17.1936 49.1569 16.5855 48.564 15.8353 48.564C15.0851 48.564 14.4769 49.1569 14.4769 49.8882C14.4769 50.6196 15.0851 51.2125 15.8353 51.2125Z" fill="#EAC03B" stroke="black" stroke-width="0.264583" stroke-miterlimit="6.3866" stroke-linecap="round" stroke-linejoin="round"/>
</g>
<g id="hair-2">
<path id="line1735" d="M46.6609 49.9772L46.7487 56.7465" stroke="black" stroke-width="0.264583" stroke-linecap="round" stroke-linejoin="round"/>
<path id="path1737" d="M46.7487 53.32C46.7487 53.32 48.0666 56.0779 48.0666 56.7464C48.0666 57.415 47.4516 58 46.7487 58C46.0458 58 45.4308 57.415 45.4308 56.7464C45.4308 56.0779 46.7487 53.32 46.7487 53.32Z" fill="#FBC926" stroke="black" stroke-width="0.264583" stroke-linecap="round" stroke-linejoin="round"/>
<path id="path1739" d="M26.8922 27.9981C17.2276 25.1567 16.964 39.8652 13.9767 41.2859C10.9895 42.7066 8.00221 40.283 9.32012 39.1966C10.638 38.1102 10.9895 24.906 16.4368 19.4739C20.3906 15.5461 26.0136 16.6325 26.0136 16.6325C26.0136 16.6325 32.9546 13.4568 39.3684 15.9639C49.736 20.0589 51.8446 37.943 53.4261 38.6952C54.9198 39.4473 53.6019 42.4558 48.2424 41.453C43.7615 40.7009 43.3222 20.8946 26.8922 27.9981V27.9981Z" fill="black" stroke="black" stroke-width="0.396875" stroke-linecap="round" stroke-linejoin="round"/>
<path id="path1741" opacity="0.3" d="M28.0344 18.3874C28.0344 18.3874 32.691 15.4625 37.3477 17.301C29.6159 16.716 29.1766 22.3152 29.1766 22.3152C29.1766 22.3152 34.1847 18.5546 39.5442 22.0645C33.7454 19.3903 30.0552 23.4017 30.0552 23.4017C30.0552 23.4017 38.6656 22.8167 42.8829 29.0009C38.2263 23.6524 30.3188 23.9031 28.1223 26.0759C26.7165 27.4966 28.1223 19.8917 28.0344 18.3874Z" fill="black"/>
<path id="path1743" opacity="0.3" d="M26.5409 20.0589C26.5409 20.0589 23.2022 17.9696 20.215 19.641C25.3987 18.8053 25.9259 22.3989 25.9259 22.3989C25.9259 22.3989 21.6207 21.0617 19.0728 22.7331C22.8508 21.396 25.4866 23.3181 25.4866 23.3181C25.4866 23.3181 19.6878 23.3181 17.3156 28.4995C20.0392 23.9031 24.6958 23.6524 26.2773 25.4074C27.2438 26.4938 26.5409 21.396 26.5409 20.0589V20.0589Z" fill="black"/>
<path id="path1745" opacity="0.3" d="M43.8493 30.0874C46.2215 38.1938 48.9452 41.2859 52.196 39.7816C48.1544 39.9487 45.9579 35.1016 43.8493 30.0874V30.0874Z" fill="black"/>
<path id="path1747" opacity="0.3" d="M16.7003 30.5888C16.4368 33.2631 13.9767 42.9573 11.0773 40.1159C13.1859 40.6173 15.031 37.1909 16.7003 30.5888Z" fill="black"/>
<path id="path1749" opacity="0.3" d="M34.7119 19.8081C47.1002 18.471 47.6274 36.3551 51.3175 37.0237C48.0667 35.3523 47.0123 16.716 34.7119 19.8081Z" fill="black"/>
<path id="path1751" opacity="0.3" d="M22.5872 20.811C13.3618 19.8082 14.504 37.7759 10.726 38.3609C14.0647 36.5223 13.0104 18.3875 22.5872 20.811Z" fill="black"/>
<path id="line1753" d="M15.0312 49.9772L15.119 56.7465" stroke="black" stroke-width="0.264583" stroke-linecap="round" stroke-linejoin="round"/>
<path id="path1755" d="M15.119 53.32C15.119 53.32 16.4369 56.0779 16.4369 56.7464C16.4369 57.415 15.8219 58 15.119 58C14.4161 58 13.8011 57.415 13.8011 56.7464C13.8011 56.0779 15.119 53.32 15.119 53.32Z" fill="#FBC926" stroke="black" stroke-width="0.264583" stroke-linecap="round" stroke-linejoin="round"/>
</g>
<g id="hair-1">
<path id="path280" d="M45.8277 64.7355C52.9412 57.3536 53.5715 36.4997 49.4294 26.811C46.458 20.1673 41.4155 15 31.1504 15C20.8854 15 16.023 19.5214 13.0515 26.1651C8.9095 35.6693 7.73892 54.0317 17.6438 64.92L45.8277 64.7355ZM31.6007 64.0895C26.7383 64.0895 16.2931 56.3386 16.7433 46.2807C17.2836 32.532 24.8473 26.9033 31.6007 26.9033C38.354 26.9033 45.9177 35.3002 45.9177 46.2807C45.8277 54.5854 36.463 63.9973 31.6007 64.0895Z" fill="#58646D" stroke="black" stroke-width="0.396875" stroke-miterlimit="10" stroke-linecap="round" stroke-linejoin="round"/>
<path id="ellipse282" d="M14.3121 45.9116C15.058 45.9116 15.6628 44.6309 15.6628 43.0511C15.6628 41.4713 15.058 40.1906 14.3121 40.1906C13.5661 40.1906 12.9614 41.4713 12.9614 43.0511C12.9614 44.6309 13.5661 45.9116 14.3121 45.9116Z" fill="#A0977F" stroke="black" stroke-width="0.264583" stroke-miterlimit="10" stroke-linecap="round" stroke-linejoin="round"/>
<path id="path284" opacity="0.3" d="M50.5998 53.0167C46.5478 66.6732 26.3779 66.8577 26.3779 66.8577C26.3779 66.8577 25.8376 71.8405 37.6334 69.2568C29.6195 69.5336 29.6195 68.1495 29.6195 68.1495C29.6195 68.1495 48.5288 66.0272 50.5998 53.0167V53.0167Z" fill="black"/>
<path id="path286" opacity="0.3" d="M14.5823 39.7293C14.5823 39.7293 13.6819 37.4225 14.5823 34.6543C12.4213 37.4225 13.7719 39.8216 13.4118 39.7293C13.0516 39.637 12.5113 39.4525 12.4213 37.7916C11.3407 39.2679 13.2317 41.8516 13.2317 41.8516L14.5823 39.7293Z" fill="black"/>
<path id="path288" opacity="0.3" d="M13.1415 45.3581C13.1415 45.3581 12.061 46.5576 10.4402 45.9117C12.3311 47.8494 13.4116 46.1885 13.4116 46.5576C13.4116 46.9267 13.5017 47.4804 12.6012 47.7572C13.5917 48.6799 14.5822 46.4653 14.5822 46.4653L13.1415 45.3581Z" fill="black"/>
<path id="path290" opacity="0.3" d="M22.3261 25.8882C29.0794 22.4741 45.2874 21.6437 48.619 41.5747C48.1688 28.1028 35.0224 17.3991 22.3261 25.8882V25.8882Z" fill="black"/>
<path id="path292" opacity="0.3" d="M23.1364 22.5665C31.9608 17.5837 51.0501 21.2747 49.4294 46.4654C52.6709 24.8733 35.9227 14.0773 23.1364 22.5665V22.5665Z" fill="black"/>
<path id="path294" opacity="0.3" d="M12.8715 35.8539C13.5018 34.1007 15.6628 16.3841 35.4726 18.4142C16.2931 14.6309 12.5113 31.6093 12.8715 35.8539Z" fill="black"/>
</g>
</g>
</g>
</svg>
