<svg width="49" height="49" viewBox="0 0 49 49" fill="none" xmlns="http://www.w3.org/2000/svg">
<g id="hair-5">
<path id="path797" d="M19.4524 11.7925C28.1468 5.65485 34.4526 13.8079 35.408 15.7316C36.3634 17.6554 38.2743 21.2281 35.6946 27.1825C37.8921 26.1749 40.4717 20.312 39.8029 23.335C38.5609 29.3811 36.0768 50.0844 41.5227 48.2522C38.752 46.9697 39.8985 29.9308 43.9113 26.3581C44.58 25.8084 46.9686 26.1749 47.8285 26.5413C47.8285 24.8008 47.4463 20.4952 46.682 16.4645C45.0578 7.94503 32.6373 -4.87998 16.8728 4.00592C8.56064 2.17378 4.07015 11.8841 2.92364 19.9456C2.44593 22.877 3.21027 23.7931 3.4969 24.0679C3.4969 24.0679 7.50967 26.4497 10.1849 25.7168C15.5352 22.9686 10.8536 7.76182 19.4524 11.7925V11.7925Z" fill="#754C24" stroke="black" stroke-width="0.533434" stroke-linecap="round" stroke-linejoin="round"/>
<path id="path801" opacity="0.3" d="M14.7709 10.052C10.6626 11.7009 13.0511 24.8007 8.36957 24.3427C11.8091 23.335 9.99378 11.7925 13.7199 9.77716C17.7327 7.57859 19.0703 10.3268 19.0703 10.3268C19.0703 10.3268 17.9238 8.67787 14.7709 10.052V10.052Z" fill="black"/>
<path id="path803" opacity="0.3" d="M5.21661 23.335C5.78987 14.8156 8.84722 6.84575 16.2995 3.6395C9.61156 7.21218 7.03192 14.9072 5.21661 23.335Z" fill="black"/>
<path id="path805" opacity="0.8" d="M5.31219 24.7091C8.56063 25.3504 13.2422 25.5336 13.2422 14.7239C12.3823 24.7091 8.9428 23.335 5.31219 24.7091Z" fill="black"/>
<path id="path807" opacity="0.3" d="M38.3698 22.1441C38.752 19.7624 37.8921 0.61644 20.4078 9.68556C36.3634 3.27305 38.3698 19.9456 38.3698 22.1441Z" fill="black"/>
<path id="path809" opacity="0.3" d="M42.8603 13.8079C45.1533 17.8386 42.3826 25.7168 43.1469 25.8084C43.8157 25.9 46.0132 17.8386 42.8603 13.8079Z" fill="black"/>
<path id="path811" d="M6.2676 34.6943C6.2676 34.6943 1.20386 30.2972 1.39495 29.1979C1.58603 28.0986 2.25483 28.1902 2.25483 28.1902C2.25483 28.1902 0.917236 26.7245 0.917236 25.8084C0.917236 24.8924 2.637 25.2588 2.637 25.2588C2.637 25.2588 0.630613 22.2357 3.11471 21.6861C5.69435 21.0448 6.64977 25.2588 6.64977 25.2588C2.82808 24.5259 3.01916 31.5797 6.2676 34.6943Z" fill="#C3922E" stroke="black" stroke-width="0.355623" stroke-linecap="round" stroke-linejoin="round"/>
<path id="circle815" d="M8.17846 37.0761C8.86442 37.0761 9.42051 36.5429 9.42051 35.8852C9.42051 35.2275 8.86442 34.6943 8.17846 34.6943C7.49249 34.6943 6.9364 35.2275 6.9364 35.8852C6.9364 36.5429 7.49249 37.0761 8.17846 37.0761Z" fill="#C3922E" stroke="black" stroke-width="0.355623" stroke-linecap="round" stroke-linejoin="round"/>
<path id="path819" d="M44.9622 25.2588C45.4399 25.3504 45.8221 25.8084 46.1087 26.8161L47.1597 28.465C47.1597 28.465 47.1597 24.984 46.8731 24.6175C46.5865 24.3427 44.9622 25.3504 44.9622 25.2588Z" fill="#754C24"/>
<path id="path821" opacity="0.3" d="M21.1722 6.47931C20.5034 5.47163 19.3569 5.92966 19.3569 5.92966C19.3569 5.92966 19.3569 4.92198 20.4079 4.73877C18.6881 4.46394 18.306 6.47931 18.306 6.47931C18.306 6.47931 20.0257 6.02127 21.1722 6.47931V6.47931Z" fill="black"/>
<path id="path823" opacity="0.8" d="M38.943 28.465C38.943 28.465 43.9112 17.0141 37.701 12.617C41.3316 17.2889 38.943 28.465 38.943 28.465Z" fill="black"/>
<path id="path825" opacity="0.8" d="M42.2871 21.5945C41.8093 11.0597 38.3698 3.9143 27.478 5.56323C36.6501 5.65484 40.7584 12.0673 42.2871 21.5945Z" fill="black"/>
<path id="path827" opacity="0.8" d="M4.54785 20.1288C5.31219 13.7163 7.89183 8.40307 12.1912 7.85342C8.17846 9.77718 6.17207 14.1743 4.54785 20.1288Z" fill="black"/>
<path id="path829" opacity="0.8" d="M42.4781 24.1595C47.0641 16.0981 41.3316 4.92199 33.0194 4.83038C40.8539 7.48699 45.3444 16.6477 42.4781 24.1595Z" fill="white"/>
<path id="path831" opacity="0.8" d="M6.36315 22.5106C5.98098 16.0065 7.6052 10.052 11.7135 8.7695C8.08291 11.3345 6.84086 16.3729 6.36315 22.5106Z" fill="white"/>
<path id="path833" opacity="0.8" d="M7.1275 23.6099C9.32498 24.0679 11.2358 22.419 12.5734 16.0981C11.0447 20.2204 9.32498 23.2435 7.1275 23.6099Z" fill="white"/>
<path id="path835" opacity="0.8" d="M33.9749 3.36466C29.3888 0.891258 24.3251 1.4409 20.2168 4.83037C24.8028 2.35698 29.8666 1.80733 33.9749 3.36466Z" fill="white"/>
<path id="path837" opacity="0.8" d="M7.3186 10.6016C7.3186 10.6016 10.376 5.38003 15.9174 7.5786C9.51607 8.12824 7.79631 15.7316 8.08294 17.4722C8.08294 17.4722 8.94282 10.052 15.2486 9.04431C11.7135 10.9681 10.9492 14.9072 11.4269 16.8309C11.4269 16.8309 11.8091 9.68557 17.3505 10.1436C17.8282 10.2352 18.5926 10.6932 18.6881 10.7849C18.9747 11.0597 19.4525 11.0597 19.8346 10.8765C22.2232 7.85342 27.9557 7.85342 32.2551 9.41074C32.2551 9.41074 27.2869 5.47163 20.3123 8.31146C21.5544 3.8227 29.3889 3.63949 29.4844 3.63949C25.5672 2.72342 21.0767 4.55556 19.4525 6.75413C18.497 5.47163 19.7391 3.45627 20.0257 3.27306C20.2168 3.08985 18.9747 3.27306 18.6881 3.54788C17.4461 4.64717 17.7327 6.47931 17.7327 6.57092C10.0893 3.8227 7.3186 10.6016 7.3186 10.6016V10.6016Z" fill="black"/>
</g>
</svg>
