<svg width="44" height="59" viewBox="0 0 44 59" fill="none" xmlns="http://www.w3.org/2000/svg">
<g id="hair-3">
<path id="path3015" d="M36.7189 17.0473C36.7189 17.0473 39.7073 21.8145 36.9 24.1099C34.3644 26.4935 22.0488 23.6684 22.0488 23.6684C22.0488 23.6684 9.73312 26.1403 7.01643 24.1099C4.57141 21.8145 7.2881 17.0473 7.2881 17.0473C7.2881 17.0473 5.38641 16.0762 5.74864 14.5754C5.92975 13.0746 8.82755 13.1629 8.82755 11.4855C8.82755 9.80819 6.29197 8.92537 6.29197 8.92537C6.29197 8.92537 6.74476 7.51286 9.37089 7.86599C11.9065 7.95427 11.8159 6.18863 12.3592 5.3941C13.0837 4.86441 11.2726 3.54018 14.8043 2.92221C18.0643 2.21595 17.3398 2.65736 17.4304 1.5097C17.521 0.626877 20.5093 1.06829 21.7771 1.5097C23.226 1.06829 26.1238 0.626877 26.1238 1.5097C26.2144 2.39251 25.3994 2.03939 28.7499 2.92221C32.1005 3.62846 30.2894 4.95269 31.195 5.3941C31.9194 5.92379 31.6477 7.86599 34.1833 7.86599C36.7189 7.77771 37.2622 8.92537 37.2622 8.92537C37.2622 8.92537 34.7267 9.71991 34.7267 11.4855C34.7267 13.2512 37.715 12.9863 37.8056 14.5754C38.8922 15.8996 36.7189 17.0473 36.7189 17.0473V17.0473Z" fill="#754C24" stroke="black" stroke-width="0.343932" stroke-miterlimit="2.5547" stroke-linecap="round" stroke-linejoin="round"/>
<path id="path3072" opacity="0.3" d="M12.178 19.2544C12.178 19.2544 8.64628 16.9591 8.73684 15.988C8.73684 15.1052 8.28406 14.0458 8.28406 14.0458C8.28406 14.0458 8.73684 13.9575 9.09907 14.3989C9.46129 14.8403 9.00851 15.7231 9.73296 16.0763C10.548 16.4294 12.8119 17.5771 12.8119 17.5771C12.8119 17.5771 11.7252 15.5466 12.0874 14.3989C12.4496 13.2512 10.8196 13.163 11.0007 11.8387C11.0913 10.5145 10.548 9.71997 10.548 9.71997C10.548 9.71997 11.6346 10.4262 11.6346 11.309C11.6346 12.1919 12.993 12.6333 13.1741 13.6927C13.3552 14.752 13.6269 16.5177 14.3513 17.2239C15.0758 17.9302 16.1625 16.7825 16.1625 16.7825C16.1625 16.7825 14.8947 13.6927 15.438 12.6333C15.9813 11.5739 15.1663 10.0731 14.3513 9.89653C13.5363 9.80825 15.2569 8.1309 14.7136 6.71839C14.1702 5.39416 13.808 4.77619 13.808 4.77619C13.808 4.77619 15.0758 5.74729 15.438 6.71839C15.8002 7.68949 14.8947 8.83715 15.8908 9.80825C16.8869 10.7794 17.883 11.4856 17.3397 12.7216C16.7964 13.8692 18.7886 16.2528 18.7886 16.2528C18.7886 16.2528 19.0603 12.9864 19.8753 12.7216C20.6903 12.4567 22.592 10.5145 20.9619 9.71997C19.3319 8.92543 18.2452 7.42464 20.328 6.54182C22.4108 5.659 20.9619 2.83398 20.9619 2.83398C20.9619 2.83398 22.9542 4.95275 22.6825 5.92385C22.4108 6.89495 20.9619 8.1309 21.5053 8.57231C22.1392 9.01372 24.4031 10.3379 23.8597 11.4856C23.407 12.6333 21.5958 13.6044 23.0447 16.1645C24.4031 18.7247 20.328 19.0778 20.328 19.0778H12.178V19.2544Z" fill="white"/>
<path id="path3074" opacity="0.3" d="M34.4548 14.4871C34.0926 14.9285 34.5454 15.8114 33.8209 16.1645C33.0965 16.5176 30.742 17.6653 30.742 17.6653C30.742 17.6653 31.8287 15.6348 31.4665 14.4871C31.1042 13.3395 32.7342 13.2512 32.5531 11.927C32.4626 10.6027 33.0059 9.8082 33.0059 9.8082C33.0059 9.8082 31.9192 10.5144 31.9192 11.3973C31.9192 12.2801 30.5609 12.7215 30.3798 13.7809C30.1987 14.8403 29.927 16.6059 29.2025 17.3122C28.4781 18.0184 27.3914 16.8707 27.3914 16.8707C27.3914 16.8707 28.6592 13.7809 28.1159 12.7215C27.5725 11.6621 28.3875 10.1613 29.2025 9.98476C30.0176 9.89648 28.297 8.21912 28.8403 6.80661C29.3837 5.48238 29.7459 4.86441 29.7459 4.86441C29.7459 4.86441 28.4781 5.83551 28.1159 6.80661C27.7537 7.77771 28.6592 8.92538 27.6631 9.89648C26.667 10.8676 25.6708 11.5738 26.2142 12.8098C26.5764 13.6043 25.852 14.8403 25.3086 15.6348V19.1661H31.557C31.557 19.1661 35.0887 16.8707 34.9982 15.8996C34.9982 15.0168 35.4509 13.9574 35.4509 13.9574C35.4509 13.9574 34.817 14.0457 34.4548 14.4871Z" fill="white"/>
<path id="path3076" d="M40.6128 40.7951C40.6128 40.7951 39.1639 40.7952 38.0772 39.2944C37.0811 37.7936 37.0811 36.8225 35.5416 36.1162C34.0022 35.0568 35.0888 34.4389 34.0022 33.6443C33.0061 32.8498 32.9155 33.4678 31.4666 33.4678C30.0177 33.3795 28.931 31.4373 28.3877 30.9959C27.8443 30.4662 26.1238 30.5545 25.1277 30.5545C23.6787 30.5545 21.9582 29.0537 21.9582 29.0537C21.9582 29.0537 20.2376 30.5545 18.7887 30.5545C17.2493 30.5545 16.1626 30.3779 15.5287 30.9959C14.8948 31.6138 13.8987 33.4678 12.5403 33.4678C11.0914 33.556 11.0009 33.0263 10.0047 33.6443C8.91807 34.174 9.82363 35.1451 8.46529 36.1162C6.92583 37.1756 6.92584 38.1467 5.92972 39.2944C4.9336 40.7952 3.39414 40.7951 3.39414 40.7951C-2.40147 35.8514 2.94136 20.1372 12.812 16.8708C17.1587 15.37 20.1471 15.2817 21.8676 16.3411C23.4976 15.37 26.486 15.5465 30.9233 16.8708C41.0656 20.402 46.4989 35.8514 40.6128 40.7951V40.7951Z" fill="#754C24" stroke="black" stroke-width="0.343932" stroke-miterlimit="2.5547" stroke-linecap="round" stroke-linejoin="round"/>
<path id="path3088" opacity="0.3" d="M40.8844 40.442C40.8844 40.442 41.5183 35.3216 41.2467 34.2623C40.975 33.1146 38.8016 27.1997 37.4433 26.7583C36.085 26.3169 35.0888 24.463 34.0022 22.7856C32.9155 21.1083 25.0371 19.3426 24.5843 18.9012C24.1315 18.4598 22.6826 18.9012 22.9543 19.3426C23.1354 19.6958 26.0332 21.1965 28.2066 21.7262C30.4705 22.2559 33.3683 24.463 33.6399 25.7872C33.9116 27.1114 36.6283 28.4357 37.715 29.5833C38.7111 30.731 40.3411 34.4388 40.4317 36.6459C40.5222 38.6764 39.7072 40.442 39.6166 40.6186C39.6166 40.3537 40.16 37.4404 39.8883 36.5576C39.6167 35.5865 38.0772 30.9076 36.9905 30.0247C35.9038 29.2302 32.8249 27.3763 32.8249 26.4052C32.8249 25.4341 29.6555 22.6973 27.9349 22.4325C26.2143 22.1676 23.3165 20.5786 23.226 21.1083C23.1354 21.638 22.6826 22.6973 24.1315 23.3153C25.5804 23.9333 28.3877 27.6411 30.4705 28.5239C32.5533 29.4068 34.4549 32.2318 36.085 32.8497C37.715 33.4677 37.9866 38.1467 37.9866 38.1467C37.9866 38.1467 36.9 34.174 36.085 33.6443C35.2699 33.1146 31.0138 29.6716 30.2893 29.495C29.5649 29.2302 25.671 26.9349 24.4032 25.4341C23.1354 23.9333 22.8637 27.5528 23.6787 27.9942C24.4937 28.3474 28.5688 30.5544 28.5688 30.5544C28.5688 30.5544 25.0371 29.5833 24.1315 29.2302C23.226 28.7888 23.226 29.495 23.226 29.495L21.8676 28.7005L20.5093 29.495C20.5093 29.495 20.5093 28.8771 19.6037 29.2302C18.6981 29.6716 15.1664 30.5544 15.1664 30.5544C15.1664 30.5544 19.2415 28.4357 20.0565 27.9942C20.8715 27.6411 20.5998 23.9333 19.332 25.4341C18.0642 26.9349 14.1703 29.3185 13.4459 29.495C12.7214 29.7599 8.46528 33.1146 7.65027 33.6443C6.83526 34.174 5.74859 38.1467 5.74859 38.1467C5.74859 38.1467 6.02026 33.3794 7.65027 32.8497C9.28028 32.2318 11.0914 29.4068 13.2648 28.5239C15.4381 27.6411 18.1548 23.9333 19.6037 23.3153C21.0526 22.6973 20.5998 21.638 20.5093 21.1083C20.4187 20.5786 17.5209 22.1676 15.8003 22.4325C14.0798 22.6973 10.9103 25.4341 10.9103 26.4052C10.9103 27.3763 7.83138 29.2302 6.74471 30.0247C5.65803 30.9076 4.11858 35.5865 3.84691 36.5576C3.57524 37.4404 4.02802 40.3537 4.11858 40.6186C4.02802 40.442 3.21302 38.6764 3.30357 36.6459C3.39413 34.5271 5.02414 30.8193 6.02026 29.5833C7.01638 28.4357 9.73307 27.1997 10.0953 25.7872C10.367 24.463 13.2648 22.2559 15.5287 21.7262C17.7926 21.1965 20.5998 19.6958 20.7809 19.3426C20.962 18.9895 19.5132 18.4598 19.0604 18.9012C18.6076 19.3426 10.8197 21.1083 9.73307 22.7856C8.64639 24.463 7.55971 26.3169 6.29193 26.7583C4.93358 27.1997 2.76023 33.1146 2.48856 34.2623C2.2169 35.3216 2.76023 39.9123 2.85079 40.442C2.76023 40.0006 1.85467 36.6459 2.03578 34.3505C2.12634 31.8786 4.20914 26.7583 6.38249 25.6106C8.46528 24.463 8.0125 22.8739 10.7292 20.8434C13.5364 18.8129 17.5209 18.9895 18.6981 18.1067C19.8754 17.2239 20.8715 18.7246 21.0526 18.1067C21.2337 17.577 20.3282 16.5176 20.2376 16.4293L21.9582 16.959L23.6787 16.4293C23.5882 16.5176 22.6826 17.577 22.8637 18.1067C23.0448 18.7246 24.041 17.2239 25.2182 18.1067C26.3954 18.9895 30.4705 18.8129 33.1872 20.8434C35.9944 22.8739 35.4511 24.463 37.5339 25.6106C39.6166 26.7583 41.6994 31.7904 41.8806 34.3505C41.8806 36.8224 40.8844 40.442 40.8844 40.442V40.442Z" fill="white"/>
<path id="path3090" d="M39.6166 49.7999C36.6283 52.2718 35.8132 55.4499 36.9905 56.9507C37.1716 57.2155 37.8055 58.0101 39.6166 58.0984C41.4277 57.9218 42.0616 57.1273 42.2427 56.9507C43.3294 55.4499 42.605 52.36 39.6166 49.7999V49.7999ZM41.0655 55.5382C40.975 55.7148 40.6127 56.3327 39.6166 56.421C38.6205 56.3327 38.2583 55.7148 38.1677 55.5382C37.5338 54.3905 37.9866 52.0952 39.6166 50.153C41.2466 52.0952 41.6994 54.4788 41.0655 55.5382Z" fill="#EAC03B" stroke="black" stroke-width="0.264583" stroke-miterlimit="6.3866" stroke-linecap="round" stroke-linejoin="round"/>
<path id="path3092" d="M6.83524 49.7999C3.84688 52.2718 3.03187 55.4499 4.2091 56.9507C4.39022 57.2155 5.02411 58.0101 6.83524 58.0984C8.64636 57.9218 9.28025 57.1273 9.46136 56.9507C10.6386 55.4499 9.8236 52.36 6.83524 49.7999V49.7999ZM8.28414 55.5382C8.19358 55.7148 7.83136 56.3327 6.83524 56.421C5.83912 56.3327 5.47689 55.7148 5.38633 55.5382C4.75244 54.3905 5.20522 52.0952 6.83524 50.153C8.55581 52.0952 8.91803 54.4788 8.28414 55.5382Z" fill="#EAC03B" stroke="black" stroke-width="0.264583" stroke-miterlimit="6.3866" stroke-linecap="round" stroke-linejoin="round"/>
<path id="circle3094" d="M39.6166 51.2125C40.3668 51.2125 40.975 50.6196 40.975 49.8882C40.975 49.1569 40.3668 48.564 39.6166 48.564C38.8664 48.564 38.2583 49.1569 38.2583 49.8882C38.2583 50.6196 38.8664 51.2125 39.6166 51.2125Z" fill="#EAC03B" stroke="black" stroke-width="0.264583" stroke-miterlimit="6.3866" stroke-linecap="round" stroke-linejoin="round"/>
<path id="circle3096" d="M6.83527 51.2125C7.58547 51.2125 8.19362 50.6196 8.19362 49.8882C8.19362 49.1569 7.58547 48.564 6.83527 48.564C6.08508 48.564 5.47693 49.1569 5.47693 49.8882C5.47693 50.6196 6.08508 51.2125 6.83527 51.2125Z" fill="#EAC03B" stroke="black" stroke-width="0.264583" stroke-miterlimit="6.3866" stroke-linecap="round" stroke-linejoin="round"/>
</g>
</svg>
