<svg width="44" height="56" viewBox="0 0 44 56" fill="none" xmlns="http://www.w3.org/2000/svg">
<g id="hair-1">
<path id="path280" d="M36.8277 50.7355C43.9412 43.3536 44.5715 22.4997 40.4294 12.811C37.458 6.16732 32.4155 1 22.1504 1C11.8854 1 7.023 5.52141 4.05154 12.1651C-0.0905017 21.6693 -1.26108 40.0317 8.64379 50.92L36.8277 50.7355ZM22.6007 50.0895C17.7383 50.0895 7.29313 42.3386 7.74335 32.2807C8.28362 18.532 15.8473 12.9033 22.6007 12.9033C29.354 12.9033 36.9177 21.3002 36.9177 32.2807C36.8277 40.5854 27.463 49.9973 22.6007 50.0895Z" fill="#58646D" stroke="black" stroke-width="0.396875" stroke-miterlimit="10" stroke-linecap="round" stroke-linejoin="round"/>
<path id="ellipse282" d="M5.31209 31.9116C6.05804 31.9116 6.66275 30.6309 6.66275 29.0511C6.66275 27.4713 6.05804 26.1906 5.31209 26.1906C4.56614 26.1906 3.96143 27.4713 3.96143 29.0511C3.96143 30.6309 4.56614 31.9116 5.31209 31.9116Z" fill="#A0977F" stroke="black" stroke-width="0.264583" stroke-miterlimit="10" stroke-linecap="round" stroke-linejoin="round"/>
<path id="path284" opacity="0.3" d="M41.5998 39.0167C37.5478 52.6732 17.3779 52.8577 17.3779 52.8577C17.3779 52.8577 16.8376 57.8405 28.6334 55.2568C20.6195 55.5336 20.6195 54.1495 20.6195 54.1495C20.6195 54.1495 39.5288 52.0272 41.5998 39.0167V39.0167Z" fill="black"/>
<path id="path286" opacity="0.3" d="M5.58233 25.7293C5.58233 25.7293 4.68189 23.4225 5.58233 20.6543C3.42127 23.4225 4.77194 25.8216 4.41176 25.7293C4.05158 25.637 3.51131 25.4525 3.42127 23.7916C2.34073 25.2679 4.23167 27.8516 4.23167 27.8516L5.58233 25.7293Z" fill="black"/>
<path id="path288" opacity="0.3" d="M4.14151 31.3581C4.14151 31.3581 3.06098 32.5576 1.44019 31.9117C3.33112 33.8494 4.41165 32.1885 4.41165 32.5576C4.41165 32.9267 4.50169 33.4804 3.60125 33.7572C4.59174 34.6799 5.58222 32.4653 5.58222 32.4653L4.14151 31.3581Z" fill="black"/>
<path id="path290" opacity="0.3" d="M13.3261 11.8882C20.0794 8.47411 36.2874 7.64365 39.619 27.5747C39.1688 14.1028 26.0224 3.39907 13.3261 11.8882V11.8882Z" fill="black"/>
<path id="path292" opacity="0.3" d="M14.1364 8.5665C22.9608 3.58372 42.0501 7.27467 40.4294 32.4654C43.6709 10.8733 26.9227 0.0773292 14.1364 8.5665V8.5665Z" fill="black"/>
<path id="path294" opacity="0.3" d="M3.87145 21.8539C4.50176 20.1007 6.66283 2.38414 26.4726 4.41416C7.29314 0.630947 3.51128 17.6093 3.87145 21.8539Z" fill="black"/>
</g>
</svg>
