<svg width="50" height="57" viewBox="0 0 50 57" fill="none" xmlns="http://www.w3.org/2000/svg">
<g id="hair-4">
<path id="line4111" d="M44.8757 39.55L44.9805 49.751" stroke="black" stroke-width="0.396875" stroke-linecap="round" stroke-linejoin="round"/>
<path id="circle4113" d="M44.8755 41.0847C45.8598 41.0847 46.6577 40.3976 46.6577 39.55C46.6577 38.7025 45.8598 38.0154 44.8755 38.0154C43.8913 38.0154 43.0934 38.7025 43.0934 39.55C43.0934 40.3976 43.8913 41.0847 44.8755 41.0847Z" fill="#FBC926" stroke="black" stroke-width="0.198438" stroke-linecap="round" stroke-linejoin="round"/>
<path id="circle4115" d="M44.9805 46.3206C45.9648 46.3206 46.7627 45.6335 46.7627 44.7859C46.7627 43.9384 45.9648 43.2513 44.9805 43.2513C43.9962 43.2513 43.1983 43.9384 43.1983 44.7859C43.1983 45.6335 43.9962 46.3206 44.9805 46.3206Z" fill="#FBC926" stroke="black" stroke-width="0.198438" stroke-linecap="round" stroke-linejoin="round"/>
<path id="circle4117" d="M44.9805 51.6467C45.9648 51.6467 46.7627 50.9596 46.7627 50.1121C46.7627 49.2645 45.9648 48.5774 44.9805 48.5774C43.9962 48.5774 43.1983 49.2645 43.1983 50.1121C43.1983 50.9596 43.9962 51.6467 44.9805 51.6467Z" fill="#FBC926" stroke="black" stroke-width="0.198438" stroke-linecap="round" stroke-linejoin="round"/>
<path id="line4119" d="M6.19214 40.0014V50.2023" stroke="black" stroke-width="0.396875" stroke-linecap="round" stroke-linejoin="round"/>
<path id="circle4121" d="M6.19226 41.7166C7.17652 41.7166 7.97442 41.0295 7.97442 40.182C7.97442 39.3344 7.17652 38.6473 6.19226 38.6473C5.20799 38.6473 4.4101 39.3344 4.4101 40.182C4.4101 41.0295 5.20799 41.7166 6.19226 41.7166Z" fill="#FBC926" stroke="black" stroke-width="0.198438" stroke-linecap="round" stroke-linejoin="round"/>
<path id="circle4123" d="M6.29699 46.9525C7.28125 46.9525 8.07915 46.2654 8.07915 45.4179C8.07915 44.5703 7.28125 43.8832 6.29699 43.8832C5.31273 43.8832 4.51483 44.5703 4.51483 45.4179C4.51483 46.2654 5.31273 46.9525 6.29699 46.9525Z" fill="#FBC926" stroke="black" stroke-width="0.198438" stroke-linecap="round" stroke-linejoin="round"/>
<path id="circle4125" d="M6.29699 52.2786C7.28125 52.2786 8.07915 51.5915 8.07915 50.744C8.07915 49.8964 7.28125 49.2093 6.29699 49.2093C5.31273 49.2093 4.51483 49.8964 4.51483 50.744C4.51483 51.5915 5.31273 52.2786 6.29699 52.2786Z" fill="#FBC926" stroke="black" stroke-width="0.198438" stroke-linecap="round" stroke-linejoin="round"/>
<g id="path4127">
<path d="M6.92613 35.3974C9.65179 40.8139 8.60346 43.9734 8.60346 46.6817C11.434 51.8272 6.82129 56.702 6.82129 56.702C6.82129 56.702 16.3611 53.1814 13.7403 45.9595C13.7403 45.9595 10.5953 41.8971 8.81312 33.9531" fill="#754C24"/>
<path d="M6.92613 35.3974C9.65179 40.8139 8.60346 43.9734 8.60346 46.6817C11.434 51.8272 6.82129 56.702 6.82129 56.702C6.82129 56.702 16.3611 53.1814 13.7403 45.9595C13.7403 45.9595 10.5953 41.8971 8.81312 33.9531" stroke="black" stroke-width="0.396875" stroke-linecap="round" stroke-linejoin="round"/>
</g>
<g id="path4129">
<path d="M41.7307 33.9531C39.8437 41.8971 36.9083 45.9595 36.9083 45.9595C34.1827 53.1814 43.8273 56.702 43.8273 56.702C43.8273 56.702 39.2147 51.8272 42.0452 46.6817C42.0452 44.0637 40.9968 40.9041 43.7225 35.3974" fill="#754C24"/>
<path d="M41.7307 33.9531C39.8437 41.8971 36.9083 45.9595 36.9083 45.9595C34.1827 53.1814 43.8273 56.702 43.8273 56.702C43.8273 56.702 39.2147 51.8272 42.0452 46.6817C42.0452 44.0637 40.9968 40.9041 43.7225 35.3974" stroke="black" stroke-width="0.396875" stroke-linecap="round" stroke-linejoin="round"/>
</g>
<path id="path4131" d="M25.5863 15.6275C30.4087 16.9816 30.9328 14.2734 32.6102 14.2734C37.3276 14.3637 40.4726 18.6065 41.8355 23.2105C43.408 28.4464 41.3113 35.2169 39.4243 40.3625C36.6986 47.5844 44.037 49.119 44.037 49.119C44.037 49.119 40.892 46.2303 43.8273 41.0847C44.9805 39.0987 46.7626 32.9601 47.0771 29.8005C53.1575 24.4743 46.0288 6.23905 35.231 2.6281C30.5135 1.00317 23.6993 0.0101634 19.4012 2.53783C14.2643 0.461532 7.24053 6.32932 5.35354 8.85698C0.426379 15.6275 -0.621952 25.9187 3.78104 29.8005C3.99071 32.9601 5.8777 39.0987 7.03087 41.0847C9.86136 46.2303 6.82119 49.119 6.82119 49.119C6.82119 49.119 14.1595 47.4941 11.4339 40.3625C9.44202 35.4877 7.4502 28.5366 9.12753 23.03C10.8049 17.1622 17.9335 10.4819 25.5863 15.6275Z" fill="#754C24" stroke="black" stroke-width="0.396875" stroke-linecap="round" stroke-linejoin="round"/>
<g id="path4133">
<path d="M31.7715 13.9123C34.4971 14.9956 33.7633 21.405 39.3195 25.1965C44.8756 28.988 48.9641 28.7172 48.9641 28.7172C48.9641 28.7172 42.9886 30.5226 37.4325 26.7312C31.8763 22.9397 27.8927 16.5302 25.0622 15.2664" fill="#754C24"/>
<path d="M31.7715 13.9123C34.4971 14.9956 33.7633 21.405 39.3195 25.1965C44.8756 28.988 48.9641 28.7172 48.9641 28.7172C48.9641 28.7172 42.9886 30.5226 37.4325 26.7312C31.8763 22.9397 27.8927 16.5302 25.0622 15.2664" stroke="black" stroke-width="0.396875" stroke-linecap="round" stroke-linejoin="round"/>
</g>
<path id="path4135" opacity="0.3" d="M18.2479 4.88497C17.4093 2.80867 14.3691 4.7947 14.3691 4.7947C14.3691 4.7947 17.5141 3.98223 17.6189 5.42661C14.7884 5.33634 11.2241 8.94728 11.2241 8.94728C11.2241 8.94728 15.8368 6.23907 17.6189 9.39865C14.5788 9.75975 13.7401 11.2041 12.9014 13.8221C14.5788 12.3777 16.1513 10.3917 19.0866 11.5652C19.4011 10.0306 19.0866 6.96126 18.2479 4.88497V4.88497Z" fill="black"/>
<path id="path4137" opacity="0.3" d="M20.3447 4.52385C20.4496 2.26701 24.0139 3.53084 24.0139 3.53084C24.0139 3.53084 20.6592 3.53084 21.1834 4.97522C23.8042 4.16276 28.5217 6.78069 28.5217 6.78069C28.5217 6.78069 23.1752 5.33631 22.5462 8.85699C25.5864 8.40562 26.1105 12.1971 27.7879 14.5442C25.6912 13.5512 24.3284 9.4889 21.9172 11.3846C20.9737 9.75972 20.3447 6.69042 20.3447 4.52385Z" fill="black"/>
<path id="path4139" opacity="0.3" d="M40.4727 15.5373C40.4727 15.5373 44.7708 22.3981 44.037 24.4744C44.666 24.4744 45.7143 21.4953 44.7708 18.7871C45.7143 19.7801 46.553 20.3218 47.3916 24.6549C49.2786 21.7662 44.8756 13.7318 44.8756 13.7318C44.8756 13.7318 46.8675 17.9747 46.9723 20.8634C46.1336 18.6066 43.408 16.6206 43.408 16.6206C43.408 16.6206 44.9805 19.058 44.3515 21.7662C44.7708 19.8704 40.4727 15.5373 40.4727 15.5373V15.5373Z" fill="black"/>
</g>
</svg>
