<svg width="47" height="45" viewBox="0 0 47 45" fill="none" xmlns="http://www.w3.org/2000/svg">
<g id="hair-2">
<path id="line1735" d="M38.6609 35.9772L38.7487 42.7465" stroke="black" stroke-width="0.264583" stroke-linecap="round" stroke-linejoin="round"/>
<path id="path1737" d="M38.7487 39.32C38.7487 39.32 40.0666 42.0779 40.0666 42.7464C40.0666 43.415 39.4516 44 38.7487 44C38.0458 44 37.4308 43.415 37.4308 42.7464C37.4308 42.0779 38.7487 39.32 38.7487 39.32Z" fill="#FBC926" stroke="black" stroke-width="0.264583" stroke-linecap="round" stroke-linejoin="round"/>
<path id="path1739" d="M18.8922 13.9981C9.22757 11.1567 8.964 25.8652 5.97674 27.2859C2.98948 28.7066 0.00221403 26.283 1.32012 25.1966C2.63803 24.1102 2.98947 10.906 8.43683 5.4739C12.3906 1.54608 18.0136 2.6325 18.0136 2.6325C18.0136 2.6325 24.9546 -0.543187 31.3684 1.96393C41.736 6.0589 43.8446 23.943 45.4261 24.6952C46.9198 25.4473 45.6019 28.4558 40.2424 27.453C35.7615 26.7009 35.3222 6.8946 18.8922 13.9981V13.9981Z" fill="black" stroke="black" stroke-width="0.396875" stroke-linecap="round" stroke-linejoin="round"/>
<path id="path1741" opacity="0.3" d="M20.0344 4.38743C20.0344 4.38743 24.691 1.46245 29.3477 3.30101C21.6159 2.71601 21.1766 8.31525 21.1766 8.31525C21.1766 8.31525 26.1847 4.55457 31.5442 8.06454C25.7454 5.39027 22.0552 9.40167 22.0552 9.40167C22.0552 9.40167 30.6656 8.81667 34.8829 15.0009C30.2263 9.65238 22.3188 9.90309 20.1223 12.0759C18.7165 13.4966 20.1223 5.8917 20.0344 4.38743Z" fill="black"/>
<path id="path1743" opacity="0.3" d="M18.5409 6.05887C18.5409 6.05887 15.2022 3.96961 12.215 5.64102C17.3987 4.80531 17.9259 8.39885 17.9259 8.39885C17.9259 8.39885 13.6207 7.06172 11.0728 8.73314C14.8508 7.396 17.4866 9.31813 17.4866 9.31813C17.4866 9.31813 11.6878 9.31813 9.31555 14.4995C12.0392 9.90312 16.6958 9.65241 18.2773 11.4074C19.2438 12.4938 18.5409 7.396 18.5409 6.05887V6.05887Z" fill="black"/>
<path id="path1745" opacity="0.3" d="M35.8493 16.0874C38.2215 24.1938 40.9452 27.2859 44.196 25.7816C40.1544 25.9487 37.9579 21.1016 35.8493 16.0874V16.0874Z" fill="black"/>
<path id="path1747" opacity="0.3" d="M8.70035 16.5888C8.43677 19.2631 5.97667 28.9573 3.07727 26.1159C5.18592 26.6173 7.031 23.1909 8.70035 16.5888Z" fill="black"/>
<path id="path1749" opacity="0.3" d="M26.7119 5.80813C39.1002 4.471 39.6274 22.3551 43.3175 23.0237C40.0667 21.3523 39.0123 2.71602 26.7119 5.80813Z" fill="black"/>
<path id="path1751" opacity="0.3" d="M14.5872 6.81103C5.36183 5.80818 6.50402 23.7759 2.72601 24.3609C6.06471 22.5223 5.01039 4.38748 14.5872 6.81103Z" fill="black"/>
<path id="line1753" d="M7.03119 35.9772L7.11905 42.7465" stroke="black" stroke-width="0.264583" stroke-linecap="round" stroke-linejoin="round"/>
<path id="path1755" d="M7.119 39.32C7.119 39.32 8.4369 42.0779 8.4369 42.7464C8.4369 43.415 7.82188 44 7.119 44C6.41611 44 5.80109 43.415 5.80109 42.7464C5.80109 42.0779 7.119 39.32 7.119 39.32Z" fill="#FBC926" stroke="black" stroke-width="0.264583" stroke-linecap="round" stroke-linejoin="round"/>
</g>
</svg>
