<svg xmlns="http://www.w3.org/2000/svg" xmlns:xlink="http://www.w3.org/1999/xlink" xmlns:v="https://vecta.io/nano" style="border-radius:100px"  width="45" height="45" fill="none"><g xmlns="http://www.w3.org/2000/svg" mask="url(#A)"><circle cx="22" cy="22" r="22" fill="#ff3e3e"/><path d="M14.4 2.188S9.68 1.34 6.28 4.36 3.166 11.533 4.1 14.93c1.038 3.398 2.737 6.89 2.737 6.89s2.832 2.832 5.57 1.322c2.737-1.605 6.324-4.153 6.985-8.495.19-1.227.472-3.964.944-4.153.283-.094 2.643 1.5 8.212 3.115 3.21.944 5.947.85 7.646.66 1.32-.094 2.17-.472 2.548-1.038C39.8 11.91 37.43 4.36 34.315.395S25.63-4.136 22.61-3.57c-2.926.472-6.513 1.605-8.212 5.758z" fill="#363d61"/><path d="M11.473 27.107l-4.72 14.16s2.17 1.5 6.324 2.643c5.758 1.605 10.95.566 10.95.566l1.605-9.44-14.16-7.93z" fill="#e5a385"/><path d="M9.963 28.9c2.502 0 4.53-2.155 4.53-4.814s-2.028-4.814-4.53-4.814-4.53 2.155-4.53 4.814S7.46 28.9 9.963 28.9z" fill="#fff"/><path d="M35.448 14.27s-3.964-.19-8.4-1.7c-3.68-1.227-7.74-4.814-7.74-4.814s.377 4.814-1.038 8.6c-1.227 3.115-3.587 4.72-3.587 4.72l-.19.094c-.85-1.5-2.454-2.454-4.153-2.454-2.737 0-5.003 2.36-5.003 5.38 0 2.926 2.265 5.38 5.003 5.38 1.038 0 1.982-.283 2.737-.85.094.283.19.378.19.66.472 1.793 2.077 3.304 4.908 4.814 3.304 1.7 8.212 3.492 10.95 2.643s5.003-3.68 5.852-8.59.472-13.875.472-13.875z" fill="#ffcab0"/><path d="M10.34 26.07c1.095 0 1.982-.887 1.982-1.982s-.887-1.982-1.982-1.982-1.982.887-1.982 1.982.887 1.982 1.982 1.982z" fill="#e5a385"/><g fill="#333454"><path d="M24.593 17.48c.2 0 .378 0 .566-.2.2-.094.2-.283.283-.472 0-.378-.283-.755-.66-.755-3.115-.283-4.53 1.888-4.625 1.982-.094.2-.2.378-.094.566 0 .2.2.378.283.472s.283.094.378.094c.283 0 .472-.2.66-.283.094-.283 1.038-1.605 3.2-1.416zm9.345-1.133c-1.322-.85-2.926-.378-2.926-.378-.378.2-.566.566-.472.944.2.378.566.566.944.472.66-.2 1.227-.094 1.605.2.094.094.283.094.378.094a1.02 1.02 0 0 0 .661-.283c.2-.378.094-.755-.2-1.038zm-9.638 6.23a1.322 1.322 0 1 0 0-2.643 1.322 1.322 0 1 0 0 2.643zm8.4-.755a1.322 1.322 0 1 0 0-2.643 1.322 1.322 0 1 0 0 2.643zm-3.2-.378a.6.6 0 0 0-.566 0c-.2.094-.377.2-.472.378a.6.6 0 0 0 0 .566c.378 1.227.944 3.304.85 4.06-.094.66-.944.755-.944.755-.378 0-.66.378-.66.85.094.377.378.566.66.66h.2c.755-.094 1.982-.66 2.17-1.982.2-1.416-.755-4.342-.944-4.72 0-.378-.2-.472-.283-.566zm-2.925 8.684c-2.926-.094-3.587-2.55-3.68-2.643-.094-.2-.2-.378-.283-.472-.2-.094-.378-.094-.566-.094-.378.094-.66.472-.566.85.283 1.227 1.793 3.68 5.003 3.776.378 0 .755-.283.755-.755 0-.2 0-.377-.2-.472a.72.72 0 0 0-.472-.189z"/></g><path d="M25.16 38.057c-.094 0-3.21-.566-8.306-3.02-1.416-.66-3.21-2.17-3.776-3.115-.283-.472-.472-1.038-.66-1.416-.094 0-.094.094-.19.094-.377.19-.944.283-1.322.283-.283 0-.66-.094-.755-.094l.472-1.32h.19c.283 0 .66-.094.944-.19s.566-.283.755-.378l.85-.566.19 1.038s.19 1.038.755 1.888c.378.66 1.982 1.982 3.21 2.55 4.908 2.36 7.93 2.926 7.93 2.926l-.283 1.322z" fill="#313354"/></g></svg>