<svg xmlns="http://www.w3.org/2000/svg" x="0px" y="0px"
width="24" height="24"
viewBox="0 0 172 172"
style=" fill:#000000;"><g fill="none" fill-rule="nonzero" stroke="none" stroke-width="1" stroke-linecap="butt" stroke-linejoin="miter" stroke-miterlimit="10" stroke-dasharray="" stroke-dashoffset="0" font-family="none" font-weight="none" font-size="none" text-anchor="none" style="mix-blend-mode: normal"><path d="M0,172v-172h172v172z" fill="none"></path><g fill="#363d61"><path d="M40.13333,17.2c-3.1663,0.00032 -5.73302,2.56703 -5.73333,5.73333v74.53333h11.46667v-68.8h91.73333v97.46667c0,9.56597 -7.63403,17.2 -17.2,17.2c-9.56597,0 -17.2,-7.63403 -17.2,-17.2v-11.46667c-0.00032,-3.1663 -2.56703,-5.73302 -5.73333,-5.73333h-74.53333c-3.1663,0.00032 -5.73302,2.56703 -5.73333,5.73333v11.46667c0,15.76389 12.90277,28.66667 28.66667,28.66667h74.53333c0.1908,-0.00169 0.38141,-0.0129 0.57109,-0.03359c15.50075,-0.30997 28.09558,-13.06179 28.09558,-28.63308v-103.2c-0.00032,-3.1663 -2.56703,-5.73302 -5.73333,-5.73333z"></path></g></g></svg>