<svg width="51" height="20" viewBox="0 0 51 20" fill="none" xmlns="http://www.w3.org/2000/svg">
<g id="shoes-3">
<g id="left_shoes">
<path id="path2962" d="M47.2178 12.4349C45.135 10.7576 38.1622 4.22473 37.981 4.57786C39.0677 7.57944 45.2255 11.3756 42.1466 11.6404C34.9927 12.5232 31.6421 4.4013 31.6421 4.4013C31.6421 4.4013 30.1026 5.19584 29.9215 7.49116C29.7404 9.96306 29.9215 16.0545 29.9215 16.0545H32.4571V12.5232C32.4571 12.5232 33.0004 13.2295 33.9966 14.1123C36.4416 16.4959 36.8038 19.9389 46.765 19.1444C48.8478 18.9678 49.9345 17.6436 50.025 16.7608C50.4778 15.5248 49.6628 14.642 47.2178 12.4349V12.4349Z" fill="#666666" stroke="black" stroke-width="0.343932" stroke-miterlimit="5.3099" stroke-linecap="round" stroke-linejoin="round"/>
<path id="path2964" d="M45.4066 14.3771C47.4894 13.406 39.8827 5.28405 39.8827 5.28405C39.3394 4.22467 37.4377 1.1348 35.7171 1.04652C32.6382 0.605113 31.5515 3.43012 31.7326 4.22466C32.5477 7.57937 40.0638 17.2021 45.4066 14.3771V14.3771Z" fill="#EBC3A5" stroke="black" stroke-width="0.343932" stroke-miterlimit="2.1239" stroke-linecap="round" stroke-linejoin="round"/>
</g>
<g id="right_shoes">
<path id="path2968" d="M4.10128 12.4349C6.18408 10.7576 13.1569 4.22473 13.338 4.57786C12.2514 7.57944 6.09353 11.3756 9.17244 11.6404C16.3264 12.5232 19.677 4.4013 19.677 4.4013C19.677 4.4013 21.2164 5.19584 21.3975 7.49116C21.5787 9.96306 21.3975 16.0545 21.3975 16.0545H18.7714V12.5232C18.7714 12.5232 18.2281 13.2295 17.2319 14.1123C14.7869 16.4959 14.4247 19.9389 4.46351 19.1444C2.38072 18.9678 1.29404 17.6436 1.20348 16.7608C0.569591 15.5248 1.38459 14.8186 4.10128 12.4349V12.4349Z" fill="#666666" stroke="black" stroke-width="0.343932" stroke-miterlimit="5.3099" stroke-linecap="round" stroke-linejoin="round"/>
<path id="path2970" d="M5.91238 14.3771C3.82958 13.406 11.4363 5.28405 11.4363 5.28405C11.9797 4.22467 13.8813 1.1348 15.6019 1.04652C18.6808 0.605113 19.7675 3.43012 19.5864 4.22466C18.6808 7.75594 11.0741 17.2021 5.91238 14.3771V14.3771Z" fill="#EBC3A5" stroke="black" stroke-width="0.343932" stroke-miterlimit="2.1239" stroke-linecap="round" stroke-linejoin="round"/>
</g>
</g>
</svg>
