<svg width="42" height="23" viewBox="0 0 42 23" fill="none" xmlns="http://www.w3.org/2000/svg">
<g id="shoes-2">
<g id="left_shoes">
<path id="path1639" d="M38.5042 14.2313C36.7575 12.1192 32.4289 4.57605 32.277 5.07893C33.2642 8.59907 36.7575 12.8232 34.0996 13.2255C28.1761 14.3319 27.1889 4.7772 27.1889 4.7772C27.1889 4.7772 25.3663 5.78296 25.0625 8.39792C24.8347 11.1135 25.0625 18.4555 25.0625 18.4555H27.3408V14.1307C27.3408 14.1307 27.7964 15.0359 28.6318 16.0416C30.5303 18.556 29.4671 22.7802 37.9726 21.875C39.7952 21.6739 40.7065 20.0647 40.8584 19.3606C41.314 17.852 40.7065 16.7457 38.5042 14.2313V14.2313Z" fill="#203E4A" stroke="black" stroke-width="0.396875" stroke-miterlimit="10" stroke-linecap="round" stroke-linejoin="round"/>
<path id="path1641" d="M36.8335 16.5446C38.5802 15.3377 33.7958 6.08472 33.7958 6.08472C33.1883 4.77724 31.8973 1.35768 30.3785 1.05596C27.7205 0.553079 26.9611 3.57034 27.037 4.87782C27.4927 8.69969 32.5048 19.5618 36.8335 16.5446Z" fill="#EBC3A5" stroke="black" stroke-width="0.396875" stroke-linecap="round" stroke-linejoin="round"/>
</g>
<g id="right_shoes">
<path id="path1645" d="M3.46021 14.2313C5.20687 12.1192 9.53554 4.57605 9.68742 5.07893C8.70018 8.59907 5.20686 12.8232 7.86482 13.2255C13.7883 14.3319 14.7755 4.7772 14.7755 4.7772C14.7755 4.7772 16.5981 5.78296 16.9019 8.39792C17.1297 11.1135 16.9019 18.4555 16.9019 18.4555H14.6236V14.1307C14.6236 14.1307 14.168 15.0359 13.3326 16.0416C11.4341 18.556 12.4973 22.7802 3.9918 21.875C2.1692 21.6739 1.2579 20.0647 1.10602 19.3606C0.726309 17.9526 1.33384 16.8462 3.46021 14.2313V14.2313Z" fill="#203E4A" stroke="black" stroke-width="0.396875" stroke-miterlimit="10" stroke-linecap="round" stroke-linejoin="round"/>
<path id="path1647" d="M5.13105 16.5446C3.3844 15.3377 8.16872 6.08472 8.16872 6.08472C8.77625 4.77724 10.0673 1.35768 11.5861 1.05596C14.2441 0.553079 15.0035 3.57034 14.9275 4.87782C14.5478 8.80026 9.53567 19.5618 5.13105 16.5446Z" fill="#EBC3A5" stroke="black" stroke-width="0.396875" stroke-linecap="round" stroke-linejoin="round"/>
</g>
</g>
</svg>
