<svg width="53" height="28" viewBox="0 0 53 28" fill="none" xmlns="http://www.w3.org/2000/svg">
<g id="shoes-5">
<g id="left_shoes">
<g id="g674">
<path id="path670" d="M38.0323 7.57968C38.0323 7.57968 39.3698 -1.8559 34.6883 0.983939C30.0067 3.82377 38.0323 7.57968 38.0323 7.57968Z" fill="black" stroke="black" stroke-width="0.533434" stroke-linecap="round" stroke-linejoin="round"/>
<path id="path672" d="M37.8412 7.30482C37.8412 7.30482 36.8858 2.17487 34.9749 3.27415C32.9686 4.55664 37.8412 7.30482 37.8412 7.30482Z" fill="black" fill-opacity="0.3" stroke="black" stroke-width="0.355623" stroke-linecap="round" stroke-linejoin="round"/>
</g>
<g id="g680">
<path id="path676" d="M38.9877 7.76291C38.9877 7.76291 31.7265 -1.30617 30.2934 4.9231C28.8602 11.1524 38.9877 7.76291 38.9877 7.76291Z" fill="black" stroke="black" stroke-width="0.533434" stroke-linecap="round" stroke-linejoin="round"/>
<path id="path678" d="M38.6055 7.76288C38.6055 7.76288 33.2551 4.19023 32.5863 6.572C31.9175 9.41181 38.6055 7.76288 38.6055 7.76288Z" fill="black" fill-opacity="0.3" stroke="black" stroke-width="0.355623" stroke-linecap="round" stroke-linejoin="round"/>
</g>
<path id="path682" d="M52.268 24.2522C52.268 24.2522 41.9495 23.5193 40.6119 23.0613C39.752 22.6948 38.5099 16.2823 37.2679 13.9922L35.2615 9.59501C35.2615 9.59501 33.3507 5.93073 32.4908 9.13698C32.2042 10.053 32.2042 23.8857 32.2042 23.8857H35.2615L34.4016 17.6564C34.4016 20.8627 36.7902 27.3668 37.7456 27.4584C38.7966 27.55 50.4527 27.4584 51.4082 27.4584C52.8413 26.8172 52.268 24.2522 52.268 24.2522V24.2522Z" fill="black" stroke="black" stroke-width="0.533434" stroke-linecap="round" stroke-linejoin="round"/>
<path id="path684" d="M47.1087 21.8704C49.4973 20.6795 44.2425 13.8089 43.1915 11.5187C42.045 9.22857 41.5673 6.93839 39.4654 6.57196C35.8347 6.02232 34.115 8.95374 34.2105 10.3278C34.115 13.0761 36.5991 16.2823 38.6055 22.0536C40.5163 23.6109 43.287 23.9773 47.1087 21.8704Z" fill="#EBC3A5" stroke="black" stroke-width="0.533434" stroke-linecap="round" stroke-linejoin="round"/>
<path id="XMLID_2_" d="M44.9113 18.7557C47.7776 18.7557 49.975 19.9467 51.026 21.6872C52.077 23.5193 51.8859 24.4354 51.8859 24.4354C51.8859 24.4354 39.6565 25.1683 38.7966 24.4354C36.8857 22.7865 39.9431 18.3893 44.9113 18.7557Z" fill="#EBC3A5" stroke="black" stroke-width="0.533434" stroke-linecap="round" stroke-linejoin="round"/>
<path id="path687" d="M49.7839 19.4886C49.7839 19.4886 45.6756 15.4579 40.8029 17.7481C36.2169 19.855 36.7901 21.3207 36.7901 21.3207L38.0322 23.7025C38.0322 23.7025 38.9876 20.4047 41.9494 19.3054C45.0068 18.2061 46.4399 18.8473 49.7839 19.4886V19.4886Z" fill="black" stroke="black" stroke-width="0.355623" stroke-linecap="round" stroke-linejoin="round"/>
<path id="path689" d="M41.1851 5.01468L41.3762 7.12164C39.4653 6.75521 36.8857 6.66361 34.0194 7.85449V5.01468H41.1851Z" fill="black" stroke="black" stroke-width="0.533434" stroke-linecap="round" stroke-linejoin="round"/>
<path id="path691" d="M37.0768 19.9466C37.1723 15.6411 41.0895 11.0607 44.1469 12.4349L43.1915 10.1447C40.6118 8.77057 36.0258 12.8013 35.6436 16.9236L37.0768 19.9466Z" fill="black" stroke="black" stroke-width="0.355623" stroke-linecap="round" stroke-linejoin="round"/>
<path id="path693" d="M46.5354 16.7404C44.338 13.4426 40.2297 10.6027 34.306 14.0838L33.7328 11.7936C40.0386 8.31256 43.9558 11.6104 45.6756 15.0915L46.5354 16.7404Z" fill="black" stroke="black" stroke-width="0.355623" stroke-linecap="round" stroke-linejoin="round"/>
</g>
<g id="right_shoes">
<g id="g701">
<path id="path697" d="M14.2423 7.57968C14.2423 7.57968 13.0002 -1.48946 17.4907 1.25877C22.0767 4.00699 14.2423 7.57968 14.2423 7.57968Z" fill="black" stroke="black" stroke-width="0.533434" stroke-linecap="round" stroke-linejoin="round"/>
<path id="path699" d="M14.4333 7.30486C14.4333 7.30486 15.3888 2.26648 17.2041 3.36576C19.1149 4.73987 14.4333 7.30486 14.4333 7.30486Z" fill="black" fill-opacity="0.3" stroke="black" stroke-width="0.355623" stroke-linecap="round" stroke-linejoin="round"/>
</g>
<g id="g707">
<path id="path703" d="M13.1912 7.76291C13.1912 7.76291 20.4524 -1.30617 21.8856 4.9231C23.3187 11.1524 13.1912 7.76291 13.1912 7.76291Z" fill="black" stroke="black" stroke-width="0.533434" stroke-linecap="round" stroke-linejoin="round"/>
<path id="path705" d="M13.5734 7.76288C13.5734 7.76288 18.9238 4.19023 19.5926 6.572C20.2614 9.41181 13.5734 7.76288 13.5734 7.76288Z" fill="black" fill-opacity="0.3" stroke="black" stroke-width="0.355623" stroke-linecap="round" stroke-linejoin="round"/>
</g>
<path id="path709" d="M0.57973 24.2522C0.57973 24.2522 10.8983 23.5193 12.2359 23.0613C13.0958 22.6949 14.3378 16.2823 15.5799 13.9922L17.5863 9.59501C17.5863 9.59501 19.4971 5.93073 20.357 9.13698C20.6436 10.053 20.6436 23.8857 20.6436 23.8857H17.5863L18.6372 16.7404C18.6372 18.9389 16.0576 27.2752 15.1022 27.3668C14.0512 27.4584 2.39503 27.3668 1.43961 27.3668C-0.089064 26.8172 0.57973 24.2522 0.57973 24.2522V24.2522Z" fill="black" stroke="black" stroke-width="0.533434" stroke-linecap="round" stroke-linejoin="round"/>
<path id="path711" d="M14.2423 22.1452C16.2486 16.374 18.7327 13.1677 18.6372 10.4195C18.7327 9.0454 17.013 6.02236 13.3824 6.66361C11.2804 7.03004 10.7072 9.32023 9.65622 11.6104C8.50972 13.9006 3.35044 20.7711 5.73899 21.962C9.46514 23.9774 12.3314 23.6109 14.2423 22.1452Z" fill="#EBC3A5" stroke="black" stroke-width="0.533434" stroke-linecap="round" stroke-linejoin="round"/>
<g id="XMLID_1_">
<path d="M7.8409 18.7557C4.97463 18.7557 2.77716 19.9467 1.72619 21.6872C0.675227 23.5193 0.86631 24.4354 0.86631 24.4354C0.86631 24.4354 13.0957 25.1683 13.9556 24.4354C15.962 22.7865 12.9046 18.3893 7.8409 18.7557" fill="#EBC3A5"/>
<path d="M7.8409 18.7557C4.97463 18.7557 2.77716 19.9467 1.72619 21.6872C0.675227 23.5193 0.86631 24.4354 0.86631 24.4354C0.86631 24.4354 13.0957 25.1683 13.9556 24.4354C15.962 22.7865 12.9046 18.3893 7.8409 18.7557" stroke="black" stroke-width="0.533434" stroke-linecap="round" stroke-linejoin="round"/>
</g>
<path id="path714" d="M3.25488 19.4886C3.25488 19.4886 7.3632 15.4579 12.2359 17.7481C16.8219 19.855 16.2486 21.3207 16.2486 21.3207L15.0066 23.7025C15.0066 23.7025 14.0512 20.4047 11.0893 19.3054C7.93645 18.2061 6.50332 18.8473 3.25488 19.4886V19.4886Z" fill="black" stroke="black" stroke-width="0.355623" stroke-linecap="round" stroke-linejoin="round"/>
<path id="path716" d="M11.6626 5.01468L11.4715 7.12164C13.3823 6.75521 15.962 6.66361 18.8282 7.85449V5.01468H11.6626Z" fill="black" stroke="black" stroke-width="0.533434" stroke-linecap="round" stroke-linejoin="round"/>
<path id="path718" d="M15.7709 19.9466C15.6754 15.6411 11.7582 11.0607 8.70081 12.4349L9.65623 10.1447C12.2359 8.77057 16.8219 12.8013 17.2041 16.9236L15.7709 19.9466Z" fill="black" stroke="black" stroke-width="0.355623" stroke-linecap="round" stroke-linejoin="round"/>
<path id="path720" d="M6.31219 16.7404C8.50967 13.4426 12.618 10.6027 18.5416 14.0838L19.1149 11.7936C12.8091 8.31256 8.89184 11.6104 7.17208 15.0915L6.31219 16.7404Z" fill="black" stroke="black" stroke-width="0.355623" stroke-linecap="round" stroke-linejoin="round"/>
</g>
</g>
</svg>
