<svg width="55" height="21" viewBox="0 0 55 21" fill="none" xmlns="http://www.w3.org/2000/svg">
<g id="shoes-4">
<g id="left_shoes">
<path id="path4017" d="M50.3955 12.8761C47.9844 10.9803 39.8074 4.20982 39.5977 4.66119C40.9606 7.82077 47.9844 11.6123 44.3152 11.9733C36.1382 12.9664 31.8401 4.39037 31.8401 4.39037C31.8401 4.39037 30.0579 5.29309 29.6386 7.64021C29.3241 10.0776 29.6386 16.6676 29.6386 16.6676H32.7836V12.7858C32.7836 12.7858 33.4126 13.5983 34.5658 14.501C37.1866 16.7579 37.9204 20.5494 49.6617 19.7369C52.1777 19.5563 53.4357 18.112 53.6454 17.48C54.2744 16.1259 53.4357 15.1329 50.3955 12.8761V12.8761Z" fill="#BA0000" stroke="black" stroke-width="0.396875" stroke-miterlimit="10" stroke-linecap="round" stroke-linejoin="round"/>
<path id="path4019" d="M48.0893 14.9524C50.5004 13.8691 41.6944 5.56391 41.6944 5.56391C40.8558 4.39035 39.0736 1.32105 36.9769 1.05022C33.3078 0.598856 32.2595 3.30706 32.3643 4.48061C32.8885 7.91101 42.1138 17.6606 48.0893 14.9524Z" fill="#EBC3A5" stroke="black" stroke-width="0.396875" stroke-linecap="round" stroke-linejoin="round"/>
</g>
<g id="right_shoes">
<path id="path4023" d="M3.63189 12.8761C6.04306 10.9803 14.22 4.20982 14.4297 4.66119C13.0669 7.82077 6.04306 11.6123 9.71222 11.9733C17.8892 12.9664 22.1874 4.39037 22.1874 4.39037C22.1874 4.39037 23.9695 5.29309 24.3889 7.64021C24.7034 10.0776 24.3889 16.6676 24.3889 16.6676H21.2439V12.7858C21.2439 12.7858 20.6149 13.5983 19.4617 14.501C16.8409 16.7579 16.107 20.5494 4.36573 19.7369C1.84974 19.5563 0.591735 18.112 0.382068 17.48C-0.142097 16.2162 0.696566 15.2232 3.63189 12.8761V12.8761Z" fill="#BA0000" stroke="black" stroke-width="0.396875" stroke-miterlimit="10" stroke-linecap="round" stroke-linejoin="round"/>
<path id="path4025" d="M5.93818 14.9524C3.52702 13.8691 12.333 5.56391 12.333 5.56391C13.1717 4.39035 14.9538 1.32105 17.0505 1.05022C20.7197 0.598856 21.768 3.30706 21.6632 4.48061C21.139 8.00129 12.0185 17.6606 5.93818 14.9524Z" fill="#EBC3A5" stroke="black" stroke-width="0.396875" stroke-linecap="round" stroke-linejoin="round"/>
</g>
</g>
</svg>
