<svg width="56" height="17" viewBox="0 0 56 17" fill="none" xmlns="http://www.w3.org/2000/svg">
<g id="shoes-1">
<g id="right_shoes">
<path id="path516" d="M10.3764 6.30079C11.5884 4.22897 11.069 2.3373 13.2333 1.61667C14.1856 1.34643 15.9171 0.445636 17.9083 1.88691C18.7741 2.87778 23.0162 2.15715 23.0162 2.15715C23.449 5.03969 23.0162 12.3361 22.4967 13.5071C21.025 16.0294 16.6097 15.0385 16.4365 15.0385L5.96109 9.99405C5.78794 9.99405 8.90461 8.64286 10.3764 6.30079Z" fill="#1D1D1D" stroke="black" stroke-width="0.564257" stroke-linecap="round" stroke-linejoin="round"/>
<g id="XMLID_15_">
<path d="M17.562 15.6691H1.71897C1.71897 15.6691 0.160642 15.6691 1.6324 12.6064C2.75786 10.8949 6.82685 6.48097 13.7528 9.36351" fill="#1D1D1D"/>
<path d="M17.562 15.6691H1.71897C1.71897 15.6691 0.160642 15.6691 1.6324 12.6064C2.75786 10.8949 6.82685 6.48097 13.7528 9.36351" stroke="black" stroke-width="0.564257" stroke-linecap="round" stroke-linejoin="round"/>
</g>
<path id="path519" d="M23.0165 14.7682L21.8044 14.8583C21.7179 14.9484 21.7178 13.0567 21.6313 13.0567C21.4581 13.1468 21.1984 15.7591 21.0253 15.8492C20.3327 16.2095 19.5535 16.5698 19.0341 16.6599C18.0817 16.75 3.01786 16.6599 1.97897 16.6599C0.334064 15.3087 1.37295 13.5972 1.37295 13.5972C1.37295 13.5972 18.0817 14.0476 19.2072 13.5972C20.1595 10.8948 22.9299 10.0841 22.9299 10.0841L23.0165 14.7682Z" fill="#1D1D1D" stroke="black" stroke-width="0.564257" stroke-linecap="round" stroke-linejoin="round"/>
</g>
<g id="left_shoes">
<path id="path523" d="M49.9407 9.99404L39.6384 14.9484C39.4653 14.9484 35.1366 15.8492 33.5782 13.4171C33.0588 12.246 32.6259 4.9496 33.0588 2.06705C33.0588 2.06705 37.3009 2.87777 38.1666 1.79681C40.2444 0.355543 41.8893 1.25635 42.8416 1.52659C45.006 2.24722 44.3134 4.22897 45.6986 6.21071C47.0838 8.64286 50.1139 9.99404 49.9407 9.99404V9.99404Z" fill="#1D1D1D" stroke="black" stroke-width="0.564257" stroke-linecap="round" stroke-linejoin="round"/>
<g id="XMLID_14_">
<path d="M42.1491 9.3635C48.9884 6.48097 53.144 10.8048 54.2694 12.6063C55.7412 15.669 54.1829 15.6691 54.1829 15.6691H38.4264" fill="#1D1D1D"/>
<path d="M42.1491 9.3635C48.9884 6.48097 53.144 10.8048 54.2694 12.6063C55.7412 15.669 54.1829 15.6691 54.1829 15.6691H38.4264" stroke="black" stroke-width="0.564257" stroke-linecap="round" stroke-linejoin="round"/>
</g>
<path id="path526" d="M33.0593 9.90396C33.0593 9.90396 35.8296 10.7147 36.7819 13.4171C37.9074 13.8675 54.3565 13.4171 54.3565 13.4171C54.3565 13.4171 55.8282 15.579 54.0102 16.4798C53.0579 16.4798 37.994 16.5698 36.9551 16.4798C36.5222 16.4798 35.7431 16.1194 34.9639 15.669C34.7907 15.579 34.531 12.9667 34.3579 12.8766C34.2713 12.7865 34.1847 14.6782 34.1847 14.6782L32.9727 14.5881L33.0593 9.90396Z" fill="#1D1D1D" stroke="black" stroke-width="0.564257" stroke-linecap="round" stroke-linejoin="round"/>
</g>
</g>
</svg>
