<svg width="49" height="50" viewBox="0 0 49 50" fill="none" xmlns="http://www.w3.org/2000/svg">
<path d="M47.7671 26.9308C47.4572 24.7385 46.7344 23.7854 44.7722 24.1666C44.7722 24.0713 44.7722 23.976 44.7722 23.69C44.7722 10.0599 35.5811 1.00491 24.4278 1.00491C24.3246 1.00491 24.2213 1.00491 24.118 1.00491C24.0147 1.00491 23.9115 1.00491 23.8082 1.00491C12.6549 1.00491 3.4638 10.0599 3.4638 23.69C3.4638 23.7854 3.4638 23.8807 3.4638 24.1666C1.39838 23.69 0.675482 24.8338 0.46894 26.9308C-0.150686 30.7434 4.80632 35.5092 7.28483 35.1279C7.59464 35.1279 9.66007 39.5125 9.96988 39.989C11.7255 42.4672 13.7909 45.3267 16.3727 47.1377C18.6446 48.7581 21.5362 49.044 24.3245 49.044C27.4227 49.044 30.5208 48.4721 32.896 46.4705C34.8582 44.8501 36.5105 42.9438 37.9563 40.9422C38.6792 39.989 39.4021 38.9406 39.9185 37.7968C40.125 37.5108 40.9512 35.1279 41.261 35.1279C44.0493 35.6045 48.3867 30.7434 47.7671 26.9308V26.9308Z" fill="#EBC3A5" stroke="black" stroke-width="0.396875" stroke-linecap="round" stroke-linejoin="round"/>
<path d="M22.466 27.5027C21.4333 29.3137 22.466 31.4106 21.0202 34.0794C20.6071 36.367 22.1562 36.5576 24.2216 36.2717" stroke="black" stroke-width="0.264583" stroke-linecap="round" stroke-linejoin="round"/>
<path d="M45.4952 26.8355C45.4952 26.8355 42.2938 25.787 42.2938 31.7919" stroke="black" stroke-width="0.264583" stroke-linecap="round" stroke-linejoin="round"/>
<path d="M44.9787 29.0277C44.9787 29.0277 44.5656 27.7886 43.0165 27.9792" stroke="black" stroke-width="0.264583" stroke-linecap="round" stroke-linejoin="round"/>
<path d="M3.5672 26.8355C3.5672 26.8355 6.7686 25.8823 6.7686 31.7919" stroke="black" stroke-width="0.264583" stroke-linecap="round" stroke-linejoin="round"/>
<path d="M4.08356 29.0277C4.08356 29.0277 4.39337 27.9792 5.52935 27.9792" stroke="black" stroke-width="0.264583" stroke-linecap="round" stroke-linejoin="round"/>
</svg>
