<svg width="50" height="53" viewBox="0 0 50 53" fill="none" xmlns="http://www.w3.org/2000/svg">
<path d="M49.2197 27.377C48.9218 24.8464 46.3402 23.581 44.3544 24.5544C44.4537 23.9704 44.4537 24.749 44.4537 24.165C44.4537 10.2465 38.5955 1 24.8934 1C10.3969 1 5.33305 10.2465 5.33305 24.165C5.33305 24.2624 5.33305 24.457 5.33305 24.5544C3.34723 24.0677 1.3614 25.1384 1.06353 27.377C0.467784 31.2703 4.14155 36.2342 8.90752 35.8449C10.4962 38.4729 13.6735 52.3913 24.9927 52.3913C36.6097 52.3913 39.787 38.8622 41.2764 36.0396C41.2764 36.3315 41.1771 35.8449 41.1771 36.1369C46.0424 36.8182 49.8154 31.3676 49.2197 27.377Z" fill="#EBC3A5" stroke="black" stroke-width="0.638126" stroke-linecap="round" stroke-linejoin="round"/>
<path d="M6.82239 28.3503C6.22664 27.377 5.5316 26.793 3.94294 27.085C3.04932 27.4743 3.14861 28.545 3.14861 28.545" stroke="black" stroke-width="0.425417" stroke-linecap="round" stroke-linejoin="round"/>
<path d="M5.63086 27.5717C4.63794 29.129 4.63794 30.9783 5.63086 32.5356" stroke="black" stroke-width="0.425417" stroke-linecap="round" stroke-linejoin="round"/>
<path d="M42.8651 28.253C43.5601 27.377 44.2551 26.793 45.7445 27.085C46.5388 27.377 46.5388 28.3503 46.5388 28.3503" stroke="black" stroke-width="0.425417" stroke-linecap="round" stroke-linejoin="round"/>
<path d="M44.1557 27.5717C45.0494 29.129 44.9501 31.0756 43.9572 32.5356" stroke="black" stroke-width="0.425417" stroke-linecap="round" stroke-linejoin="round"/>
<path d="M23.466 32.5027C22.4333 34.3137 23.466 36.4106 22.0202 39.0794C21.6071 41.367 23.1562 41.5576 25.2216 41.2717" stroke="black" stroke-width="0.264583" stroke-linecap="round" stroke-linejoin="round"/>
<path opacity="0.25" d="M40.8795 33.5089C40.8795 32.5356 39.2908 31.7569 38.7943 32.5356C37.4043 34.7742 37.2057 37.1102 36.2128 38.6675C35.2199 40.3222 29.3617 39.6408 24.9929 39.5435C20.5248 39.3488 14.6666 40.4195 13.773 38.6675C12.7801 37.1102 12.1843 34.2876 10.8936 32.1463C10.3971 31.3676 9.20561 32.2436 9.20561 33.2169C9.10632 35.8449 9.70206 34.9689 10.5957 37.6942C11.8865 41.4901 13.9716 44.9941 15.3617 46.7461C18.4397 50.542 22.0142 51.6127 25.1915 51.6127C28.9645 51.6127 32.2411 49.5687 34.0284 47.6221C36.0142 45.8701 38.3972 41.2955 39.688 37.5969C40.383 35.0662 40.9787 36.2342 40.8795 33.5089V33.5089Z" fill="#754C24"/>
</svg>
