<svg width="46" height="54" viewBox="0 0 46 54" fill="none" xmlns="http://www.w3.org/2000/svg">
<path d="M45.5134 27.7742C45.3204 25.6365 43.005 24.4705 41.5579 24.3733C42.1367 21.9441 41.7508 6.29988 31.8139 2.70463C26.6042 0.858414 19.465 0.566907 14.2553 2.41312C4.22185 6.00837 3.83594 21.8469 4.22184 24.3733C2.96766 24.4705 0.652246 25.5393 0.459295 27.6771C-0.0230829 32.3412 4.31832 38.2685 8.17734 37.5883C8.17734 37.4911 8.17734 37.2968 8.17734 37.1996C9.43152 39.9203 11.7469 47.8882 13.8694 48.4712C18.5967 49.8316 21.1051 50.3174 22.7451 50.2203C24.4817 50.2203 26.9901 49.7344 31.6209 48.4712C33.8398 47.791 36.0588 39.9203 37.313 37.1996C37.313 37.2968 37.313 37.4911 37.313 37.5883C41.4614 38.2685 45.9958 32.4383 45.5134 27.7742Z" fill="#EBC3A5" stroke="black" stroke-width="0.396875" stroke-linecap="round" stroke-linejoin="round"/>
<path d="M5.86177 29.1346C4.70407 27.4827 3.64284 26.511 2.5816 28.1629" stroke="black" stroke-width="0.264583" stroke-linecap="round" stroke-linejoin="round"/>
<path d="M4.60761 28.163C4.12523 30.5922 4.60761 32.5356 6.24769 33.8959" stroke="black" stroke-width="0.264583" stroke-linecap="round" stroke-linejoin="round"/>
<path d="M40.207 29.1346C41.3647 27.4827 42.4259 26.511 43.4871 28.1629" stroke="black" stroke-width="0.264583" stroke-linecap="round" stroke-linejoin="round"/>
<path d="M41.4612 28.163C41.9436 30.5922 41.4612 32.5356 39.8211 33.8959" stroke="black" stroke-width="0.264583" stroke-linecap="round" stroke-linejoin="round"/>
<path d="M22.958 47.3266C21.7938 47.3266 20.6296 46.3777 19.6444 46.7731C18.5697 47.1685 17.4055 44.559 16.2413 44.7962C15.077 45.0334 14.8979 42.503 13.8232 42.3448C12.659 42.1867 12.2112 40.2098 11.4947 39.0237C7.64376 32.4604 5.94217 24.4737 5.22571 25.0273C3.97191 26.0552 8.27066 38.6283 10.0618 43.2147C11.8529 47.8011 14.3606 49.778 16.5099 51.6758C18.0324 53.0201 21.346 53.0991 23.0476 52.941C24.7492 53.0201 28.0628 53.0201 29.5853 51.6758C31.7347 49.778 34.2422 47.8801 36.0334 43.2147C37.8245 38.5492 41.7651 25.2645 40.8695 25.0273C40.0635 24.8691 38.3619 32.8558 34.4214 39.34C33.7945 40.447 33.078 42.503 32.272 42.4239C31.466 42.3448 30.3017 45.3497 29.4957 45.1125C28.7793 44.8753 27.5255 46.9312 26.7194 46.694C25.8239 46.3777 24.2118 47.3266 22.958 47.3266V47.3266Z" fill="black" stroke="black" stroke-width="0.396875" stroke-linecap="round" stroke-linejoin="round"/>
<path d="M23.3051 30.2688C23.3051 30.2688 22.6073 34.1214 21.112 37.1072C21.4111 38.263 24.302 38.263 24.302 38.263" stroke="black" stroke-width="0.422896" stroke-linecap="round" stroke-linejoin="round"/>
</svg>
