<svg width="49" height="52" viewBox="0 0 49 52" fill="none" xmlns="http://www.w3.org/2000/svg">
<path d="M40.7502 36.9741C40.7502 36.9741 40.7502 37.0704 40.6505 37.0704C39.6536 38.5152 39.1552 41.3083 35.7658 45.0647C32.9746 48.1468 28.4887 50.5547 25.0993 50.9399C24.9996 50.9399 24.8999 50.9399 24.8002 50.9399C24.7005 50.9399 24.6009 50.9399 24.5012 50.9399C24.4015 50.9399 24.4015 50.9399 24.3018 50.9399C20.9124 50.9399 16.0278 48.4357 13.0371 45.0647C9.54809 41.1157 8.94996 38.4189 8.05278 36.9741C3.36748 37.3594 -0.121567 32.5436 0.476556 28.6909C0.67593 26.572 2.37061 25.4162 4.36436 25.8978V25.4162C4.36436 11.643 13.2365 0.56665 24.0027 0.56665H24.6009C35.3671 0.56665 44.2392 11.643 44.2392 25.4162V25.8978C46.1333 25.5125 47.828 26.4757 48.127 28.6909C48.7251 32.5436 45.2361 37.4557 40.7502 36.9741V36.9741Z" fill="#EBC3A5" stroke="black" stroke-width="0.634345" stroke-linecap="round" stroke-linejoin="round"/>
<path d="M42.2457 29.9431C43.0432 28.2094 47.4294 27.0536 46.4325 29.8467" stroke="black" stroke-width="0.422896" stroke-linecap="round" stroke-linejoin="round"/>
<path d="M43.7409 28.7872C44.9371 30.7136 44.04 33.3141 42.3453 34.6625" stroke="black" stroke-width="0.422896" stroke-linecap="round" stroke-linejoin="round"/>
<path d="M6.45787 29.9431C5.66037 28.2094 1.27414 27.0536 2.27101 29.8467" stroke="black" stroke-width="0.422896" stroke-linecap="round" stroke-linejoin="round"/>
<path d="M4.96267 28.7872C3.76642 30.7136 4.66361 33.3141 6.35829 34.6625" stroke="black" stroke-width="0.422896" stroke-linecap="round" stroke-linejoin="round"/>
<path d="M23.3051 29.2688C23.3051 29.2688 22.6073 33.1214 21.112 36.1072C21.4111 37.263 24.302 37.263 24.302 37.263" stroke="black" stroke-width="0.422896" stroke-linecap="round" stroke-linejoin="round"/>
<path d="M26.1959 49.0135C26.1959 49.0135 25.3985 47.7614 23.9032 47.8577C22.5075 47.9541 21.71 49.0135 21.71 49.0135C19.4172 48.3393 14.6322 44.583 14.7319 41.1156C15.2304 38.9967 20.3144 39.6709 23.9032 39.5746C27.791 39.4782 32.7753 39.3819 33.2737 41.6935C32.9747 45.1609 28.09 48.7246 26.1959 49.0135ZM41.149 26.5719C40.3515 32.9288 37.3609 36.3961 34.1709 37.3593C31.4794 37.9372 29.685 38.6114 24.3019 38.3225C18.9188 38.0335 15.3301 38.804 12.6385 36.6851C11.1432 35.433 8.35195 30.8098 6.95633 26.8608L4.96259 28.2093C5.56071 30.5209 7.9532 33.6993 8.05289 36.974C8.95007 38.4188 9.54819 41.1156 13.0372 45.0646C16.0279 48.4356 20.9125 50.9399 24.3019 50.9399C24.4016 50.9399 24.4016 50.9399 24.5013 50.9399C24.601 50.9399 24.7006 50.9399 24.8003 50.9399C24.9 50.9399 24.9997 50.9399 25.0994 50.9399C28.4888 50.5546 32.9747 48.1467 35.7659 45.0646C39.1553 41.3082 39.7534 38.6114 40.6506 37.0703C41.4481 33.4103 42.1459 29.0761 42.2456 27.0535L41.149 26.5719Z" fill="#754C24" stroke="black" stroke-width="0.634345" stroke-linecap="round" stroke-linejoin="round"/>
</svg>
