<svg width="30" height="25" viewBox="0 0 30 25" fill="none" xmlns="http://www.w3.org/2000/svg">
<g id="facial_exp_1">
<path id="path10038" d="M3.242 4.16656C2.20929 4.64314 2.00278 7.02603 2.82895 7.50261C5.20418 9.31361 10.0579 6.45413 11.9168 7.78855C11.9168 7.78855 11.5037 6.64475 10.5743 6.16817C9.64484 5.69159 6.4434 2.54619 3.242 4.16656Z" fill="white" stroke="black" stroke-width="0.264583" stroke-miterlimit="10" stroke-linecap="round" stroke-linejoin="round"/>
<path id="path10040" d="M19.7652 6.26344C18.8358 6.83533 18.6293 7.97913 18.6293 7.97913C21.0045 6.5494 24.7223 9.31354 27.6139 7.21659C28.44 6.74001 28.1302 4.83371 27.0975 3.97586C25.4452 3.02271 21.9339 4.73838 19.7652 6.26344Z" fill="white" stroke="black" stroke-width="0.264583" stroke-miterlimit="10" stroke-linecap="round" stroke-linejoin="round"/>
<path id="path10042" d="M29.7824 0.639862C29.7824 0.639862 20.5913 2.73681 18.1128 5.40565C17.4932 6.07286 19.3521 6.54945 20.075 6.07287C20.6946 5.50097 23.896 1.97428 29.7824 0.639862Z" fill="#754C24" stroke="black" stroke-width="0.264583" stroke-linecap="round" stroke-linejoin="round"/>
<path id="path10044" d="M25.8583 5.88219C25.9616 7.02597 25.1354 7.59786 23.8962 7.69318C22.6569 7.78849 21.521 7.50255 21.4177 6.35876C21.3144 5.21498 22.2438 4.92903 23.3798 4.45245C24.7223 3.88056 25.7551 4.7384 25.8583 5.88219Z" fill="black" stroke="black" stroke-width="0.264583" stroke-miterlimit="10" stroke-linecap="round" stroke-linejoin="round"/>
<path id="path10046" d="M9.02496 6.35878C8.92169 7.40726 7.99223 7.6932 6.75298 7.6932C5.617 7.59788 4.68756 7.31193 4.68756 6.16814C4.68756 5.02435 5.82355 3.88057 6.95954 4.26183C8.30206 4.54777 9.12823 5.215 9.02496 6.35878V6.35878Z" fill="black" stroke="black" stroke-width="0.264583" stroke-miterlimit="10" stroke-linecap="round" stroke-linejoin="round"/>
<path id="path10048" opacity="0.3" d="M17.2868 4.26181C15.9443 5.02434 16.2541 6.93067 17.4934 7.40725C16.8738 6.45409 16.2541 5.50091 17.2868 4.26181Z" fill="black"/>
<path id="path10050" d="M10.3676 6.07287C11.0905 6.54945 12.9494 6.07286 12.3298 5.40565C9.85127 2.73681 0.660095 0.639862 0.660095 0.639862C6.54654 1.97428 9.74797 5.50097 10.3676 6.07287Z" fill="#754C24" stroke="black" stroke-width="0.264583" stroke-linecap="round" stroke-linejoin="round"/>
<path id="path10052" opacity="0.3" d="M13.2594 4.26181C14.3954 5.02434 14.2921 6.93067 13.0529 7.40725C13.7758 6.35877 13.9823 5.31028 13.2594 4.26181Z" fill="black"/>
<path id="path10054" d="M19.5588 24.1829C19.2489 23.325 17.9064 21.3234 15.3246 21.3234C12.9494 21.3234 11.1938 23.325 10.884 24.2782" stroke="black" stroke-width="0.264583" stroke-miterlimit="10" stroke-linecap="round" stroke-linejoin="round"/>
</g>
</svg>
