<svg width="33" height="33" viewBox="0 0 33 33" fill="none" xmlns="http://www.w3.org/2000/svg">
<g id="facial_exp_5">
<g id="gls_1636366050558">
<g id="g370">
<path id="path356" d="M13.4999 26.9044C13.4999 26.9044 17.7449 29.7223 22.9545 27.0015" stroke="black" stroke-width="0.264583" stroke-miterlimit="10" stroke-linecap="round" stroke-linejoin="round"/>
<path id="path358" d="M6.07111 11.2196C5.10635 11.7054 5.10636 12.8714 5.87816 13.2601C8.19358 15.0092 13.4033 13.8431 15.0433 13.6488C15.0433 13.6488 14.561 11.8997 13.5962 11.3167C12.8244 11.0252 9.06185 9.37338 6.07111 11.2196Z" fill="white" stroke="black" stroke-width="0.264583" stroke-miterlimit="10" stroke-linecap="round" stroke-linejoin="round"/>
<path id="path360" d="M22.7613 11.2196C21.7965 11.7054 21.3141 13.5516 21.3141 13.5516C22.9542 13.746 27.5851 15.0092 30.4793 13.0658C31.2511 12.6771 31.1546 12.0941 30.3828 11.2196C29.0322 9.95639 24.9802 9.85922 22.7613 11.2196Z" fill="white" stroke="black" stroke-width="0.264583" stroke-miterlimit="10" stroke-linecap="round" stroke-linejoin="round"/>
<path id="path362" d="M3.56281 8.20734C3.56281 8.20734 11.7632 4.70923 15.2364 5.48659C16.2011 5.68092 15.0434 7.13847 14.1751 7.13847C13.4033 7.13847 8.77249 5.97245 3.56281 8.20734Z" fill="black" stroke="black" stroke-width="0.264583" stroke-linecap="round" stroke-linejoin="round"/>
<path id="path364" d="M32.6986 8.20734C32.6986 8.20734 24.4982 4.70923 21.025 5.48659C20.0603 5.68092 21.218 7.13847 22.0863 7.13847C22.9546 7.13847 27.5854 5.97245 32.6986 8.20734Z" fill="black" stroke="black" stroke-width="0.264583" stroke-linecap="round" stroke-linejoin="round"/>
<path id="path366" d="M26.2346 10.345C27.3923 10.345 28.3571 11.0252 28.3571 12.1913C28.3571 13.3573 27.3923 13.9403 26.2346 13.9403C25.0769 13.9403 24.1121 13.3573 24.1121 12.1913C24.1121 11.0252 25.0769 10.345 26.2346 10.345Z" fill="black" stroke="black" stroke-width="0.264583" stroke-miterlimit="10" stroke-linecap="round" stroke-linejoin="round"/>
<path id="path368" d="M10.1231 10.6365C11.2809 10.6365 12.1491 11.3167 12.1491 12.3856C12.1491 13.4544 11.2809 14.0374 10.1231 14.0374C8.96544 14.0374 8.09717 13.5516 8.09717 12.3856C8.09717 11.2195 8.96544 10.6365 10.1231 10.6365Z" fill="black" stroke="black" stroke-width="0.264583" stroke-miterlimit="10" stroke-linecap="round" stroke-linejoin="round"/>
</g>
</g>
</g>
</svg>
