<svg width="34" height="32" viewBox="0 0 34 32" fill="none" xmlns="http://www.w3.org/2000/svg">
<g id="facial_exp_2">
<g id="gls_1636367516691">
<g id="g5740">
<path id="path5728" d="M11.2199 24.5276C13.1064 29.1996 20.1561 28.6156 20.1561 28.6156" stroke="black" stroke-width="0.425417" stroke-miterlimit="10" stroke-linecap="round" stroke-linejoin="round"/>
<path id="path5730" d="M22.7376 10.4145C21.7447 10.9985 21.2482 12.7504 21.2482 12.7504C23.4326 11.7771 28.2979 14.1131 30.6809 12.3611C31.4752 11.9718 31.4752 10.8038 30.4823 10.3171C27.4043 8.37049 23.4326 10.0251 22.7376 10.4145Z" fill="white" stroke="black" stroke-width="0.425417" stroke-miterlimit="10" stroke-linecap="round" stroke-linejoin="round"/>
<path id="path5732" d="M22.0426 5.45053C21.149 5.45053 19.9575 3.99057 20.9504 3.7959C28.2979 2.14126 32.9646 6.52119 32.9646 6.52119C27.4043 2.72524 22.9362 5.3532 22.0426 5.45053Z" fill="#754C24" stroke="black" stroke-width="0.425417" stroke-linecap="round" stroke-linejoin="round"/>
<path id="path5734" d="M14.1986 7.00786C14.9929 7.10519 16.383 5.93721 15.4894 5.54788C12.1135 4.0879 3.17731 6.13188 3.17731 6.13188C8.93618 4.76923 13.305 6.71586 14.1986 7.00786V7.00786Z" fill="#754C24" stroke="black" stroke-width="0.425417" stroke-linecap="round" stroke-linejoin="round"/>
<path id="path5736" d="M26.312 9.53851C27.5035 9.53851 28.3971 10.2198 28.3971 11.3878C28.3971 12.5558 27.5035 12.8478 26.312 12.8478C25.1205 12.8478 24.2269 12.4585 24.2269 11.3878C24.2269 10.3172 25.2198 9.53851 26.312 9.53851Z" fill="black" stroke="black" stroke-width="0.425417" stroke-miterlimit="10" stroke-linecap="round" stroke-linejoin="round"/>
<path id="path5738" d="M5.26251 11.3878C6.35471 10.1225 11.1207 8.75985 13.8015 11.6798" stroke="black" stroke-width="0.425417" stroke-linecap="round" stroke-linejoin="round"/>
</g>
</g>
</g>
</svg>
