<svg width="33" height="30" viewBox="0 0 33 30" fill="none" xmlns="http://www.w3.org/2000/svg">
<g id="facial_exp_4">
<g id="gls_1636367405435">
<g id="g7631">
<path id="path7617" d="M6.00759 9.89204C5.06378 10.3487 5.06379 11.4448 5.81883 11.8102C8.08395 13.4543 13.1805 12.3582 14.785 12.1756C14.785 12.1756 14.3131 10.5314 13.3692 9.98336C12.7086 9.70934 8.93337 8.15657 6.00759 9.89204Z" fill="white" stroke="black" stroke-width="0.410109" stroke-miterlimit="10" stroke-linecap="round" stroke-linejoin="round"/>
<path id="path7619" d="M22.3354 9.98338C21.3916 10.4401 20.9197 12.1756 20.9197 12.1756C23.5624 11.2622 27.9039 12.1756 29.8859 11.8102C30.6409 11.4448 30.5465 10.8968 29.7915 10.0747C28.4702 8.79596 24.5062 8.70461 22.3354 9.98338Z" fill="white" stroke="black" stroke-width="0.410109" stroke-miterlimit="10" stroke-linecap="round" stroke-linejoin="round"/>
<path id="path7621" d="M3.55383 7.06051C3.55383 7.06051 11.5762 3.77223 14.9738 4.50296C15.9177 4.68564 14.7851 6.05576 13.9357 6.05576C13.1806 6.05576 8.65037 4.95968 3.55383 7.06051Z" fill="#754C24" stroke="black" stroke-width="0.410109" stroke-linecap="round" stroke-linejoin="round"/>
<path id="path7623" d="M21.5804 6.2385C20.8253 6.05582 19.4096 7.06056 20.1646 7.51726C23.2792 9.07005 31.8678 7.88261 31.8678 7.88261C26.3937 8.70468 22.3354 6.51252 21.5804 6.2385V6.2385Z" fill="#754C24" stroke="black" stroke-width="0.410109" stroke-linecap="round" stroke-linejoin="round"/>
<path id="path7625" d="M28.0927 10.8968C28.0927 11.9929 27.1489 11.7189 26.0164 11.7189C24.8838 11.7189 23.94 11.9929 23.94 10.8968C23.94 9.8007 24.8838 9.06998 26.0164 9.06998C27.1489 9.06998 28.0927 9.8007 28.0927 10.8968Z" fill="black" stroke="black" stroke-width="0.410109" stroke-miterlimit="10" stroke-linecap="round" stroke-linejoin="round"/>
<path id="path7627" d="M9.97154 9.25266C11.1041 9.25266 11.9535 9.89203 11.9535 10.9881C11.9535 12.0842 11.1041 12.5409 9.97154 12.5409C8.83898 12.5409 7.98956 12.0842 7.98956 10.9881C7.98956 9.89203 8.93336 9.25266 9.97154 9.25266Z" fill="black" stroke="black" stroke-width="0.410109" stroke-miterlimit="10" stroke-linecap="round" stroke-linejoin="round"/>
<path id="path7629" d="M23.1849 26.0593C22.5243 24.9632 20.1648 25.6026 16.5783 28.0688" stroke="black" stroke-width="0.410109" stroke-miterlimit="10" stroke-linecap="round" stroke-linejoin="round"/>
</g>
</g>
</g>
</svg>
