<svg width="34" height="31" viewBox="0 0 34 31" fill="none" xmlns="http://www.w3.org/2000/svg">
<g id="facial_exp_3">
<g id="gls_1636367540349">
<g id="g2256">
<path id="path2242" d="M13.3194 28.3374C15.0091 29.2884 20.8736 28.908 20.8736 28.908C17.6929 29.0982 13.5182 27.2914 12.6236 24.5338C12.4248 25.4847 12.5242 27.7669 13.3194 28.3374Z" fill="white" stroke="black" stroke-width="0.422896" stroke-miterlimit="10" stroke-linecap="round" stroke-linejoin="round"/>
<path id="path2244" d="M22.7621 10.1748C21.7682 10.6503 21.2712 11.9815 21.2712 11.9815C22.9609 12.1717 28.3284 13.3128 30.7139 11.6012C31.5091 11.2208 31.5091 10.7454 30.5152 10.2699C27.4338 8.36806 23.4579 9.69934 22.7621 10.1748Z" fill="white" stroke="black" stroke-width="0.422896" stroke-miterlimit="10" stroke-linecap="round" stroke-linejoin="round"/>
<path id="path2246" d="M5.46708 10.4601C4.6719 11.316 4.57249 11.2208 5.36767 11.6012C8.449 13.408 13.1207 12.1718 14.8104 11.9816C14.8104 11.9816 14.3135 10.8405 13.3195 10.365C10.9339 9.03374 6.95804 9.12884 5.46708 10.4601Z" fill="white" stroke="black" stroke-width="0.422896" stroke-miterlimit="10" stroke-linecap="round" stroke-linejoin="round"/>
<path id="path2248" d="M22.0664 4.27916C21.1718 4.27916 19.9791 2.85277 20.973 2.66258C24.5513 1.90185 33.0001 5.32515 33.0001 5.32515C27.6327 3.04294 22.961 4.18407 22.0664 4.27916Z" fill="#754C24" stroke="black" stroke-width="0.422896" stroke-linecap="round" stroke-linejoin="round"/>
<path id="path2250" d="M3.97601 4.37418C3.97601 4.37418 9.64167 9.50915 14.8103 9.22388C15.7049 9.31897 15.0091 7.60732 14.2139 7.41713C13.4188 7.32204 8.7471 7.98768 3.97601 4.37418V4.37418Z" fill="#754C24" stroke="black" stroke-width="0.422896" stroke-linecap="round" stroke-linejoin="round"/>
<path id="path2252" d="M9.93963 9.50925C11.3312 9.50925 12.1264 9.79452 12.1264 10.9356C12.1264 12.0767 11.1324 12.4571 9.93963 12.4571C8.74686 12.4571 7.75287 12.0767 7.75287 10.9356C7.75287 9.79452 8.64746 9.50925 9.93963 9.50925Z" fill="black" stroke="black" stroke-width="0.422896" stroke-miterlimit="10" stroke-linecap="round" stroke-linejoin="round"/>
<path id="path2254" d="M26.3405 9.31903C27.5333 9.31903 28.5273 9.6994 28.5273 10.8405C28.5273 11.9816 27.6327 12.4571 26.4399 12.4571C25.2471 12.4571 24.3526 11.8865 24.3526 10.8405C24.2532 9.7945 25.3465 9.31903 26.3405 9.31903V9.31903Z" fill="black" stroke="black" stroke-width="0.422896" stroke-miterlimit="10" stroke-linecap="round" stroke-linejoin="round"/>
</g>
</g>
</g>
</svg>
