<svg width="44" height="38" viewBox="0 0 44 38" fill="none" xmlns="http://www.w3.org/2000/svg">
<path opacity="0.3" d="M3.97256 35.07C5.07852 36.6228 7.69262 37.9015 7.69262 37.9015C7.69262 37.9015 7.08937 23.8351 8.29588 22.0996C9.50239 20.3642 13.8257 14.9751 22.4724 15.1578C31.119 15.3404 36.8499 19.6334 38.157 21.8256C39.9667 24.8398 38.9613 37.9929 38.9613 37.9929C38.9613 37.9929 42.4803 35.4353 42.6814 35.07C42.8825 34.7046 43.2846 31.325 42.6814 25.4792C41.676 18.3547 37.1516 11.0474 23.1762 10.7734C15.5349 10.5907 7.49154 13.0569 4.87744 20.7295C2.56497 27.306 3.97256 35.07 3.97256 35.07Z" fill="#754C24"/>
<path opacity="0.3" d="M3.97249 29.2242C5.07846 30.777 7.59202 31.873 7.59202 31.873C7.59202 31.873 7.0893 23.7437 8.29581 22.0996C9.50232 20.4555 13.8256 14.9751 22.4723 15.1577C31.1189 15.3404 36.8499 19.6334 38.1569 21.8256C39.9667 24.8398 39.2629 32.3297 39.2629 32.3297C39.2629 32.3297 42.3797 29.6809 42.7819 29.4982C42.9829 29.4068 42.9829 27.032 42.5808 25.1138C41.0726 18.0806 37.1515 11.0474 23.1761 10.7734C15.5349 10.5907 7.59202 12.6915 4.97792 20.3641C2.66544 26.9407 3.97249 29.2242 3.97249 29.2242V29.2242Z" fill="#754C24"/>
<path opacity="0.3" d="M3.97249 26.9407C5.07846 28.1281 7.59202 29.0415 7.59202 29.0415C7.59202 29.0415 7.0893 22.5564 8.29581 21.2776C9.50232 19.9075 13.8256 15.6145 22.4723 15.7058C31.1189 15.7972 36.8499 19.2681 38.1569 21.0036C39.9667 23.3784 39.2629 29.4069 39.2629 29.4069C39.2629 29.4069 42.3797 27.3061 42.7819 27.1234C42.9829 27.032 42.9829 25.2052 42.5808 23.6524C41.0726 18.0807 37.1515 12.5089 23.1761 12.2349C15.5349 12.1435 7.59202 13.7877 4.97792 19.8161C2.66544 25.2052 3.97249 26.9407 3.97249 26.9407V26.9407Z" fill="#754C24"/>
<path d="M20.0594 1C20.0594 1 29.1082 1.54804 36.2467 8.12456C43.9885 15.3405 44.4912 20.5469 40.369 23.0131C39.5646 23.4698 22.0702 9.03796 21.2659 7.75919C20.361 6.29775 20.0594 1 20.0594 1Z" fill="#754C24" stroke="black" stroke-width="0.615164" stroke-linecap="round" stroke-linejoin="round"/>
<path d="M12.3175 1.73071C12.3175 1.73071 20.763 3.00948 32.426 10.7734C37.5536 14.153 43.8878 21.1862 40.1677 24.1091C39.4639 24.6572 13.7251 8.94661 12.1164 7.66784C10.5077 6.38908 12.3175 1.73071 12.3175 1.73071V1.73071Z" fill="#754C24" stroke="black" stroke-width="0.615164" stroke-linecap="round" stroke-linejoin="round"/>
<path d="M5.48058 4.65363C5.48058 4.65363 13.8256 5.93239 26.5945 12.6002C39.3634 19.2681 40.2683 24.1091 39.2628 24.3832C38.2574 24.6572 7.99414 11.5042 6.08383 10.4994C4.17353 9.49467 5.48058 4.65363 5.48058 4.65363Z" fill="#754C24" stroke="black" stroke-width="0.615164" stroke-linecap="round" stroke-linejoin="round"/>
<path d="M3.46979 18.5374C8.79854 23.0131 28.907 21.2776 36.9504 25.1139C41.2737 25.8446 39.0618 22.8304 39.0618 22.8304C36.0455 19.9075 16.8419 10.7734 2.0622 8.85529C2.0622 8.85529 3.67088 11.0475 4.07305 12.8743C4.57576 14.9751 2.16274 14.7011 1.05677 14.9751C-0.149736 15.3405 3.46979 18.5374 3.46979 18.5374Z" fill="#754C24" stroke="black" stroke-width="0.615164" stroke-linecap="round" stroke-linejoin="round"/>
<path opacity="0.3" d="M13.1219 20.9122C9.50241 20.4555 8.99969 19.2681 8.99969 19.2681C8.99969 19.2681 11.9154 19.2681 13.7252 19.2681C15.5349 19.2681 11.1111 15.6145 11.1111 15.6145C11.1111 15.6145 14.3284 15.7972 15.8366 15.8885C17.3447 15.9798 13.8257 11.8695 13.8257 11.8695C13.8257 11.8695 17.948 11.8695 19.255 11.8695C20.5621 11.8695 17.7469 8.2159 17.7469 8.2159C17.7469 8.2159 19.1545 7.39383 22.774 7.66785C26.4941 7.94188 23.6789 5.47568 23.6789 5.47568C23.6789 5.47568 27.0973 5.65836 28.3038 5.65836C29.5103 5.65836 27.4995 3.00949 27.4995 3.00949C27.4995 3.00949 31.5212 3.28351 33.331 5.93239L35.4423 10.4081C35.4423 10.4081 32.0239 7.39383 29.7114 7.75919C29.7114 7.75919 30.8174 12.2349 31.3201 12.8743C31.3201 12.8743 26.9968 11.4128 24.3827 11.6868C24.3827 11.6868 27.4995 13.331 28.9071 15.4318C28.1027 15.6145 22.1708 13.9703 20.4615 14.2444C20.4615 14.2444 23.3773 16.1625 25.2876 18.9027C24.4832 19.1768 22.8745 17.4413 19.3556 17.9893C19.3556 17.9893 21.0648 22.191 23.3773 22.191C23.3773 22.191 19.255 21.917 17.948 21.6429C16.6409 21.3689 13.1219 20.9122 13.1219 20.9122Z" fill="black"/>
</svg>
