<svg width="50" height="36" viewBox="0 0 50 36" fill="none" xmlns="http://www.w3.org/2000/svg">
<path d="M49.127 23.4446C48.828 21.4219 47.0336 19.303 46.7345 17.8582C47.7314 17.6656 48.2299 16.5098 48.0305 15.8356C46.6349 16.0282 45.3389 15.2577 45.1395 14.1982C45.0399 13.0424 46.0367 12.2719 45.1395 10.3456C43.4449 6.30031 39.7564 5.91504 38.3608 6.01136C38.1615 5.0482 36.5665 3.02556 33.7752 2.54398C30.984 2.0624 30.0868 2.25503 27.5946 2.44766C26.199 2.54398 24.604 1.09924 21.7131 1.00292C18.8221 0.906607 18.5231 3.21819 16.629 3.79609C14.8347 4.37399 11.545 3.50714 9.75061 5.0482C7.95624 6.49294 9.05279 8.90084 5.06531 10.5382C1.47657 11.983 4.16812 14.6798 3.57 17.5693C3.37062 18.8214 1.77564 18.3398 1.17751 21.4219C0.57939 24.504 4.06844 27.8751 0.679077 27.7788C0.679077 30.3793 2.77251 30.1867 2.77251 30.1867C2.77251 30.1867 3.66969 29.5125 5.06531 30.0904C5.06531 31.0535 5.36437 31.7277 5.86281 32.3056C6.06218 33.0762 6.36124 33.943 6.56061 34.8098L9.25217 32.9798C9.85029 32.8835 10.1494 32.4983 10.4484 32.113C6.95937 31.4388 8.15561 25.0819 8.95311 23.2519C9.7506 21.4219 11.6447 18.4361 12.7412 20.9403C15.1337 18.1472 12.6415 16.1245 13.7381 15.4503C14.2365 15.2577 16.0309 18.0509 19.0215 17.0877C21.3143 16.4135 20.4171 14.9687 21.8128 14.7761C22.7099 14.5835 25.0027 14.7761 24.5043 16.7024C27.6943 17.5693 26.9965 13.9093 28.4918 13.813C28.1927 15.0651 29.9871 17.5693 30.4855 17.5693C29.8874 13.4277 35.2705 12.9461 35.769 15.8356C39.3577 14.3909 40.853 19.6882 37.2643 22.1924C37.4636 23.8298 39.258 25.0819 41.4511 24.8893C40.9527 26.1414 40.6536 26.1414 42.2486 28.3567C42.2486 29.1272 42.0492 29.8977 42.1489 30.5719L43.1458 34.3283C43.3452 34.232 44.342 33.7504 44.9402 30.283C44.9402 29.7051 48.1302 31.2462 48.4292 28.8383C44.8405 27.1046 49.6255 25.6598 49.127 23.4446V23.4446Z" fill="#754C24" stroke="black" stroke-width="0.634345" stroke-linecap="round" stroke-linejoin="round"/>
<path d="M36.5664 13.2351C36.3671 9.18981 31.0836 9.7677 30.2861 12.7535C31.4824 10.3456 35.9683 10.2493 36.5664 13.2351Z" fill="white" fill-opacity="0.3"/>
<path d="M36.5665 13.524C39.6568 10.8272 43.0462 14.9688 41.2518 17.5693C42.2487 14.7761 39.2581 11.694 36.5665 13.524Z" fill="white" fill-opacity="0.3"/>
<path d="M46.6348 24.4078C46.6348 24.4078 42.6473 27.2009 46.0367 28.742C43.7439 27.0083 46.6348 24.4078 46.6348 24.4078Z" fill="white" fill-opacity="0.3"/>
<path d="M15.1338 6.30037C12.1432 5.52984 10.7475 6.58931 10.1494 8.9009C11.4453 7.0709 13.14 6.30037 15.1338 6.30037Z" fill="white" fill-opacity="0.3"/>
<path d="M36.5664 6.68559C36.367 3.69979 30.2861 3.60347 27.7939 4.56663C31.3827 4.27769 34.8717 4.56664 36.5664 6.68559Z" fill="white" fill-opacity="0.3"/>
<path d="M20.9156 12.2719C23.4078 12.3682 25.6009 12.8498 25.7006 15.354C25.0028 13.3314 23.0091 12.6571 20.9156 12.2719Z" fill="white" fill-opacity="0.3"/>
<path d="M10.3489 18.0509C5.66364 19.7846 5.9627 23.7335 5.9627 27.4898C6.26176 23.3483 7.15894 19.6882 10.3489 18.0509Z" fill="white" fill-opacity="0.3"/>
<path d="M42.9464 13.813C42.9464 15.9319 43.5445 17.473 46.0367 16.9914C44.1427 16.7024 43.2455 15.4503 42.9464 13.813V13.813Z" fill="white" fill-opacity="0.3"/>
<path d="M13.14 10.9235C14.6353 13.9093 16.33 16.5099 18.9219 15.3541C17.0278 15.2577 14.8347 13.6204 13.14 10.9235Z" fill="white" fill-opacity="0.3"/>
<path d="M43.744 20.0735C43.0462 22.2888 42.149 24.2151 38.959 22.4814C41.4512 23.2519 42.7471 21.9998 43.744 20.0735Z" fill="white" fill-opacity="0.3"/>
<path d="M4.26785 19.1104C2.27411 19.9772 2.67285 22.7704 3.57003 26.1414C3.37066 23.2519 3.37066 20.5551 4.26785 19.1104Z" fill="white" fill-opacity="0.3"/>
<path d="M23.6072 4.56665C23.4079 8.03403 24.6041 9.86403 28.0932 9.47877C25.2022 9.76772 24.2054 7.55245 23.6072 4.56665Z" fill="white" fill-opacity="0.3"/>
</svg>
