<svg width="43" height="29" viewBox="0 0 43 29" fill="none" xmlns="http://www.w3.org/2000/svg">
<g id="hair_5">
<path id="path374" d="M42.2942 23.7375C41.8118 22.0857 46.1532 1.48584 22.0343 1C21.8414 1 21.7449 1 21.5519 1C21.359 1 21.2625 1 21.0696 1C-2.95286 1.48584 1.19559 22.0857 0.809683 23.7375C0.327306 25.3894 1.87091 28.596 1.87091 28.596C4.37928 25.9724 13.8339 22.9602 21.4555 22.9602C29.077 22.9602 38.4352 25.8753 41.04 28.596C41.1365 28.6932 42.6801 25.4866 42.2942 23.7375Z" fill="white" stroke="black" stroke-width="0.396875" stroke-miterlimit="10" stroke-linecap="round" stroke-linejoin="round"/>
<path id="path376" opacity="0.3" d="M3.51111 22.1829C3.51111 22.1829 9.8785 18.1989 21.4556 18.1989C33.0326 18.1989 40.2683 23.2517 40.2683 23.2517C40.2683 23.2517 24.3498 7.9962 3.51111 22.1829V22.1829Z" fill="black"/>
</g>
</svg>
