<svg width="44" height="37" viewBox="0 0 44 37" fill="none" xmlns="http://www.w3.org/2000/svg">
<path d="M42.2723 27.681C38.5985 27.7783 38.2013 36.4409 38.2013 36.4409C38.2013 36.4409 36.4141 35.7596 36.4141 34.9809C36.5134 32.0609 38.3999 23.2037 36.5134 21.7437C36.2155 19.6998 36.2155 17.5585 35.9177 15.6118C35.9177 15.6118 34.9247 16.9745 33.5347 16.7798C32.2439 16.5851 32.7403 12.5945 32.7403 12.5945C32.7403 12.5945 29.1659 15.1252 28.2722 15.3198C27.4779 15.5145 27.2793 13.3732 27.2793 13.3732C27.2793 13.3732 26.7829 14.4438 25.6907 15.6118C24.5985 16.7798 20.2297 16.6825 20.2297 16.6825C20.2297 16.6825 20.9247 16.1958 22.0169 14.9305C23.2084 13.6652 22.8112 11.2319 22.8112 11.2319L18.4424 14.4438C18.4424 14.4438 18.1445 13.1785 16.8538 13.0812C15.563 12.9839 16.4566 14.6385 15.0665 14.6385C13.6765 14.6385 9.70481 11.5239 9.70481 11.5239C9.70481 11.5239 9.50622 14.4438 8.31473 14.9305C7.91757 15.1252 7.61969 14.9305 7.32182 14.6385C6.82536 16.4878 6.82537 19.0184 6.5275 21.6464C4.74026 24.5664 7.61969 31.8663 7.81827 34.5916C7.91757 35.7596 5.83245 36.2462 5.83245 36.2462C5.83245 36.2462 4.74025 27.681 1.86081 27.7783C0.768609 25.4424 0.768614 25.053 1.56294 21.3544C2.0594 18.7264 0.967196 20.4784 1.56294 19.0184C2.25798 17.6558 1.76152 15.9038 1.76152 15.0278C1.76152 14.1518 4.34309 8.40924 5.43529 7.14393C6.52749 5.97594 10.6977 4.41863 12.9814 2.76398C14.9672 1.49866 19.7332 0.91467 21.8183 1.012C24.0027 0.91467 28.6694 1.40133 30.6552 2.76398C33.1375 4.41863 37.1091 5.87861 38.2013 7.14393C39.1943 8.40924 41.8751 14.3465 41.8751 15.0278C41.8751 15.8065 41.3787 17.6558 42.0737 19.0184C42.6694 20.4784 41.5772 18.7264 42.0737 21.3544C42.868 23.4957 42.868 26.1237 42.2723 27.681V27.681Z" fill="#754C24" stroke="black" stroke-width="0.638126" stroke-linecap="round" stroke-linejoin="round"/>
</svg>
