<svg width="46" height="33" viewBox="0 0 46 33" fill="none" xmlns="http://www.w3.org/2000/svg">
<path d="M22.9112 5.19388C15.5789 5.19388 0.707886 6.71893 0.707886 30.0713C0.707886 30.0713 1.43078 29.976 1.53405 29.976C1.94713 29.976 2.46349 30.0713 2.87658 30.2619C3.4962 30.5479 3.90928 30.9291 4.52891 31.2151C5.04527 31.4057 5.87144 31.8823 6.38779 31.5963C8.1434 31.2151 4.42564 20.635 7.62704 17.9662C10.6219 15.3927 15.8887 18.1568 22.9112 18.6334C30.0369 18.5381 35.2004 15.3927 38.1953 17.9662C38.8149 18.4428 39.1247 19.2053 39.3312 20.1584C40.1574 24.3523 38.092 31.6916 39.5378 31.9776C41.2934 32.3588 42.9457 30.0713 42.9457 30.0713C43.6686 29.2134 45.1144 29.5947 45.1144 29.5947C45.1144 6.62361 30.4499 5.19388 22.9112 5.19388V5.19388Z" fill="#754C24" stroke="black" stroke-width="0.396875" stroke-linecap="round" stroke-linejoin="round"/>
<path d="M7.21439 8.14869C10.9321 2.42975 15.7859 5.1939 15.7859 5.1939C15.7859 5.1939 13.5139 16.7271 17.8513 18.0615C17.8513 18.0615 12.9976 20.1585 11.1387 18.3475C9.38309 16.6318 3.59991 13.8676 7.21439 8.14869Z" fill="#754C24" stroke="black" stroke-width="0.396875" stroke-linecap="round" stroke-linejoin="round"/>
<path d="M11.1384 18.3475C11.1384 18.3475 4.32249 11.7707 8.65988 6.24237C8.65988 6.24237 -1.35742 8.91121 7.21408 18.3475C7.31735 18.3475 8.65988 16.6318 11.1384 18.3475V18.3475Z" fill="#754C24" stroke="black" stroke-width="0.396875" stroke-linecap="round" stroke-linejoin="round"/>
<path d="M23.8411 18.3475C23.0149 18.0615 21.6724 19.2053 20.743 19.2053C19.2972 19.3006 17.8514 18.5381 16.922 17.4896C14.8565 15.202 13.7206 9.76905 13.9271 7.0049C14.3402 1.66722 19.9168 2.42975 19.9168 2.42975C19.9168 2.42975 17.6449 13.8676 23.8411 18.3475V18.3475Z" fill="#754C24" stroke="black" stroke-width="0.396875" stroke-linecap="round" stroke-linejoin="round"/>
<path d="M27.0421 18.3475C27.0421 18.3475 23.8407 14.9161 25.6995 9.67373C27.5584 4.43137 30.2435 3.19226 30.2435 3.19226C30.2435 3.19226 28.1781 2.62037 27.0421 2.04847C25.9061 1.47658 20.2262 -1.00163 18.3673 4.52668C16.8182 9.19715 17.3346 14.9161 23.9439 18.3475C23.8407 18.3475 25.1832 19.5866 27.0421 18.3475V18.3475Z" fill="#754C24" stroke="black" stroke-width="0.396875" stroke-linecap="round" stroke-linejoin="round"/>
<path d="M27.0423 18.3474C26.0096 18.0615 24.3573 14.8208 24.1508 13.9629C23.6344 12.5332 23.5311 11.0081 23.7377 9.57839C24.254 6.24234 27.9718 2.52503 32.3092 3.09692C35.5106 3.5735 36.44 7.48145 36.44 7.48145C36.44 7.48145 29.5208 8.81587 30.4503 15.488C30.9666 19.4912 27.0423 18.3474 27.0423 18.3474V18.3474Z" fill="#754C24" stroke="black" stroke-width="0.396875" stroke-linecap="round" stroke-linejoin="round"/>
<path d="M32.7221 17.1083C32.7221 17.1083 33.5483 9.38774 39.4347 11.1034C39.4347 11.1034 40.5707 7.57674 36.3366 7.48142C30.8632 7.38611 29.1076 10.2456 30.1403 18.0615C30.1403 18.0615 32.9287 18.538 32.7221 17.1083Z" fill="#754C24" stroke="black" stroke-width="0.396875" stroke-linecap="round" stroke-linejoin="round"/>
<path d="M32.8256 17.2037C32.8256 17.2037 36.3368 16.5364 37.3695 17.8709C38.4022 19.2053 42.2232 20.0631 43.3592 17.2037C44.4952 14.4395 41.8101 10.7222 37.7826 10.8175C33.755 10.8175 32.5158 15.0114 32.8256 17.2037V17.2037Z" fill="#754C24" stroke="black" stroke-width="0.396875" stroke-linecap="round" stroke-linejoin="round"/>
<path opacity="0.3" d="M43.6689 20.1585C44.7016 18.1569 42.8428 18.1569 42.8428 18.1569L39.6414 19.2053L40.0544 21.4929C39.9512 21.4929 42.8428 21.6835 43.6689 20.1585V20.1585Z" fill="black"/>
<path opacity="0.3" d="M4.11595 14.9161L7.62717 17.9662L6.38792 20.5397C6.38792 20.5397 2.25708 18.7287 3.08324 16.4411C3.90941 14.1535 4.11595 14.9161 4.11595 14.9161V14.9161Z" fill="black"/>
</svg>
