<svg width="45" height="97" viewBox="0 0 45 97" fill="none" xmlns="http://www.w3.org/2000/svg">
<path d="M42.1395 2.90219C35.3607 3.09483 29.3795 0.494293 22.7005 0.494293C16.0214 0.494293 9.44207 4.05799 2.56365 3.86535C2.46396 9.16274 2.06522 17.3496 3.06209 26.2107C3.06209 35.8423 2.76303 46.0518 2.36428 55.5871C1.66647 72.1534 2.66334 84.8671 0.769287 92.5724C0.769287 94.5951 3.26146 96.0398 5.3549 96.0398C7.6477 96.1361 17.9155 96.2324 19.012 93.7282C19.4108 92.8614 21.0058 53.5644 21.5042 35.3607C21.6039 31.4118 22.3017 25.6328 22.7005 24.6696C23.498 26.307 24.2955 31.9896 24.2955 35.5533C24.4948 55.5871 26.688 92.2835 26.8873 93.1503C27.9839 95.5582 37.0554 95.9435 39.3482 95.7509C41.5413 95.6545 44.1332 94.6914 44.1332 92.5724C42.3388 85.0598 43.3357 72.5387 42.5382 56.2613C42.0398 46.2444 41.7407 35.5533 41.7407 25.3438C43.0366 15.8085 42.3388 8.19958 42.1395 2.90219V2.90219Z" fill="#00274D" stroke="black" stroke-width="0.634345" stroke-linecap="round" stroke-linejoin="round"/>
<path d="M37.1549 8.58485C38.5505 13.6896 42.9368 12.8228 42.8371 14.6528C42.7374 16.4828 41.7405 25.5365 41.7405 25.5365" fill="#00274D"/>
<path d="M37.1549 8.58485C38.5505 13.6896 42.9368 12.8228 42.8371 14.6528C42.7374 16.4828 41.7405 25.5365 41.7405 25.5365" stroke="black" stroke-width="0.634345" stroke-linecap="round" stroke-linejoin="round"/>
<path d="M7.64755 8.68115C6.25193 13.7859 1.96538 12.9191 2.06506 14.7491C2.16475 16.5791 3.16163 25.6328 3.16163 25.6328" fill="#00274D"/>
<path d="M7.64755 8.68115C6.25193 13.7859 1.96538 12.9191 2.06506 14.7491C2.16475 16.5791 3.16163 25.6328 3.16163 25.6328" stroke="black" stroke-width="0.634345" stroke-linecap="round" stroke-linejoin="round"/>
<path d="M20.5073 5.79167C19.5104 13.1117 20.0089 19.5649 21.7035 20.3354Z" fill="#00274D"/>
<path d="M20.5073 5.79167C19.5104 13.1117 20.0089 19.5649 21.7035 20.3354" stroke="black" stroke-width="0.634345" stroke-linecap="round" stroke-linejoin="round"/>
<path opacity="0.3" d="M24.5944 41.7176C24.5944 41.7176 28.7812 89.9719 31.6721 91.6093C34.1643 93.1503 42.538 94.5951 44.2327 91.1277C45.2296 97.9661 28.0834 94.4987 27.0865 93.8245C26.0897 93.1503 24.5944 41.7176 24.5944 41.7176V41.7176Z" fill="black"/>
<path opacity="0.3" d="M20.9061 41.6212C20.9061 41.6212 18.1148 89.2977 15.2239 90.9351C12.7317 92.4761 2.96236 95.2693 1.26768 91.8019C0.270806 98.6403 16.2207 96.0398 19.012 93.7282C20.1085 92.8614 20.9061 41.6212 20.9061 41.6212V41.6212Z" fill="black"/>
<path opacity="0.3" d="M28.1832 55.1055C28.1832 55.1055 30.8748 57.417 34.7626 56.8392C38.6504 56.1649 40.5444 54.3349 40.5444 54.3349C40.5444 54.3349 39.5476 58.2839 34.8623 58.5728C30.177 58.8618 28.1832 55.1055 28.1832 55.1055V55.1055Z" fill="black"/>
<path opacity="0.3" d="M16.5198 55.5871C16.5198 55.5871 13.8282 57.8986 9.94043 57.3208C6.05263 56.7429 4.15857 54.8165 4.15857 54.8165C4.15857 54.8165 5.15544 58.7655 9.84073 59.0544C14.526 59.3434 16.5198 55.5871 16.5198 55.5871V55.5871Z" fill="black"/>
</svg>
