<svg width="44" height="61" viewBox="0 0 44 61" fill="none" xmlns="http://www.w3.org/2000/svg">
<path d="M42.669 3.19467C35.6466 3.38531 29.4503 0.811783 22.5312 0.811783C15.612 0.811783 8.7961 4.33846 1.6704 4.14783C1.56713 9.39019 0.121335 17.492 1.15404 26.2611C1.15404 35.7926 1.05077 37.8896 0.63769 47.3258C0.534419 49.9947 -0.49829 58.7637 1.56713 59.145C4.66526 59.8122 19.3297 60.8607 20.9821 57.4293C21.3952 56.5715 20.7755 53.2354 21.2919 35.2207C21.3952 31.3128 22.1181 25.5939 22.5312 24.6407C23.3573 26.2611 24.1835 31.8847 24.1835 35.4114C24.39 55.237 24.5966 57.2387 24.8031 58.0965C25.9391 60.4794 35.3368 60.8607 37.712 60.67C39.984 60.5747 41.3265 60.956 43.0821 58.0965C43.805 56.6668 43.3919 53.426 43.0821 50.1853C42.5657 40.2725 42.2559 35.4114 42.2559 25.3079C43.5984 15.967 42.8755 8.43704 42.669 3.19467V3.19467Z" fill="#00274D" stroke="black" stroke-width="0.396875" stroke-linecap="round" stroke-linejoin="round"/>
<path d="M37.5055 8.81831C38.9513 13.87 43.4952 13.0122 43.3919 14.8232C43.2887 16.6342 42.256 25.5939 42.256 25.5939" fill="#00274D"/>
<path d="M37.5055 8.81831C38.9513 13.87 43.4952 13.0122 43.3919 14.8232C43.2887 16.6342 42.256 25.5939 42.256 25.5939" stroke="black" stroke-width="0.396875" stroke-linecap="round" stroke-linejoin="round"/>
<path d="M6.93693 8.91362C5.49114 13.9654 1.05048 13.1075 1.15375 14.9185C1.25702 16.7295 1.25703 25.6892 1.25703 25.6892" fill="#00274D"/>
<path d="M6.93693 8.91362C5.49114 13.9654 1.05048 13.1075 1.15375 14.9185C1.25702 16.7295 1.25703 25.6892 1.25703 25.6892" stroke="black" stroke-width="0.396875" stroke-linecap="round" stroke-linejoin="round"/>
<path d="M20.259 6.05411C19.2263 13.2981 19.7427 19.6843 21.4983 20.4468Z" fill="#00274D"/>
<path d="M20.259 6.05411C19.2263 13.2981 19.7427 19.6843 21.4983 20.4468" stroke="black" stroke-width="0.396875" stroke-linecap="round" stroke-linejoin="round"/>
<path opacity="0.3" d="M16.1284 55.3323C16.1284 55.3323 13.34 57.6199 9.31247 57.048C5.2849 56.4761 3.32275 54.5698 3.32275 54.5698C3.32275 54.5698 4.35546 58.4777 9.2092 58.7637C14.0629 59.0496 16.1284 55.3323 16.1284 55.3323V55.3323Z" fill="black"/>
</svg>
