<svg width="44" height="101" viewBox="0 0 44 101" fill="none" xmlns="http://www.w3.org/2000/svg">
<path d="M40.6813 0.632324C33.7915 0.815005 28.695 1.63707 21.8996 1.63707C15.1043 1.63707 9.91334 1.72841 2.9292 1.54573C2.83482 6.75214 0.94722 20.7272 1.9854 29.4046C1.9854 55.3453 0.38094 88.3192 0.47532 97.4532C0.47532 99.4627 9.44144 100.102 11.6122 100.102C13.9717 100.193 17.7469 100.285 18.8795 97.8186C19.257 96.9965 20.2008 59.3642 20.6727 41.6442C20.7671 37.8079 21.4277 32.2361 21.8053 31.2314C22.6547 32.7842 23.5041 38.2646 23.5041 41.7355C23.6929 61.2824 24.5423 97.0879 24.731 97.9099C25.8636 100.285 29.7332 100.011 31.9983 99.8281C34.2635 99.7367 42.8521 98.732 42.8521 96.7225C43.0408 87.4058 41.2476 54.5232 41.2476 28.4912C42.5689 19.2658 40.7757 5.83873 40.6813 0.632324V0.632324Z" fill="#E2CD9C" stroke="black" stroke-width="0.615164" stroke-linecap="round" stroke-linejoin="round"/>
<path opacity="0.3" d="M23.8817 51.8743C23.8817 51.8743 26.7131 95.5351 29.6389 97.1792C32.1872 98.6406 40.6814 98.732 42.3802 95.3524C43.4184 102.02 25.9581 99.9194 25.0143 99.28C24.0705 98.6406 23.8817 51.8743 23.8817 51.8743Z" fill="black"/>
<path opacity="0.3" d="M20.0121 51.783C20.0121 51.783 17.1807 95.4437 14.2549 97.0879C11.7067 98.5493 1.79673 98.6407 0.0978835 95.2611C-0.940299 101.929 17.8414 99.8281 18.8796 99.1887C20.0121 98.458 20.0121 51.783 20.0121 51.783V51.783Z" fill="black"/>
<path opacity="0.3" d="M28.1287 58.1768C28.1287 58.1768 30.5826 60.2776 33.6028 60.3689C36.6229 60.4603 38.0387 57.2634 38.0387 57.2634C38.0387 57.2634 35.396 58.9988 33.6028 58.9988C31.8096 59.0902 28.1287 58.1768 28.1287 58.1768Z" fill="black"/>
<path opacity="0.3" d="M15.5762 58.4508C15.5762 58.4508 13.1223 60.5516 10.1021 60.5516C7.08194 60.643 5.76062 57.3547 5.76062 57.3547C5.76062 57.3547 8.40326 59.0902 10.1965 59.1815C11.8953 59.2729 15.5762 58.4508 15.5762 58.4508Z" fill="black"/>
</svg>
