<svg width="45" height="98" viewBox="0 0 45 98" fill="none" xmlns="http://www.w3.org/2000/svg">
<path d="M42.2058 3.43329C35.454 3.62795 29.4965 0.999985 22.844 0.999985C16.1915 0.999985 9.63831 4.60127 2.78723 4.40661C2.68794 9.75987 2.29078 18.0331 3.28369 26.9877C3.28369 36.7209 2.98582 47.0381 2.58865 56.6739C1.89362 73.4151 2.88653 86.2629 1 94.0495C1 96.0935 3.48227 97.5534 5.56739 97.5534C7.85108 97.6508 18.0781 97.7481 19.1703 95.2175C19.5674 94.3415 21.1561 54.63 21.6525 36.2342C21.7518 32.2436 22.4469 26.4037 22.844 25.4303C23.6384 27.085 24.4327 32.8276 24.4327 36.4289C24.6313 56.674 26.8157 93.7575 27.0142 94.6335C28.1064 97.0668 37.1419 97.4561 39.4256 97.2614C41.61 97.1641 44.1916 96.1908 44.1916 94.0495C42.4043 86.4576 43.3973 73.8044 42.6029 57.3553C42.1065 47.2327 41.8086 36.4289 41.8086 26.1117C43.0994 16.4758 42.4044 8.78655 42.2058 3.43329V3.43329Z" fill="#415F7A" stroke="black" stroke-width="0.638126" stroke-linecap="round" stroke-linejoin="round"/>
<path d="M37.2412 9.1759C38.6313 14.3345 43.0001 13.4585 42.9008 15.3078C42.8015 17.1571 41.8086 26.3063 41.8086 26.3063" fill="#415F7A"/>
<path d="M37.2412 9.1759C38.6313 14.3345 43.0001 13.4585 42.9008 15.3078C42.8015 17.1571 41.8086 26.3063 41.8086 26.3063" stroke="black" stroke-width="0.638126" stroke-linecap="round" stroke-linejoin="round"/>
<path d="M7.85096 9.27321C6.46088 14.4318 2.19135 13.5558 2.29064 15.4051C2.38993 17.2544 3.38285 26.4036 3.38285 26.4036" fill="#415F7A"/>
<path d="M7.85096 9.27321C6.46088 14.4318 2.19135 13.5558 2.29064 15.4051C2.38993 17.2544 3.38285 26.4036 3.38285 26.4036" stroke="black" stroke-width="0.638126" stroke-linecap="round" stroke-linejoin="round"/>
<path d="M20.6596 6.35327C19.6667 13.7505 20.1631 20.2718 21.8511 21.0504Z" fill="#415F7A"/>
<path d="M20.6596 6.35327C19.6667 13.7505 20.1631 20.2718 21.8511 21.0504" stroke="black" stroke-width="0.638126" stroke-linecap="round" stroke-linejoin="round"/>
<path opacity="0.3" d="M24.7306 42.6582C24.7306 42.6582 28.9008 91.4215 31.7803 93.0762C34.2625 94.6335 42.603 96.0935 44.2909 92.5895C45.2838 99.5001 28.2058 95.9962 27.2129 95.3148C26.22 94.6335 24.7306 42.6582 24.7306 42.6582V42.6582Z" fill="black"/>
<path opacity="0.3" d="M21.0567 42.5608C21.0567 42.5608 18.2766 90.7402 15.3971 92.3949C12.9148 93.9522 3.18433 96.7748 1.49638 93.2708C0.503471 100.181 16.39 97.5535 19.1702 95.2175C20.2624 94.3415 21.0567 42.5608 21.0567 42.5608V42.5608Z" fill="black"/>
<path opacity="0.3" d="M28.305 56.1873C28.305 56.1873 30.9858 58.5233 34.8582 57.9393C38.7305 57.258 40.6171 55.4086 40.6171 55.4086C40.6171 55.4086 39.6242 59.3993 34.9575 59.6913C30.2908 59.9833 28.305 56.1873 28.305 56.1873V56.1873Z" fill="black"/>
<path opacity="0.3" d="M16.6879 56.674C16.6879 56.674 14.007 59.0099 10.1347 58.4259C6.26232 57.8419 4.37579 55.8953 4.37579 55.8953C4.37579 55.8953 5.3687 59.8859 10.0354 60.1779C14.7021 60.4699 16.6879 56.674 16.6879 56.674V56.674Z" fill="black"/>
</svg>
