<svg width="68" height="171" viewBox="0 0 68 171" fill="none" xmlns="http://www.w3.org/2000/svg">
<path d="M57.5114 136.975C56.341 124.282 56.2435 79.7916 54.4879 64.9613C53.3175 55.3417 13.9144 60.4187 13.3292 66.5646C12.3539 76.9859 12.8416 118.27 11.4761 133.769C10.0131 149.267 7.96493 158.486 9.52545 161.158C11.086 163.83 10.8909 164.632 14.3045 164.498C17.7182 164.364 20.7417 164.899 23.18 166.769C25.2282 168.239 30.5925 170.243 34.2987 169.976C38.0049 170.109 43.3692 168.239 45.4174 166.769C47.8557 165.032 50.8792 164.364 54.2929 164.498C57.7065 164.632 58.1942 162.895 59.072 160.356C60.0473 157.951 58.5843 149.801 57.5114 136.975V136.975Z" fill="white" stroke="black" stroke-width="0.396875" stroke-miterlimit="10" stroke-linecap="round" stroke-linejoin="round"/>
<path opacity="0.3" d="M41.6562 91.2707C41.6562 91.2707 42.1386 129.931 51.2073 135.015C37.6042 136.262 41.6562 91.2707 41.6562 91.2707V91.2707Z" fill="black"/>
<path opacity="0.3" d="M17.0552 135.111C25.3521 131.849 26.6063 91.3666 26.6063 91.3666C26.6063 91.3666 29.6935 137.605 17.0552 135.111Z" fill="black"/>
<path d="M54.6802 66.0409C54.1979 62.3956 53.4261 54.1455 53.1366 46.3752C52.8472 38.6048 56.9957 15.4855 53.7155 9.63375C51.593 9.05817 42.7173 7.61921 42.7173 7.61921L41.9455 1H26.5094L25.7376 7.61921C25.7376 7.61921 15.2217 9.1541 13.9676 9.82562C11.3627 12.9913 14.9323 37.6455 15.0288 46.3752C15.1253 55.1049 13.8711 62.1078 13.3887 66.0409" fill="white"/>
<path d="M54.6802 66.0409C54.1979 62.3956 53.4261 54.1455 53.1366 46.3752C52.8472 38.6048 56.9957 15.4855 53.7155 9.63375C51.593 9.05817 42.7173 7.61921 42.7173 7.61921L41.9455 1H26.5094L25.7376 7.61921C25.7376 7.61921 15.2217 9.1541 13.9676 9.82562C11.3627 12.9913 14.9323 37.6455 15.0288 46.3752C15.1253 55.1049 13.8711 62.1078 13.3887 66.0409" stroke="black" stroke-width="0.396875" stroke-miterlimit="10" stroke-linecap="round" stroke-linejoin="round"/>
<path d="M38.2796 33.8083L37.7972 1.67154H31.3334V33.4246L34.8065 38.317L38.2796 33.8083Z" fill="white" stroke="black" stroke-width="0.396875" stroke-miterlimit="10" stroke-linecap="round" stroke-linejoin="round"/>
<path d="M34.7099 16.2529C35.5624 16.2529 36.2535 15.5657 36.2535 14.718C36.2535 13.8703 35.5624 13.1832 34.7099 13.1832C33.8574 13.1832 33.1663 13.8703 33.1663 14.718C33.1663 15.5657 33.8574 16.2529 34.7099 16.2529Z" fill="#D8D8D8" stroke="black" stroke-width="0.264583" stroke-miterlimit="10" stroke-linecap="round" stroke-linejoin="round"/>
<path opacity="0.3" d="M27.8602 7.52323C27.8602 7.52323 39.5338 7.7151 41.1739 7.42731C42.8139 7.13951 33.0699 10.1134 27.8602 7.52323Z" fill="black"/>
<path d="M34.7099 23.4477C35.5624 23.4477 36.2535 22.7605 36.2535 21.9128C36.2535 21.0652 35.5624 20.378 34.7099 20.378C33.8574 20.378 33.1663 21.0652 33.1663 21.9128C33.1663 22.7605 33.8574 23.4477 34.7099 23.4477Z" fill="#D8D8D8" stroke="black" stroke-width="0.264583" stroke-miterlimit="10" stroke-linecap="round" stroke-linejoin="round"/>
<path d="M34.7099 30.0669C35.5624 30.0669 36.2535 29.3797 36.2535 28.5321C36.2535 27.6844 35.5624 26.9972 34.7099 26.9972C33.8574 26.9972 33.1663 27.6844 33.1663 28.5321C33.1663 29.3797 33.8574 30.0669 34.7099 30.0669Z" fill="#D8D8D8" stroke="black" stroke-width="0.264583" stroke-miterlimit="10" stroke-linecap="round" stroke-linejoin="round"/>
<path d="M15.6429 31.506C14.5817 42.3461 15.0641 68.2474 13.9063 70.6456L1.17157 69.5904C-0.0826091 68.6311 5.89888 18.5553 7.44249 15.4856C8.98609 12.5117 12.3627 9.92158 16.2218 9.44193" fill="white"/>
<path d="M15.6429 31.506C14.5817 42.3461 15.0641 68.2474 13.9063 70.6456L1.17157 69.5904C-0.0826091 68.6311 5.89888 18.5553 7.44249 15.4856C8.98609 12.5117 12.3627 9.92158 16.2218 9.44193" stroke="black" stroke-width="0.396875" stroke-miterlimit="10" stroke-linecap="round" stroke-linejoin="round"/>
<path d="M52.4259 31.5059C53.4871 42.3461 53.2942 68.2474 54.4519 70.6456L67.1867 69.5904C68.4409 68.6311 62.4594 18.5553 60.9158 15.4855C59.3721 12.5117 55.9955 10.0175 52.1365 9.53783" fill="white"/>
<path d="M52.4259 31.5059C53.4871 42.3461 53.2942 68.2474 54.4519 70.6456L67.1867 69.5904C68.4409 68.6311 62.4594 18.5553 60.9158 15.4855C59.3721 12.5117 55.9955 10.0175 52.1365 9.53783" stroke="black" stroke-width="0.396875" stroke-miterlimit="10" stroke-linecap="round" stroke-linejoin="round"/>
</svg>
