<svg width="64" height="90" viewBox="0 0 64 90" fill="none" xmlns="http://www.w3.org/2000/svg">
<path d="M40.4829 8.99331L39.6287 3.61465C39.6287 3.61465 37.5407 2.77094 31.6562 2.98187C25.7718 3.19279 24.6328 3.61465 24.6328 3.61465L23.8735 9.52063L40.1982 9.09877" fill="#203E4A"/>
<path d="M40.4829 8.99331L39.6287 3.61465C39.6287 3.61465 37.5407 2.77094 31.6562 2.98187C25.7718 3.19279 24.6328 3.61465 24.6328 3.61465L23.8735 9.52063L40.1982 9.09877" stroke="black" stroke-width="0.638126" stroke-linecap="round" stroke-linejoin="round"/>
<path opacity="0.3" d="M40.5777 8.25509L39.4387 2.77095Z" fill="black"/>
<path d="M23.9683 7.09499H42.286C42.286 7.09499 41.1471 25.4457 32.795 25.4457C24.4429 25.4457 23.9683 7.09499 23.9683 7.09499V7.09499Z" fill="#EBC3A5" stroke="black" stroke-width="0.638126" stroke-linecap="round" stroke-linejoin="round"/>
<path d="M32.7001 81.3416C21.2159 81.8689 14.1925 78.705 13.9078 76.3848C13.623 74.0646 15.1416 57.5067 15.4263 51.0734C15.7111 44.6401 12.7688 9.7316 14.4772 8.78242C19.982 6.56768 22.2599 6.88406 24.6327 6.56767C24.6327 6.67314 24.7276 6.67314 24.7276 6.77861C25.2021 6.67314 25.6767 6.7786 26.1512 7.09499C26.1512 7.09499 29.0935 9.30974 30.612 12.6846C31.2764 14.1611 32.4153 16.9031 32.7001 20.3834C32.9848 23.6528 32.7001 27.2386 32.6051 28.8206C33.3644 47.8041 38.6794 81.1307 32.7001 81.3416V81.3416Z" fill="#F3F1E9" stroke="black" stroke-width="0.638126" stroke-miterlimit="10" stroke-linecap="round" stroke-linejoin="round"/>
<path d="M50.2585 74.381C50.0687 77.4394 45.1333 81.5525 32.7001 81.3416C31.1815 81.2361 31.3713 18.1687 33.6492 12.6846C35.0728 9.30974 38.1099 7.095 38.1099 7.095C38.7743 6.56768 39.4387 6.56768 40.0082 6.98954L40.1031 6.88407C40.6725 6.56768 45.8926 7.09501 49.4043 8.78243C51.1127 9.94253 49.2145 45.2729 49.1196 50.8625C49.0247 56.4521 50.5432 71.3225 50.2585 74.381V74.381Z" fill="#F3F1E9" stroke="black" stroke-width="0.638126" stroke-miterlimit="10" stroke-linecap="round" stroke-linejoin="round"/>
<path d="M38.5846 3.29828C41.1472 2.77096 42.6657 12.0518 42.6657 12.0518C42.6657 12.0518 40.8624 9.41519 39.1541 9.30973C37.5406 9.20426 34.978 10.048 33.7441 12.6846C35.7373 6.56766 40.0082 8.36055 38.5846 3.29828V3.29828Z" fill="#F3F1E9" stroke="black" stroke-width="0.638126" stroke-miterlimit="10" stroke-linecap="round" stroke-linejoin="round"/>
<path d="M30.707 12.6846C29.4732 10.048 26.8157 9.30973 25.2022 9.30973C23.6836 9.30973 21.6905 12.0518 21.6905 12.0518C21.6905 12.0518 23.2091 2.77096 25.7716 3.29828C24.348 8.36055 28.7139 6.56766 30.707 12.6846Z" fill="#F3F1E9" stroke="black" stroke-width="0.638126" stroke-miterlimit="10" stroke-linecap="round" stroke-linejoin="round"/>
<path d="M32.1307 1.08354V6.35673" stroke="black" stroke-width="0.638126" stroke-miterlimit="10" stroke-linecap="round" stroke-linejoin="round"/>
<path d="M35.3577 38.4178C35.9868 38.4178 36.4967 37.6623 36.4967 36.7303C36.4967 35.7984 35.9868 35.0429 35.3577 35.0429C34.7287 35.0429 34.2188 35.7984 34.2188 36.7303C34.2188 37.6623 34.7287 38.4178 35.3577 38.4178Z" fill="white" stroke="black" stroke-width="0.319063" stroke-miterlimit="10" stroke-linecap="round" stroke-linejoin="round"/>
<path d="M35.3577 51.0735C35.9868 51.0735 36.4967 50.318 36.4967 49.386C36.4967 48.4541 35.9868 47.6986 35.3577 47.6986C34.7287 47.6986 34.2188 48.4541 34.2188 49.386C34.2188 50.318 34.7287 51.0735 35.3577 51.0735Z" fill="white" stroke="black" stroke-width="0.319063" stroke-miterlimit="10" stroke-linecap="round" stroke-linejoin="round"/>
<path d="M35.1679 63.3072C35.7969 63.3072 36.3068 62.5518 36.3068 61.6198C36.3068 60.6879 35.7969 59.9324 35.1679 59.9324C34.5389 59.9324 34.029 60.6879 34.029 61.6198C34.029 62.5518 34.5389 63.3072 35.1679 63.3072Z" fill="white" stroke="black" stroke-width="0.319063" stroke-miterlimit="10" stroke-linecap="round" stroke-linejoin="round"/>
<path d="M35.1679 74.0646C35.7969 74.0646 36.3068 73.3091 36.3068 72.3772C36.3068 71.4452 35.7969 70.6898 35.1679 70.6898C34.5389 70.6898 34.029 71.4452 34.029 72.3772C34.029 73.3091 34.5389 74.0646 35.1679 74.0646Z" fill="white" stroke="black" stroke-width="0.319063" stroke-miterlimit="10" stroke-linecap="round" stroke-linejoin="round"/>
<path d="M35.3577 26.5003C35.9868 26.5003 36.4967 25.7449 36.4967 24.8129C36.4967 23.881 35.9868 23.1255 35.3577 23.1255C34.7287 23.1255 34.2188 23.881 34.2188 24.8129C34.2188 25.7449 34.7287 26.5003 35.3577 26.5003Z" fill="white" stroke="black" stroke-width="0.319063" stroke-miterlimit="10" stroke-linecap="round" stroke-linejoin="round"/>
<path d="M45.7978 76.7012C41.8116 77.8613 36.7813 78.9159 32.2256 78.9159C26.6259 78.9159 20.172 77.4394 15.9959 76.3848V78.8105C19.2229 80.076 25.9615 82.3962 31.7511 82.6072C36.6864 82.7126 42.1912 81.2361 45.7978 80.076V76.7012Z" fill="#443107" stroke="black" stroke-width="0.425417" stroke-linecap="round" stroke-linejoin="round"/>
<path d="M27.2903 77.8613V83.7673H37.7305V77.8613H27.2903ZM35.9272 82.3962H29.2835V79.1268H35.9272V82.3962Z" fill="#C68C17" stroke="black" stroke-width="0.319063" stroke-linecap="round" stroke-linejoin="round"/>
<path d="M12.2944 80.4979C12.2944 80.4979 14.3824 60.3543 14.7621 49.2805C14.3824 41.3707 10.9657 18.9069 10.7758 12.0518C10.4911 10.1534 12.8639 7.93869 15.0468 6.77859C17.3247 5.61848 18.6534 4.9857 22.9244 5.72395L23.1142 31.4571C23.8735 33.7774 25.8666 35.7812 27.7648 39.5779C33.934 51.4953 35.9271 54.3428 36.2119 58.0341L25.7717 83.3454" fill="#203E4A"/>
<path d="M12.2944 80.4979C12.2944 80.4979 14.3824 60.3543 14.7621 49.2805C14.3824 41.3707 10.9657 18.9069 10.7758 12.0518C10.4911 10.1534 12.8639 7.93869 15.0468 6.77859C17.3247 5.61848 18.6534 4.9857 22.9244 5.72395L23.1142 31.4571C23.8735 33.7774 25.8666 35.7812 27.7648 39.5779C33.934 51.4953 35.9271 54.3428 36.2119 58.0341L25.7717 83.3454" stroke="black" stroke-width="0.638126" stroke-linecap="round" stroke-linejoin="round"/>
<path d="M25.7718 3.29826C22.355 7.93867 28.6191 34.9374 31.3715 46.3276C26.3412 40.527 18.1789 21.1217 15.1418 19.3288L19.2229 13.4228L15.5214 11.5244C16.7553 7.20043 20.8364 2.98187 25.7718 3.29826V3.29826Z" fill="#203E4A" stroke="black" stroke-width="0.638126" stroke-linecap="round" stroke-linejoin="round"/>
<path d="M51.967 80.4979C51.967 80.4979 49.879 60.3543 49.4993 49.2805C49.879 41.3707 53.2958 18.9069 53.4856 12.0518C53.7703 10.1534 51.3976 7.93869 49.2146 6.77859C46.9368 5.61848 45.608 4.9857 41.337 5.72395L41.1472 31.4571C40.3879 33.7774 38.3948 35.7812 36.4966 39.5779C30.3274 51.4953 28.3343 54.3428 28.0496 58.0341L38.4897 83.3454" fill="#203E4A"/>
<path d="M51.967 80.4979C51.967 80.4979 49.879 60.3543 49.4993 49.2805C49.879 41.3707 53.2958 18.9069 53.4856 12.0518C53.7703 10.1534 51.3976 7.93869 49.2146 6.77859C46.9368 5.61848 45.608 4.9857 41.337 5.72395L41.1472 31.4571C40.3879 33.7774 38.3948 35.7812 36.4966 39.5779C30.3274 51.4953 28.3343 54.3428 28.0496 58.0341L38.4897 83.3454" stroke="black" stroke-width="0.638126" stroke-linecap="round" stroke-linejoin="round"/>
<path d="M48.6451 11.5244L44.9436 13.4228L49.0247 19.3288C45.9876 21.1217 37.7304 40.527 32.795 46.3276C35.5474 35.0429 41.8115 7.93867 38.3948 3.29826C43.425 2.98187 47.4113 7.20043 48.6451 11.5244Z" fill="#203E4A" stroke="black" stroke-width="0.638126" stroke-linecap="round" stroke-linejoin="round"/>
<path d="M32.3205 59.7215C33.4213 59.7215 34.3136 58.7299 34.3136 57.5067C34.3136 56.2836 33.4213 55.292 32.3205 55.292C31.2197 55.292 30.3274 56.2836 30.3274 57.5067C30.3274 58.7299 31.2197 59.7215 32.3205 59.7215Z" fill="white" stroke="black" stroke-width="0.319063" stroke-miterlimit="10" stroke-linecap="round" stroke-linejoin="round"/>
<path d="M24.7277 74.8028C25.8285 74.8028 26.7209 73.8113 26.7209 72.5881C26.7209 71.3649 25.8285 70.3733 24.7277 70.3733C23.627 70.3733 22.7346 71.3649 22.7346 72.5881C22.7346 73.8113 23.627 74.8028 24.7277 74.8028Z" fill="white" stroke="black" stroke-width="0.319063" stroke-miterlimit="10" stroke-linecap="round" stroke-linejoin="round"/>
<path d="M41.8116 64.2564C41.8116 64.2564 42.5709 69.4242 43.0455 69.7406C43.52 70.0569 48.6452 73.1154 48.7401 72.2717C48.835 71.428 48.4554 67.8422 47.791 67.3149C47.2216 66.7876 41.8116 64.2564 41.8116 64.2564V64.2564Z" fill="#203E4A" stroke="black" stroke-width="0.638126" stroke-linecap="round" stroke-linejoin="round"/>
<path d="M21.5957 64.2564C21.5957 64.2564 20.8364 69.4242 20.3618 69.7406C19.8873 70.0569 14.7621 73.1154 14.6672 72.2717C14.5723 71.428 14.9519 67.8422 15.6163 67.3149C16.1858 66.7876 21.5957 64.2564 21.5957 64.2564V64.2564Z" fill="#203E4A" stroke="black" stroke-width="0.638126" stroke-linecap="round" stroke-linejoin="round"/>
<path d="M51.967 79.8651C51.967 79.8651 53.3907 87.1421 52.7263 88.935C52.062 90.7279 42.1913 88.3022 40.8625 87.2476C39.5338 86.1929 37.8254 81.658 37.8254 81.658" fill="#203E4A"/>
<path d="M51.967 79.8651C51.967 79.8651 53.3907 87.1421 52.7263 88.935C52.062 90.7279 42.1913 88.3022 40.8625 87.2476C39.5338 86.1929 37.8254 81.658 37.8254 81.658" stroke="black" stroke-width="0.638126" stroke-linecap="round" stroke-linejoin="round"/>
<path d="M12.2944 79.8651C12.2944 79.8651 10.8707 87.1421 11.5351 88.935C12.1995 90.7279 22.1651 88.4077 23.4938 87.353C24.8226 86.2984 26.8157 80.8143 26.8157 80.8143" fill="#203E4A"/>
<path d="M12.2944 79.8651C12.2944 79.8651 10.8707 87.1421 11.5351 88.935C12.1995 90.7279 22.1651 88.4077 23.4938 87.353C24.8226 86.2984 26.8157 80.8143 26.8157 80.8143" stroke="black" stroke-width="0.638126" stroke-linecap="round" stroke-linejoin="round"/>
<path d="M15.0468 6.88405C15.0468 6.88405 9.25722 8.67693 6.31499 14.7938C3.46767 20.5944 1 71.6389 1 71.6389C1 71.6389 11.2503 72.4826 12.674 72.1662C13.5282 71.9553 14.0977 51.2844 15.1417 36.203C14.2875 28.2932 14.0977 24.2856 14.0977 24.2856" fill="#203E4A"/>
<path d="M15.0468 6.88405C15.0468 6.88405 9.25722 8.67693 6.31499 14.7938C3.46767 20.5944 1 71.6389 1 71.6389C1 71.6389 11.2503 72.4826 12.674 72.1662C13.5282 71.9553 14.0977 51.2844 15.1417 36.203C14.2875 28.2932 14.0977 24.2856 14.0977 24.2856" stroke="black" stroke-width="0.638126" stroke-linecap="round" stroke-linejoin="round"/>
<path d="M49.3094 6.88402C49.3094 6.88402 55.004 8.6769 57.9463 14.7938C60.7936 20.5943 63.2612 71.6389 63.2612 71.6389C63.2612 71.6389 53.0109 72.4826 51.5872 72.1662C50.733 71.9553 50.1636 51.2843 49.1196 36.203C50.2585 28.8205 50.1636 25.1293 50.1636 25.1293" fill="#203E4A"/>
<path d="M49.3094 6.88402C49.3094 6.88402 55.004 8.6769 57.9463 14.7938C60.7936 20.5943 63.2612 71.6389 63.2612 71.6389C63.2612 71.6389 53.0109 72.4826 51.5872 72.1662C50.733 71.9553 50.1636 51.2843 49.1196 36.203C50.2585 28.8205 50.1636 25.1293 50.1636 25.1293" stroke="black" stroke-width="0.638126" stroke-linecap="round" stroke-linejoin="round"/>
</svg>
