<svg width="66" height="82" viewBox="0 0 66 82" fill="none" xmlns="http://www.w3.org/2000/svg">
<path d="M41.1669 7.92731L40.3093 2.6048C40.3093 2.6048 38.7847 5.00515 32.8768 5.21387C26.9689 5.4226 25.2536 2.6048 25.2536 2.6048L24.4913 8.44912L40.8811 8.03167" fill="#A7AE9E"/>
<path d="M41.1669 7.92731L40.3093 2.6048C40.3093 2.6048 38.7847 5.00515 32.8768 5.21387C26.9689 5.4226 25.2536 2.6048 25.2536 2.6048L24.4913 8.44912L40.8811 8.03167" stroke="black" stroke-width="0.634345" stroke-miterlimit="10" stroke-linecap="round" stroke-linejoin="round"/>
<path opacity="0.3" d="M41.2621 7.9273L40.1187 2.50043C40.1187 2.50043 36.6882 5.42258 32.7814 5.52695C28.8745 5.63131 24.4912 2.60479 24.4912 2.60479L23.9195 8.34475L41.6433 7.9273" fill="black"/>
<path d="M24.5865 6.77933H42.9773C42.9773 6.77933 41.8338 24.9385 33.4484 24.9385C25.0629 24.9385 24.5865 6.77933 24.5865 6.77933Z" fill="#EBC3A5" stroke="black" stroke-width="0.634345" stroke-linecap="round" stroke-linejoin="round"/>
<path d="M25.2536 6.25749C27.9217 12.1018 33.1626 16.7982 33.1626 23.9992C33.0673 41.2191 39.6423 81.3988 33.1626 81.6076C21.6326 82.1294 13.533 77.3287 13.2471 75.0327C12.9613 72.7367 15.7247 56.6648 16.0105 50.2987C16.2964 43.9325 13.3424 9.38838 15.0576 8.44911C20.5844 6.25749 22.8714 6.57058 25.2536 6.25749Z" fill="#A7AE9E" stroke="black" stroke-width="0.634345" stroke-miterlimit="10" stroke-linecap="round" stroke-linejoin="round"/>
<path d="M33.1625 29.1129C33.1625 29.1129 33.7342 24.2079 33.3531 19.929C33.0672 16.485 31.9237 13.7716 31.2567 12.3105C29.7321 8.97089 26.7781 6.77927 26.7781 6.77927C25.3488 5.63128 23.8242 7.19672 23.8242 8.44908C31.4473 12.6236 32.019 19.929 33.1625 29.1129V29.1129Z" fill="#A7AE9E" stroke="black" stroke-width="0.422896" stroke-miterlimit="10" stroke-linecap="round" stroke-linejoin="round"/>
<path d="M40.7858 6.57059C37.3554 9.0753 33.3532 17.1113 33.2579 23.7905C33.2579 27.965 31.4474 81.5032 33.2579 81.6076C45.7408 81.8163 52.3158 77.8505 52.5063 74.824C52.7922 71.7975 49.743 55.6212 49.8382 50.09C49.9335 44.5587 51.8393 9.59712 50.1241 8.44913C46.5984 6.77932 41.3575 6.2575 40.7858 6.57059V6.57059Z" fill="#A7AE9E" stroke="black" stroke-width="0.634345" stroke-miterlimit="10" stroke-linecap="round" stroke-linejoin="round"/>
<path d="M33.0673 29.1129C33.0673 29.1129 32.0191 17.7374 34.3061 12.3105C35.7354 8.97089 38.7847 6.77927 38.7847 6.77927C40.214 5.63128 41.7387 7.19672 41.7387 8.44908C34.7825 11.6843 34.2108 19.929 33.0673 29.1129V29.1129Z" fill="#A7AE9E" stroke="black" stroke-width="0.422896" stroke-miterlimit="10" stroke-linecap="round" stroke-linejoin="round"/>
<path d="M39.9281 2.50035C42.5009 1.97854 43.3585 11.6843 43.3585 11.6843C43.3585 11.6843 41.548 9.07522 39.8328 8.97085C38.2129 8.86649 35.6401 9.70139 34.4013 12.3105C36.4024 6.25741 41.3574 7.50978 39.9281 2.50035V2.50035Z" fill="#A7AE9E" stroke="black" stroke-width="0.634345" stroke-miterlimit="10" stroke-linecap="round" stroke-linejoin="round"/>
<path d="M31.3522 12.3105C30.1134 9.70139 27.4453 8.97085 25.8254 8.97085C24.3008 8.97085 22.2997 11.6843 22.2997 11.6843C22.2997 11.6843 23.1573 1.97854 25.7301 2.50035C24.3008 7.50978 29.3511 6.25741 31.3522 12.3105Z" fill="#A7AE9E" stroke="black" stroke-width="0.634345" stroke-miterlimit="10" stroke-linecap="round" stroke-linejoin="round"/>
<path d="M32.7816 0.830566V6.04871" stroke="black" stroke-width="0.634345" stroke-miterlimit="10" stroke-linecap="round" stroke-linejoin="round"/>
<path d="M36.0213 37.7751C36.6528 37.7751 37.1647 37.0275 37.1647 36.1052C37.1647 35.183 36.6528 34.4354 36.0213 34.4354C35.3898 34.4354 34.8778 35.183 34.8778 36.1052C34.8778 37.0275 35.3898 37.7751 36.0213 37.7751Z" fill="white" stroke="black" stroke-width="0.317172" stroke-miterlimit="10" stroke-linecap="round" stroke-linejoin="round"/>
<path d="M36.0213 50.2986C36.6528 50.2986 37.1647 49.551 37.1647 48.6288C37.1647 47.7066 36.6528 46.959 36.0213 46.959C35.3898 46.959 34.8778 47.7066 34.8778 48.6288C34.8778 49.551 35.3898 50.2986 36.0213 50.2986Z" fill="white" stroke="black" stroke-width="0.317172" stroke-miterlimit="10" stroke-linecap="round" stroke-linejoin="round"/>
<path d="M35.8307 62.4047C36.4622 62.4047 36.9742 61.6571 36.9742 60.7349C36.9742 59.8127 36.4622 59.0651 35.8307 59.0651C35.1992 59.0651 34.6873 59.8127 34.6873 60.7349C34.6873 61.6571 35.1992 62.4047 35.8307 62.4047Z" fill="white" stroke="black" stroke-width="0.317172" stroke-miterlimit="10" stroke-linecap="round" stroke-linejoin="round"/>
<path d="M35.6401 75.3457C36.2716 75.3457 36.7836 74.5981 36.7836 73.6759C36.7836 72.7537 36.2716 72.0061 35.6401 72.0061C35.0086 72.0061 34.4966 72.7537 34.4966 73.6759C34.4966 74.5981 35.0086 75.3457 35.6401 75.3457Z" fill="white" stroke="black" stroke-width="0.317172" stroke-miterlimit="10" stroke-linecap="round" stroke-linejoin="round"/>
<path d="M36.0213 25.9821C36.6528 25.9821 37.1647 25.2345 37.1647 24.3123C37.1647 23.3901 36.6528 22.6425 36.0213 22.6425C35.3898 22.6425 34.8778 23.3901 34.8778 24.3123C34.8778 25.2345 35.3898 25.9821 36.0213 25.9821Z" fill="white" stroke="black" stroke-width="0.317172" stroke-miterlimit="10" stroke-linecap="round" stroke-linejoin="round"/>
<path opacity="0.3" d="M50.0288 46.959C50.5053 51.3423 49.5524 55.3081 42.9774 56.9779C47.7419 54.4731 49.6477 52.2815 50.0288 46.959Z" fill="black"/>
<path opacity="0.3" d="M49.8382 53.5339C51.1723 57.7084 49.1712 62.196 42.9774 65.2225C47.1701 61.7785 49.3618 59.0651 49.8382 53.5339Z" fill="black"/>
<path opacity="0.3" d="M15.8201 46.959C15.3436 51.3423 15.7248 57.7084 22.2997 59.3782C17.6305 56.8735 16.2012 52.2815 15.8201 46.959V46.959Z" fill="black"/>
<path opacity="0.3" d="M16.0106 53.5339C14.6765 57.7084 14.3906 64.7007 20.5844 67.8316C16.487 64.2833 15.7247 59.0651 16.0106 53.5339Z" fill="black"/>
<path d="M48.8853 28.5911L43.9303 30.574L39.0706 28.7998V26.2951C42.1198 27.13 45.3596 27.0256 48.8853 26.2951V28.5911Z" stroke="black" stroke-width="0.317172" stroke-miterlimit="10" stroke-linecap="round" stroke-linejoin="round"/>
<path d="M39.0706 28.5912C39.0706 32.6613 39.3564 33.705 40.3093 34.9573C41.9292 37.3577 46.5984 37.0446 47.8372 34.8529C48.6948 33.4962 48.8853 31.409 48.8853 28.5912" stroke="black" stroke-width="0.317172" stroke-miterlimit="10" stroke-linecap="round" stroke-linejoin="round"/>
<path d="M47.3607 7.4054C48.3136 7.82285 54.4121 9.17957 57.1755 14.0846C59.9389 18.9897 61.94 33.7049 63.1787 45.1848C63.274 45.9153 61.94 48.107 62.0353 48.7331C62.1306 49.6724 52.6016 51.2378 52.5063 50.716C52.4111 49.9855 50.9817 48.2113 50.8864 47.4808C50.7911 46.7502 50.1241 37.775 50.1241 37.0445C50.1241 31.9307 49.8382 28.7998 49.8382 28.7998" fill="#A7AE9E"/>
<path d="M47.3607 7.4054C48.3136 7.82285 54.4121 9.17957 57.1755 14.0846C59.9389 18.9897 61.94 33.7049 63.1787 45.1848C63.274 45.9153 61.94 48.107 62.0353 48.7331C62.1306 49.6724 52.6016 51.2378 52.5063 50.716C52.4111 49.9855 50.9817 48.2113 50.8864 47.4808C50.7911 46.7502 50.1241 37.775 50.1241 37.0445C50.1241 31.9307 49.8382 28.7998 49.8382 28.7998" stroke="black" stroke-width="0.634345" stroke-miterlimit="10" stroke-linecap="round" stroke-linejoin="round"/>
<path opacity="0.3" d="M53.1733 47.1677C53.1733 47.1677 56.3179 52.4902 58.4142 51.864C60.5106 51.1335 61.3682 44.663 61.3682 44.663C61.3682 44.663 60.1295 48.1069 58.2237 48.9419C56.2226 49.7768 53.1733 47.1677 53.1733 47.1677V47.1677Z" fill="black"/>
<path d="M51.0769 50.1942C50.7911 50.8204 50.2193 55.7254 52.6969 56.8734C55.1744 58.0214 63.5598 55.7254 64.5127 53.6382C65.4656 51.5509 63.8457 47.1677 63.0834 47.1677C62.3211 47.1677 59.653 49.1506 57.1755 49.568C54.6026 50.0898 51.2675 49.568 51.0769 50.1942Z" fill="#A7AE9E" stroke="black" stroke-width="0.634345" stroke-miterlimit="10" stroke-linecap="round" stroke-linejoin="round"/>
<path d="M16.0106 28.6954C16.0106 28.6954 15.7248 31.8263 15.7248 36.9401C15.7248 37.6706 15.0578 46.6459 14.9625 47.3764C14.8672 48.1069 13.4378 49.8811 13.3425 50.6117C13.2473 51.1335 3.71834 49.568 3.81363 48.6288C3.90892 48.0026 2.57487 45.811 2.67016 45.0804C3.90892 33.6005 5.90999 18.8853 8.67338 13.9803C11.4368 9.0752 17.2494 7.71848 18.2023 7.30103" fill="#A7AE9E"/>
<path d="M16.0106 28.6954C16.0106 28.6954 15.7248 31.8263 15.7248 36.9401C15.7248 37.6706 15.0578 46.6459 14.9625 47.3764C14.8672 48.1069 13.4378 49.8811 13.3425 50.6117C13.2473 51.1335 3.71834 49.568 3.81363 48.6288C3.90892 48.0026 2.57487 45.811 2.67016 45.0804C3.90892 33.6005 5.90999 18.8853 8.67338 13.9803C11.4368 9.0752 17.2494 7.71848 18.2023 7.30103" stroke="black" stroke-width="0.634345" stroke-miterlimit="10" stroke-linecap="round" stroke-linejoin="round"/>
<path opacity="0.3" d="M7.6252 48.8375C5.71941 48.0026 4.48065 44.5586 4.48065 44.5586C4.48065 44.5586 5.33826 51.0291 7.43462 51.7597C9.53099 52.3858 12.6755 47.0633 12.6755 47.0633C12.6755 47.0633 9.62627 49.6724 7.6252 48.8375V48.8375Z" fill="black"/>
<path d="M8.67333 49.4637C6.19581 49.0463 3.52772 47.0634 2.7654 47.0634C2.00309 47.0634 0.383171 51.4466 1.33606 53.5339C2.28896 55.6211 10.6744 57.9171 13.1519 56.7691C15.6294 55.6211 15.0577 50.7161 14.7718 50.0899C14.5813 49.4637 11.2461 49.9855 8.67333 49.4637Z" fill="#A7AE9E" stroke="black" stroke-width="0.634345" stroke-miterlimit="10" stroke-linecap="round" stroke-linejoin="round"/>
</svg>
