<svg width="63" height="82" viewBox="0 0 63 82" fill="none" xmlns="http://www.w3.org/2000/svg">
<path d="M22.3773 7.43112H40.7383C40.7383 7.43112 38.4679 25.4017 31.5578 25.4017C24.6478 25.4017 22.3773 7.43112 22.3773 7.43112V7.43112Z" fill="#EBC3A5" stroke="black" stroke-width="0.396875" stroke-linecap="round" stroke-linejoin="round"/>
<path d="M31.5576 0.924591V7.43117" stroke="black" stroke-width="0.396875" stroke-miterlimit="10" stroke-linecap="round" stroke-linejoin="round"/>
<path d="M49.2278 49.6723C49.3266 44.1985 51.3009 9.60004 49.524 8.46397C47.5497 7.63774 45.4767 7.22463 43.4037 6.91479C42.0216 6.81151 40.3435 6.29511 39.1589 7.3279C38.073 8.25741 37.1846 9.70332 36.1975 10.8394C34.618 12.6984 33.1373 14.764 31.5579 16.623C30.472 15.2804 29.2874 13.9378 28.2016 12.5951C27.3131 11.5623 26.4247 10.5296 25.5363 9.49676C24.8452 8.67053 24.1542 7.43118 23.1671 7.01807C22.5748 6.81151 21.6864 6.91479 20.9954 6.91479C18.8236 7.01807 16.7506 7.63774 14.7763 8.46397C12.9995 9.39349 14.5789 43.5789 14.2827 49.8789C13.9866 56.1789 11.1239 72.0839 11.42 74.356C11.7162 76.6282 20.1069 81.379 32.0514 80.8626C32.0514 80.8626 32.0514 80.8626 32.1502 80.8626C45.0818 81.0691 51.8931 77.1445 52.0906 74.1494C52.288 71.1544 49.1291 55.1461 49.2278 49.6723V49.6723Z" fill="#737144" stroke="black" stroke-width="0.396875" stroke-miterlimit="10" stroke-linecap="round" stroke-linejoin="round"/>
<path d="M42.6139 6.91476L31.6566 20.0312L20.4031 7.01804" stroke="black" stroke-width="0.264583" stroke-miterlimit="10" stroke-linecap="round" stroke-linejoin="round"/>
<path d="M16.0598 28.9133C16.0598 28.9133 15.3688 39.0347 15.27 39.7576C15.1713 40.4806 0.857665 38.1052 0.95638 37.3822C2.23967 26.0215 3.62168 19.4116 6.48442 14.5575C9.34715 9.70342 15.3688 8.36079 16.3559 7.94768" fill="#737144"/>
<path d="M16.0598 28.9133C16.0598 28.9133 15.3688 39.0347 15.27 39.7576C15.1713 40.4806 0.857665 38.1052 0.95638 37.3822C2.23967 26.0215 3.62168 19.4116 6.48442 14.5575C9.34715 9.70342 15.3688 8.36079 16.3559 7.94768" stroke="black" stroke-width="0.396875" stroke-miterlimit="10" stroke-linecap="round" stroke-linejoin="round"/>
<path d="M15.2699 37.7952C15.2699 37.7952 4.4113 36.6592 1.35114 35.2133Z" fill="#737144"/>
<path d="M15.2699 37.7952C15.2699 37.7952 4.4113 36.6592 1.35114 35.2133" stroke="black" stroke-width="0.264583" stroke-miterlimit="10" stroke-linecap="round" stroke-linejoin="round"/>
<path d="M46.8382 7.58484C47.8253 7.99796 53.847 9.34058 56.7097 14.1947C59.5724 19.0488 60.9544 25.6587 62.2377 37.0194C62.3364 37.7423 48.0228 40.1177 47.9241 39.3948C47.8253 38.6718 47.1343 28.5505 47.1343 28.5505" fill="#737144"/>
<path d="M46.8382 7.58484C47.8253 7.99796 53.847 9.34058 56.7097 14.1947C59.5724 19.0488 60.9544 25.6587 62.2377 37.0194C62.3364 37.7423 48.0228 40.1177 47.9241 39.3948C47.8253 38.6718 47.1343 28.5505 47.1343 28.5505" stroke="black" stroke-width="0.396875" stroke-miterlimit="10" stroke-linecap="round" stroke-linejoin="round"/>
<path d="M47.924 37.5357C47.924 37.5357 58.7826 36.3996 61.8428 34.9537Z" fill="#737144"/>
<path d="M47.924 37.5357C47.924 37.5357 58.7826 36.3996 61.8428 34.9537" stroke="black" stroke-width="0.264583" stroke-miterlimit="10" stroke-linecap="round" stroke-linejoin="round"/>
</svg>
