<svg width="67" height="79" viewBox="0 0 67 79" fill="none" xmlns="http://www.w3.org/2000/svg">
<path d="M28.4483 2.78152C32.2496 1.59386 37.9514 2.28666 38.5516 2.88049C39.1518 3.47432 39.8521 6.74039 39.652 7.23525C39.4519 7.7301 33.45 9.90748 31.1492 9.11571C28.7484 8.32394 26.7478 6.3445 27.1479 4.95889C27.548 3.57329 28.4483 2.78152 28.4483 2.78152V2.78152Z" fill="#F3F1E9" stroke="black" stroke-width="0.615164" stroke-miterlimit="10" stroke-linecap="round" stroke-linejoin="round"/>
<path opacity="0.3" d="M28.4483 2.78152C32.2496 1.59386 37.9514 2.28666 38.5516 2.88049C39.1518 3.47432 39.8521 6.74039 39.652 7.23525C39.4519 7.7301 33.45 9.90748 31.1492 9.11571C28.7484 8.32394 26.7478 6.3445 27.1479 4.95889C27.548 3.57329 28.4483 2.78152 28.4483 2.78152V2.78152Z" fill="black"/>
<path d="M22.5464 5.35477L34.0502 5.05786L44.6536 5.45374C44.6536 5.45374 44.4535 23.8625 32.8498 23.8625C21.246 23.7635 22.5464 5.35477 22.5464 5.35477Z" fill="#EBC3A5" stroke="black" stroke-width="0.615164" stroke-linecap="round" stroke-linejoin="round"/>
<path d="M33.35 66.9152L30.5491 77.7031C30.5491 77.7031 18.3451 76.2185 12.5432 65.9254C12.3432 65.7275 13.1434 62.3625 13.1434 62.3625L33.35 66.9152Z" fill="#F3F1E9" stroke="black" stroke-width="0.615164" stroke-miterlimit="10" stroke-linecap="round" stroke-linejoin="round"/>
<path d="M33.4501 66.9152L35.7508 78C35.7508 78 51.556 72.3586 54.3569 66.4203C54.1568 65.1337 52.9564 62.4615 52.9564 62.4615L33.4501 66.9152Z" fill="#F3F1E9" stroke="black" stroke-width="0.615164" stroke-miterlimit="10" stroke-linecap="round" stroke-linejoin="round"/>
<path d="M52.4562 6.83936C48.755 4.76096 41.5526 4.06816 41.5526 4.06816C41.5526 4.06816 40.6523 7.63114 33.0498 9.61057C27.0479 7.53217 24.247 3.77124 24.247 3.77124C24.247 3.77124 18.7452 4.9589 14.0436 7.13628C10.6425 8.62086 14.0436 55.8304 12.3431 63.8471C13.8436 66.9152 28.5484 71.3689 32.9498 71.072C37.9514 71.072 52.8563 67.3111 54.3568 64.243C54.0567 58.0077 55.3571 23.1697 52.4562 6.83936V6.83936Z" fill="#754342" stroke="black" stroke-width="0.615164" stroke-miterlimit="10" stroke-linecap="round" stroke-linejoin="round"/>
<path d="M33.2499 1V4.95887" stroke="black" stroke-width="0.615164" stroke-miterlimit="10" stroke-linecap="round" stroke-linejoin="round"/>
<path d="M26.8477 9.3136L33.95 18.6169L39.7519 9.70949L26.8477 9.3136Z" fill="#F3F1E9" stroke="black" stroke-width="0.615164" stroke-miterlimit="10" stroke-linecap="round" stroke-linejoin="round"/>
<path d="M20.2457 4.66192C24.0469 10.4023 31.2493 21.685 34.1502 21.685C37.0511 21.685 46.2541 4.26603 46.2541 4.26603C46.2541 4.26603 42.9531 3.37529 41.9527 4.06809C41.0525 6.44341 36.751 15.2519 33.8501 15.4498C30.9492 15.6478 26.9479 7.23518 24.9472 4.06809C24.1469 3.77118 21.8462 3.47426 20.2457 4.66192V4.66192Z" fill="#243545" stroke="black" stroke-width="0.615164" stroke-miterlimit="10" stroke-linecap="round" stroke-linejoin="round"/>
<path d="M33.1497 9.41257C29.8486 9.61051 28.2481 14.5591 28.3481 14.757C26.4475 12.8766 23.7466 7.92799 24.947 4.95884C25.7472 3.47426 28.6482 2.6825 28.6482 2.6825C28.6482 2.6825 27.3478 7.33416 33.1497 9.41257Z" fill="#F3F1E9" stroke="black" stroke-width="0.615164" stroke-miterlimit="10" stroke-linecap="round" stroke-linejoin="round"/>
<path d="M38.3517 2.6825C38.3517 2.6825 41.2527 3.47426 42.053 4.95884C43.1533 7.92799 40.5525 12.8766 38.6518 14.757C38.7519 14.5591 37.1514 9.61051 33.8503 9.41257C39.6522 7.33416 38.3517 2.6825 38.3517 2.6825Z" fill="#F3F1E9" stroke="black" stroke-width="0.615164" stroke-miterlimit="10" stroke-linecap="round" stroke-linejoin="round"/>
<path d="M33.7501 9.61053L33.9501 15.054" stroke="black" stroke-width="0.615164" stroke-miterlimit="10" stroke-linecap="round" stroke-linejoin="round"/>
<path d="M12.7433 31.6812C23.6468 33.9576 44.5537 33.3638 54.0568 30.8895L54.2568 45.0424C49.6553 48.7044 22.1464 49.892 13.0434 45.6363L12.7433 31.6812Z" fill="#243545" stroke="black" stroke-width="0.615164" stroke-miterlimit="10" stroke-linecap="round" stroke-linejoin="round"/>
<path d="M12.7433 35.838C25.2474 38.8071 44.9538 38.1143 54.0568 35.5411L54.2568 41.3804C44.9538 43.8547 26.9479 45.8341 13.0434 41.5783L12.7433 35.838Z" fill="#F3F1E9" stroke="black" stroke-width="0.615164" stroke-miterlimit="10" stroke-linecap="round" stroke-linejoin="round"/>
<path d="M14.2441 24.5553C14.2441 24.5553 13.844 49.5952 12.5435 54.2468C11.1431 54.5437 2.14014 55.6324 2.14014 55.6324C2.14014 55.6324 2.74033 18.617 5.34118 13.0746C6.6416 10.3034 13.3438 7.1363 16.945 5.94864" fill="#754342"/>
<path d="M14.2441 24.5553C14.2441 24.5553 13.844 49.5952 12.5435 54.2468C11.1431 54.5437 2.14014 55.6324 2.14014 55.6324C2.14014 55.6324 2.74033 18.617 5.34118 13.0746C6.6416 10.3034 13.3438 7.1363 16.945 5.94864" stroke="black" stroke-width="0.615164" stroke-miterlimit="10" stroke-linecap="round" stroke-linejoin="round"/>
<path d="M1.03968 49.6941C0.739585 52.4653 2.24007 56.6221 2.24007 56.6221L12.4434 55.5334C12.4434 55.5334 13.9439 50.09 13.7438 48.5064C13.5438 46.9229 1.03968 49.6941 1.03968 49.6941V49.6941Z" fill="#F3F1E9" stroke="black" stroke-width="0.615164" stroke-miterlimit="10" stroke-linecap="round" stroke-linejoin="round"/>
<path d="M50.1552 5.84964C53.7563 7.0373 60.3585 10.3034 61.6589 13.0746C64.2598 18.617 64.8599 55.6324 64.8599 55.6324C64.8599 55.6324 55.857 54.5437 54.4566 54.2468C53.0561 49.5951 52.756 24.5553 52.756 24.5553" fill="#754342"/>
<path d="M50.1552 5.84964C53.7563 7.0373 60.3585 10.3034 61.6589 13.0746C64.2598 18.617 64.8599 55.6324 64.8599 55.6324C64.8599 55.6324 55.857 54.5437 54.4566 54.2468C53.0561 49.5951 52.756 24.5553 52.756 24.5553" stroke="black" stroke-width="0.615164" stroke-miterlimit="10" stroke-linecap="round" stroke-linejoin="round"/>
<path d="M65.9604 49.6941C66.2605 52.4653 64.76 56.6221 64.76 56.6221L54.5566 55.5334C54.5566 55.5334 53.0562 50.09 53.2562 48.5064C53.4563 46.9229 65.9604 49.6941 65.9604 49.6941V49.6941Z" fill="#F3F1E9" stroke="black" stroke-width="0.615164" stroke-miterlimit="10" stroke-linecap="round" stroke-linejoin="round"/>
</svg>
