<svg width="63" height="21" viewBox="0 0 63 21" fill="none" xmlns="http://www.w3.org/2000/svg">
<path d="M6.4036 16.8981L20.2419 19.4716L28.9167 15.0871L29.6396 11.6558L27.7807 2.7914L20.9648 3.74456L11.1541 3.64925C11.1541 3.64925 8.8821 12.037 4.85453 12.5136C4.23491 15.1824 6.19706 17.0888 6.4036 16.8981V16.8981Z" fill="#543E18" stroke="black" stroke-width="0.396875" stroke-linecap="round" stroke-linejoin="round"/>
<path d="M6.1969 12.2277L10.5343 11.5605C10.5343 11.5605 13.2193 7.55723 13.9422 4.03055L14.3553 3.7446C16.1109 2.60081 18.2796 2.5055 20.1385 3.36334L20.8614 3.7446C16.7305 5.17433 15.2847 12.2277 15.2847 12.2277" fill="#543E18"/>
<path d="M6.1969 12.2277L10.5343 11.5605C10.5343 11.5605 13.2193 7.55723 13.9422 4.03055L14.3553 3.7446C16.1109 2.60081 18.2796 2.5055 20.1385 3.36334L20.8614 3.7446C16.7305 5.17433 15.2847 12.2277 15.2847 12.2277" stroke="black" stroke-width="0.264583" stroke-linecap="round" stroke-linejoin="round"/>
<path opacity="0.3" d="M20.9647 3.74456C16.7306 4.12582 15.4913 12.2277 15.4913 12.2277C15.4913 12.2277 12.4965 11.9417 10.3278 11.3698C12.9095 9.55882 13.5292 3.83988 13.5292 3.83988L17.1436 2.7914L20.9647 3.74456Z" fill="black"/>
<path d="M17.8665 13.1809C16.2142 11.2746 5.37073 10.3214 2.58241 13.8481C-0.309176 17.2795 1.75624 19.4717 1.75624 19.4717H20.0352" fill="#543E18"/>
<path d="M17.8665 13.1809C16.2142 11.2746 5.37073 10.3214 2.58241 13.8481C-0.309176 17.2795 1.75624 19.4717 1.75624 19.4717H20.0352" stroke="black" stroke-width="0.396875" stroke-linecap="round" stroke-linejoin="round"/>
<path d="M29.8459 15.2777C29.8459 15.2777 28.9165 15.8496 27.6772 16.6121C27.4707 16.7074 27.3674 15.4683 27.1609 15.5636C26.7478 15.7543 26.3347 17.2793 25.9216 17.5653C23.6497 18.8997 21.0679 20.3294 20.0352 20.5201C18.2796 20.9013 0.930051 20.6154 0.82678 20.5201C0.207154 19.7575 0.207154 17.7559 0.82678 17.47C2.27257 16.8981 16.524 18.8997 20.0352 17.47C23.6497 15.9449 28.9165 11.751 29.7427 12.2276C30.7754 12.6089 30.7754 14.5152 29.8459 15.2777V15.2777Z" fill="#543E18" stroke="black" stroke-width="0.396875" stroke-linecap="round" stroke-linejoin="round"/>
<path opacity="0.3" d="M30.0523 15.2777C30.0523 15.2777 29.1229 15.8496 27.8836 16.6121C27.6771 16.7074 27.5738 15.4683 27.3673 15.5636C26.9542 15.7543 26.5411 17.2793 26.128 17.5653C23.856 18.8997 21.2743 20.3294 20.2415 20.5201C18.4859 20.9013 1.13641 20.6154 1.03314 20.5201C0.413514 19.7575 0.413514 17.7559 1.03314 17.47C2.47893 16.8981 16.7303 18.8997 20.2415 17.47C23.856 15.9449 29.1229 11.751 29.949 12.2276C30.7752 12.6089 30.7752 14.5152 30.0523 15.2777Z" fill="black"/>
<path d="M58.1699 12.5136C54.1424 12.037 51.8704 3.64926 51.8704 3.64926H51.7671C50.8377 1.74294 47.9461 1.07572 47.9461 1.07572C48.1526 2.12419 48.3592 2.98204 48.0494 3.83988L41.8531 3.64926C41.0269 3.17268 40.0975 2.88672 39.2713 2.50546C37.5157 1.83825 36.2765 0.789783 35.4503 0.980414C34.6241 1.17105 34.5209 5.46025 34.5209 5.46025L33.2816 11.5604L34.0045 14.9918L42.6793 19.3763L56.5176 16.8028C56.8274 17.0888 58.7896 15.1824 58.1699 12.5136V12.5136Z" fill="#543E18" stroke="black" stroke-width="0.396875" stroke-linecap="round" stroke-linejoin="round"/>
<path d="M56.8273 12.2276L52.4899 11.5604C52.4899 11.5604 49.1853 6.41333 48.4624 2.88665L47.946 2.6007C46.2937 1.83817 44.3315 1.83817 42.7825 2.79133L41.3367 3.64918C45.4675 5.07891 47.6362 12.2276 47.6362 12.2276" fill="#543E18"/>
<path d="M56.8273 12.2276L52.4899 11.5604C52.4899 11.5604 49.1853 6.41333 48.4624 2.88665L47.946 2.6007C46.2937 1.83817 44.3315 1.83817 42.7825 2.79133L41.3367 3.64918C45.4675 5.07891 47.6362 12.2276 47.6362 12.2276" stroke="black" stroke-width="0.198438" stroke-linecap="round" stroke-linejoin="round"/>
<path opacity="0.3" d="M48.4624 2.88673C48.4624 2.88673 50.3212 9.55883 52.903 11.3698C50.7343 11.9417 47.7395 12.2277 47.7395 12.2277C47.7395 12.2277 45.5708 4.41178 41.3367 4.03052L43.2988 2.6961C44.6413 1.74295 46.6035 1.74294 47.946 2.60078L48.4624 2.88673Z" fill="black"/>
<path d="M42.9889 19.4716H61.2679C61.2679 19.4716 63.3333 17.2793 60.4417 13.848C57.6534 10.3213 46.8099 11.2745 45.1576 13.1808" fill="#543E18"/>
<path d="M42.9889 19.4716H61.2679C61.2679 19.4716 63.3333 17.2793 60.4417 13.848C57.6534 10.3213 46.8099 11.2745 45.1576 13.1808" stroke="black" stroke-width="0.396875" stroke-linecap="round" stroke-linejoin="round"/>
<path d="M33.2815 12.2276C34.1076 11.751 39.3745 15.9449 42.989 17.47C46.5002 18.8997 60.7516 16.8981 62.1974 17.47C62.817 17.7559 62.817 19.7575 62.1974 20.5201C62.0941 20.6154 44.7446 20.9013 42.989 20.5201C41.9562 20.3294 39.3745 18.8997 37.1025 17.5653C36.6894 17.2793 36.2763 15.7543 35.8633 15.5637C35.6567 15.4683 35.5534 16.7074 35.3469 16.6121C34.1076 15.8496 33.1782 15.2777 33.1782 15.2777C32.2488 14.5152 32.2488 12.6089 33.2815 12.2276Z" fill="#543E18" stroke="black" stroke-width="0.396875" stroke-linecap="round" stroke-linejoin="round"/>
<path opacity="0.3" d="M33.0747 12.2276C33.9009 11.751 39.1677 15.9449 42.7822 17.47C46.2934 18.8997 60.5448 16.8981 61.9906 17.47C62.6102 17.7559 62.6102 19.7575 61.9906 20.5201C61.8873 20.6154 44.5378 20.9013 42.7822 20.5201C41.7495 20.3294 39.1677 18.8997 36.8957 17.5653C36.4827 17.2793 36.0696 15.7543 35.6565 15.5637C35.4499 15.4683 35.3467 16.7074 35.1401 16.6121C33.9009 15.8496 32.9714 15.2777 32.9714 15.2777C32.2485 14.5152 32.2485 12.6089 33.0747 12.2276V12.2276Z" fill="black"/>
</svg>
