<svg width="57" height="19" viewBox="0 0 57 19" fill="none" xmlns="http://www.w3.org/2000/svg">
<path d="M23.5907 2.99934C21.3256 4.2781 19.8155 4.9175 18.8717 3.63873C14.4358 -2.2984 9.33927 3.63873 9.33927 3.63873C8.39547 7.20101 7.92356 8.29709 4.80902 10.2152C3.86521 10.4893 3.29893 10.6719 3.29893 10.6719C0.467525 12.0421 0.750667 15.513 1.78885 16.2437C2.63827 16.7004 15.8515 16.4264 16.4178 16.4264C18.1166 16.3351 22.175 14.2342 24.0626 13.0468C25.4783 11.1286 23.4019 4.73481 23.5907 2.99934V2.99934Z" fill="#9A6941" stroke="#020202" stroke-width="0.615164" stroke-linecap="round" stroke-linejoin="round"/>
<path d="M4.9035 10.1239C12.0764 9.11915 16.2291 10.3979 16.2291 10.3979C20.0987 8.29708 19.7212 4.82614 19.7212 4.82614" stroke="#020202" stroke-width="0.615164" stroke-linecap="round" stroke-linejoin="round"/>
<path d="M1.03392 15.1476C0.845157 16.6091 1.50582 17.5225 1.50582 17.5225C1.50582 17.5225 15.4741 17.8878 16.6067 17.7052C17.7392 17.5225 24.4402 14.8736 24.8177 13.9602C25.2896 13.0468 25.0065 10.7633 24.7234 11.1286C24.0627 11.9507 17.3617 14.9649 16.3235 15.1476C15.3797 15.239 1.03392 15.1476 1.03392 15.1476Z" fill="#9A6941" stroke="#020202" stroke-width="0.615164" stroke-linecap="round" stroke-linejoin="round"/>
<path d="M8.58434 4.4608C7.35739 5.00884 6.13045 7.29235 6.41359 8.2971C10.2832 6.92699 14.3415 6.65297 18.683 9.30185C20.0044 10.1239 21.4201 6.74431 19.91 5.28286C16.6067 2.35996 8.58434 4.4608 8.58434 4.4608V4.4608Z" fill="#9A6941" stroke="#020202" stroke-width="0.615164" stroke-linecap="round" stroke-linejoin="round"/>
<path d="M33.4065 2.99934C35.6716 4.2781 37.1817 4.9175 38.1255 3.63873C42.5614 -2.2984 47.6579 3.63873 47.6579 3.63873C48.6017 7.20101 49.0736 8.29709 52.1882 10.2152C53.132 10.4893 53.6983 10.6719 53.6983 10.6719C56.5297 12.0421 56.2465 15.513 55.2084 16.2437C54.3589 16.7004 41.1457 16.4264 40.5794 16.4264C38.8806 16.3351 34.8222 14.2342 32.9346 13.0468C31.5189 11.1286 33.5953 4.73481 33.4065 2.99934V2.99934Z" fill="#9A6941" stroke="#020202" stroke-width="0.615164" stroke-linecap="round" stroke-linejoin="round"/>
<path d="M37.276 4.82614C37.276 4.82614 36.8041 8.29708 40.7681 10.3979C40.7681 10.3979 45.0152 9.02781 52.0937 10.1239" stroke="#020202" stroke-width="0.615164" stroke-linecap="round" stroke-linejoin="round"/>
<path d="M40.6737 15.1476C39.6356 14.9649 32.9346 11.9507 32.2739 11.1286C31.9908 10.7633 31.7076 13.0468 32.1795 13.9602C32.557 14.8736 39.258 17.5225 40.3906 17.7052C41.5232 17.8878 55.4914 17.5225 55.4914 17.5225C55.4914 17.5225 56.1521 16.6091 55.9633 15.1476C55.9633 15.1476 41.6175 15.239 40.6737 15.1476Z" fill="#9A6941" stroke="#020202" stroke-width="0.615164" stroke-linecap="round" stroke-linejoin="round"/>
<path d="M48.4128 4.4608C49.6398 5.00884 50.8667 7.29235 50.5836 8.2971C46.714 6.92699 42.6556 6.65297 38.3141 9.30185C36.9928 10.1239 35.5771 6.74431 37.0872 5.28286C40.4849 2.35996 48.4128 4.4608 48.4128 4.4608V4.4608Z" fill="#9A6941" stroke="#020202" stroke-width="0.615164" stroke-linecap="round" stroke-linejoin="round"/>
</svg>
