<svg width="61" height="20" viewBox="0 0 61 20" fill="none" xmlns="http://www.w3.org/2000/svg">
<path d="M23.2462 4.86507C23.1497 4.7679 19.2907 0.783982 17.2647 1.07549C15.5281 1.367 13.5022 4.67073 11.7656 6.22543C10.029 7.87731 8.5819 8.94618 7.8101 9.8207C3.75812 13.0273 -0.583279 15.6508 1.73213 17.5942C2.60041 18.2744 7.61715 18.8574 11.5726 18.8574C14.1775 18.8574 18.2295 18.5659 19.7731 17.3027C24.3074 13.8046 32.0255 13.0273 23.2462 4.86507Z" fill="white" stroke="black" stroke-width="0.396875" stroke-linecap="round" stroke-linejoin="round"/>
<path d="M53.3463 9.91775C52.478 9.04323 51.0309 7.8772 49.3908 6.3225C47.6542 4.7678 45.6282 1.46405 43.8917 1.17254C41.8657 0.881035 38.0067 4.86497 37.9102 4.96214C29.1309 13.1243 36.8489 13.9017 41.3833 17.3998C42.9269 18.663 46.9789 18.9545 49.5837 18.9545C53.5392 18.9545 58.5559 18.3715 59.4242 17.6913C61.7396 15.7479 57.4947 13.0272 53.3463 9.91775V9.91775Z" fill="white" stroke="black" stroke-width="0.396875" stroke-linecap="round" stroke-linejoin="round"/>
</svg>
