<svg width="64" height="19" viewBox="0 0 64 19" fill="none" xmlns="http://www.w3.org/2000/svg">
<path d="M58.7379 10.2465C54.8655 9.75987 52.6811 1.19464 52.6811 1.19464H36.596L35.0073 9.37053L35.7024 12.8745L44.0428 17.3518L57.3478 14.7238C57.3478 14.9185 59.3336 12.9718 58.7379 10.2465V10.2465Z" fill="#42210B" stroke="black" stroke-width="0.638126" stroke-linecap="round" stroke-linejoin="round"/>
<path opacity="0.3" d="M50.4966 1.48667C50.4966 1.48667 51.0923 7.22926 53.5746 9.17591C51.4895 9.7599 48.61 10.0519 48.61 10.0519C48.61 10.0519 46.5249 2.07066 42.454 1.68133L50.4966 1.48667Z" fill="black"/>
<path d="M44.1419 17.4491H61.8157C61.8157 17.4491 63.8016 15.2105 61.0214 11.7065C58.3405 8.10526 47.915 9.07856 46.3263 11.0252" fill="#42210B"/>
<path d="M44.1419 17.4491H61.8157C61.8157 17.4491 63.8016 15.2105 61.0214 11.7065C58.3405 8.10526 47.915 9.07856 46.3263 11.0252" stroke="black" stroke-width="0.638126" stroke-linecap="round" stroke-linejoin="round"/>
<path d="M34.7102 9.95455C35.5045 9.46789 40.5684 13.8478 44.0436 15.3078C47.4195 16.7678 61.2209 14.7238 62.5117 15.3078C63.1075 15.5998 63.1075 17.6438 62.5117 18.4224C62.4124 18.5198 45.7315 18.8118 44.0436 18.4224C43.15 18.2278 40.5684 16.7678 38.384 15.4051C37.9868 15.1131 37.5897 13.5558 37.1925 13.3612C36.9939 13.2638 36.8946 14.5291 36.696 14.4318C35.4053 13.6532 34.6109 13.0692 34.6109 13.0692C33.9159 12.2905 33.9159 10.3439 34.7102 9.95455V9.95455Z" fill="#42210B" stroke="black" stroke-width="0.638126" stroke-linecap="round" stroke-linejoin="round"/>
<path d="M45.8298 7.22921L53.4752 6.5479" stroke="black" stroke-width="0.425417" stroke-linecap="round" stroke-linejoin="round"/>
<path d="M44.2412 5.08793L52.4824 4.40661" stroke="black" stroke-width="0.425417" stroke-linecap="round" stroke-linejoin="round"/>
<path d="M43.7447 1.97333C47.7163 3.43331 48.61 9.95455 48.61 9.95455C48.61 9.95455 45.3334 10.1492 42.5532 10.5385C40.6667 10.7332 40.0709 12.4852 40.0709 12.4852" stroke="black" stroke-width="0.319063" stroke-linecap="round" stroke-linejoin="round"/>
<path d="M50.0995 1.58397C50.7945 5.18525 53.3761 9.2732 53.3761 9.2732L57.5463 9.95452" stroke="black" stroke-width="0.319063" stroke-miterlimit="10" stroke-linecap="round"/>
<path opacity="0.3" d="M34.6099 9.85723C35.4043 9.37057 40.4681 13.7505 43.9433 15.2105C47.3192 16.6705 61.1206 14.6265 62.4114 15.2105C63.0072 15.5025 63.0072 17.5465 62.4114 18.3251C62.3121 18.4225 45.6312 18.7144 43.9433 18.3251C43.0497 18.1305 40.4681 16.6705 38.2837 15.3078C37.8865 15.0158 37.4894 13.4585 37.0922 13.2639C36.8936 13.1665 36.7943 14.4318 36.5958 14.3345C35.305 13.5559 34.5106 12.9719 34.5106 12.9719C33.8156 12.1932 33.8156 10.2466 34.6099 9.85723Z" fill="black"/>
<path d="M6.80855 14.5291L20.1136 17.1571L28.454 12.6798L29.149 9.17588L27.5604 0.999992H11.3759C11.3759 0.999992 9.19154 9.5652 5.31919 10.0519C4.72344 12.7772 6.60997 14.7238 6.80855 14.5291V14.5291Z" fill="#42210B" stroke="black" stroke-width="0.638126" stroke-linecap="round" stroke-linejoin="round"/>
<path opacity="0.3" d="M21.7021 1.3893C17.6312 1.77863 15.5461 9.75986 15.5461 9.75986C15.5461 9.75986 12.6667 9.46786 10.5815 8.88386C13.0638 7.03456 13.6596 1.19464 13.6596 1.19464L21.7021 1.3893Z" fill="black"/>
<path d="M17.8299 10.7332C16.2413 8.78654 5.8157 7.81321 3.13485 11.4145C0.354697 14.9185 2.34051 17.1571 2.34051 17.1571H19.915" fill="#42210B"/>
<path d="M17.8299 10.7332C16.2413 8.78654 5.8157 7.81321 3.13485 11.4145C0.354697 14.9185 2.34051 17.1571 2.34051 17.1571H19.915" stroke="black" stroke-width="0.638126" stroke-linecap="round" stroke-linejoin="round"/>
<path d="M29.3475 12.8745C29.3475 12.8745 28.4539 13.4585 27.2624 14.2371C27.0638 14.3345 26.9645 13.0691 26.766 13.1665C26.3688 13.3611 25.9716 14.9185 25.5745 15.2105C23.3901 16.5731 20.9078 18.0331 19.9149 18.2278C18.2269 18.6171 1.54604 18.3251 1.44675 18.2278C0.851002 17.4491 0.851002 15.4051 1.44675 15.1131C2.83682 14.5291 16.539 16.5731 19.9149 15.1131C23.3901 13.5558 28.4539 9.27319 29.2482 9.75985C30.2411 10.1492 30.2412 12.0958 29.3475 12.8745V12.8745Z" fill="#42210B" stroke="black" stroke-width="0.638126" stroke-linecap="round" stroke-linejoin="round"/>
<path d="M18.1278 7.03457L10.4824 6.35326" stroke="black" stroke-width="0.425417" stroke-linecap="round" stroke-linejoin="round"/>
<path d="M19.8156 4.89329L11.5745 4.21198" stroke="black" stroke-width="0.425417" stroke-linecap="round" stroke-linejoin="round"/>
<path d="M20.8086 1.09731C16.837 2.5573 15.4469 9.75988 15.4469 9.75988C15.4469 9.75988 18.7235 9.95454 21.5037 10.3439C23.3902 10.5385 23.9859 12.2905 23.9859 12.2905" stroke="black" stroke-width="0.319063" stroke-linecap="round" stroke-linejoin="round"/>
<path d="M14.0567 1.38932C13.3617 4.9906 10.7801 9.07854 10.7801 9.07854L6.60986 9.75988" stroke="black" stroke-width="0.319063" stroke-miterlimit="10" stroke-linecap="round"/>
<path opacity="0.3" d="M29.5471 12.8745C29.5471 12.8745 28.6535 13.4585 27.462 14.2371C27.2634 14.3345 27.1641 13.0691 26.9656 13.1665C26.5684 13.3611 26.1712 14.9185 25.7741 15.2105C23.5897 16.5731 21.1074 18.0331 20.1145 18.2278C18.4265 18.6171 1.74562 18.3251 1.64633 18.2278C1.05059 17.4491 1.05059 15.4051 1.64633 15.1131C3.03641 14.5291 16.7386 16.5731 20.1145 15.1131C23.5897 13.5558 28.6535 9.27319 29.4478 9.75985C30.2422 10.1492 30.2422 12.0958 29.5471 12.8745Z" fill="black"/>
</svg>
